<svg width="349" height="306" viewBox="0 0 349 306" fill="none" xmlns="http://www.w3.org/2000/svg">
<path d="M325.81 300.498C328.852 299.827 339.394 299.888 342.561 300.363C343.633 300.523 344.667 300.796 345.575 301.603C345.962 302.464 346.111 302.901 345.911 303.951C345.731 304.907 345.281 305.139 344.694 305.587C342.561 306.264 328.092 306.035 325.982 305.431C325.458 304.78 325.066 304.4 325.007 303.368C324.941 302.249 325.328 301.361 325.81 300.498Z" fill="#0A4A7B"/>
<path d="M8.72509 300.165C13.7808 300.122 18.8944 299.865 23.9443 300.093C25.2791 300.154 27.7813 300.297 28.7033 301.807C29.098 302.453 29.0098 302.628 28.9372 303.414C28.4347 304.395 27.9781 305.053 27.266 305.743C23.6669 305.772 9.51553 306.901 7.28488 304.185C7.17191 303.822 6.94233 303.346 7.01339 302.951C7.22986 301.75 8.04325 300.863 8.72509 300.165Z" fill="#0A4A7B"/>
<path d="M66.9874 8.05668C67.2159 8.03221 67.4435 8.00968 67.6731 8.0023C68.4743 7.97589 69.2055 8.17321 69.7698 8.76282C71.099 10.1514 70.5931 13.5088 70.55 15.2924C72.3305 15.2614 75.603 14.5692 77.0436 15.7655C77.6171 16.2413 77.9345 16.9432 77.991 17.6707C78.0542 18.4844 77.7847 19.2702 77.2021 19.8578C75.9437 21.1276 72.2981 20.4937 70.6216 20.4385C70.5129 23.213 71.3219 25.7804 69.2031 27.9788C69.1272 27.9831 69.0517 27.9897 68.9758 27.9916C67.9316 28.018 66.8511 28.0304 66.0701 27.2416C64.7524 25.9109 65.3409 22.2431 65.3943 20.4253C63.5256 20.5088 60.1852 21.0223 58.711 19.7685C58.2703 19.3937 58.03 18.8398 58.0039 18.2653C57.9668 17.4306 58.1913 16.4752 58.8228 15.8793C60.1686 14.6108 63.5861 15.1215 65.3848 15.172C65.3401 13.9105 65.2504 12.6077 65.3243 11.3485C65.4128 9.84455 65.8792 9.04752 66.9874 8.05668Z" fill="#FCFDFC"/>
<path d="M318.855 57.1058C319.675 56.9749 320.209 56.9216 320.995 57.2095C321.368 57.5092 321.673 57.7482 321.834 58.2071C322.737 60.8382 319.725 67.8099 318.443 70.4046C314.572 78.2408 305.11 88.8728 296.487 91.8249C295.854 92.0739 295.698 92.0139 295.042 91.9102C294.58 91.5966 294.248 91.3524 294.073 90.8107C293.852 90.1154 294.161 89.4759 294.645 88.9706C296.304 87.2331 299.107 86.0424 301.144 84.6951C303.058 83.4298 304.839 81.8629 306.483 80.2872C311.361 75.6116 314.69 69.789 316.712 63.4781C317.349 61.4839 317.654 59.1036 318.733 57.2955C318.775 57.2316 318.817 57.169 318.855 57.1058Z" fill="#0A4A7B"/>
<path d="M9.96764 141.01C11.0235 140.971 11.9855 141.011 12.7804 141.767C14.2248 143.141 13.811 146.677 13.8142 148.542C16.2588 148.496 19.1445 148.208 21.1119 149.912C21.5549 150.296 21.9904 150.84 21.9998 151.437C22.0089 152.004 21.6782 152.517 21.2522 152.89C19.3148 154.583 16.3045 154.201 13.8981 154.135C13.8382 155.036 13.8685 155.948 13.854 156.852C13.822 158.827 13.8425 160.38 12.2724 161.847C11.9244 161.916 11.5685 161.984 11.2126 161.997C10.3826 162.028 9.4419 161.783 8.86296 161.184C7.51668 159.79 7.94113 156.274 7.93797 154.424C6.47464 154.428 4.69129 154.588 3.29496 154.154C1.8805 153.714 0.758077 153.162 0.041979 151.845C0.0143913 151.459 -0.0585107 151.199 0.0924334 150.831C0.423486 150.024 1.37407 149.411 2.16899 149.082C2.28171 149.036 2.39679 148.994 2.51029 148.949C4.22427 148.267 6.22675 148.477 8.05148 148.506C8.00064 147.018 7.78428 145.292 8.00143 143.825C8.2178 142.365 8.79437 141.826 9.96764 141.01Z" fill="#FCFDFC"/>
<path d="M337.366 102.124C338.32 101.954 339.123 101.882 339.996 102.425C340.88 102.975 341.364 104.014 341.587 105.035C341.876 106.383 341.711 108.999 341.026 110.168C342.945 110.147 346.547 109.67 348.05 111.001C348.734 111.605 348.988 112.488 349 113.398C349.011 114.143 348.811 114.877 348.292 115.408C346.854 116.878 342.898 116.342 340.945 116.337C341.215 116.76 341.318 117.066 341.399 117.565C341.714 119.467 342.26 122.392 341.022 124.058C340.503 124.755 339.911 124.87 339.112 124.988C338.454 125.034 337.559 124.958 336.97 124.632C334.783 123.427 336.294 118.674 335.506 116.545C335.483 116.479 335.452 116.414 335.429 116.349C333.46 116.4 330.942 116.723 329.17 115.677C328.528 115.299 328.174 114.75 328.036 114.01C327.886 113.18 328.224 112.057 328.712 111.394C329.854 109.845 333.614 110.314 335.39 110.114C335.913 109.005 335.659 107.424 335.663 106.19C335.671 104.255 336.098 103.435 337.366 102.124Z" fill="#FCFDFC"/>
<path d="M295.859 240.12C296.522 240.015 297.241 239.903 297.888 240.143C299.69 240.813 299.42 244.647 300.213 246.254C301.472 248.801 304.179 248.366 306.365 249.269C307.047 249.549 307.621 250.005 307.863 250.753C308.106 251.497 308.009 251.984 307.705 252.676C306.308 254.145 303.875 254.2 302.007 254.511C301.927 254.738 301.981 254.649 301.819 254.842C299.648 257.47 299.678 261.394 297.607 262.79C297.472 262.842 297.299 262.917 297.153 262.951C294.373 263.579 294.604 258.039 293.322 256.285C291.447 253.719 288.537 254.886 286.639 253.187C286.185 252.781 286.069 252.366 286.015 251.77C285.684 248.166 290.774 249.086 292.614 247.579C294.789 245.798 294.181 242.384 295.859 240.12Z" fill="#FCFDFC"/>
<path d="M152.092 17.0532C153.905 16.9242 155.466 16.9873 157.142 17.7242C157.268 17.7808 157.393 17.8402 157.516 17.9024C157.639 17.9648 157.761 18.0301 157.881 18.0981C158.001 18.1661 158.119 18.2368 158.235 18.3102C158.351 18.3838 158.465 18.4601 158.577 18.5391C158.689 18.618 158.799 18.6996 158.907 18.7836C159.015 18.8677 159.121 18.9542 159.224 19.0431C159.328 19.1323 159.428 19.2237 159.527 19.3175C159.625 19.4111 159.722 19.507 159.815 19.6054C159.909 19.7036 160 19.8039 160.088 19.9065C160.176 20.009 160.262 20.1135 160.344 20.2199C160.427 20.3266 160.507 20.435 160.584 20.5453C160.661 20.6554 160.735 20.7673 160.806 20.881C160.878 20.9949 160.946 21.1104 161.011 21.2272C161.076 21.3441 161.138 21.4624 161.197 21.5822C161.256 21.7022 161.312 21.8235 161.364 21.9459C161.417 22.0684 161.466 22.1919 161.512 22.3165C161.56 22.4426 161.605 22.5697 161.645 22.6977C161.687 22.826 161.724 22.9552 161.758 23.0852C161.792 23.2151 161.822 23.346 161.849 23.4777C161.876 23.6091 161.9 23.7412 161.919 23.8738C161.939 24.0062 161.955 24.1391 161.968 24.2725C161.98 24.4059 161.989 24.5395 161.994 24.6734C162 24.8073 162.001 24.9411 161.999 25.075C161.997 25.2089 161.991 25.3426 161.982 25.4763C161.973 25.6099 161.96 25.7433 161.944 25.8764C161.927 26.0093 161.907 26.1419 161.883 26.274C161.86 26.406 161.833 26.5373 161.802 26.668C161.771 26.7987 161.736 26.9286 161.699 27.0576C161.661 27.1869 161.62 27.315 161.575 27.4421C161.53 27.5689 161.482 27.6948 161.43 27.8196C161.379 27.9443 161.324 28.0677 161.265 28.1899C161.207 28.3119 161.146 28.4324 161.081 28.5515C159.887 30.7902 157.932 32.0406 155.476 32.81C153.334 33.1733 151.351 33.0611 149.411 32.0734C147.409 31.0534 145.899 29.1867 145.307 27.1185C145.269 26.9892 145.235 26.8592 145.204 26.7285C145.173 26.5975 145.146 26.4661 145.122 26.3342C145.098 26.202 145.077 26.0693 145.061 25.9362C145.044 25.8033 145.03 25.6699 145.021 25.536C145.011 25.4024 145.004 25.2687 145.002 25.1348C144.999 25.0007 145 24.8667 145.004 24.7328C145.008 24.5987 145.016 24.4649 145.028 24.3316C145.039 24.1979 145.054 24.0647 145.072 23.9318C145.091 23.7989 145.113 23.6664 145.138 23.5345C145.164 23.4028 145.192 23.2718 145.225 23.1413C145.257 23.0106 145.293 22.8808 145.332 22.7521C145.371 22.6233 145.414 22.4955 145.46 22.3687C145.506 22.2421 145.555 22.1165 145.608 21.9918C145.66 21.8674 145.716 21.7444 145.775 21.6226C145.835 21.5007 145.897 21.3803 145.963 21.2615C146.028 21.1427 146.096 21.0254 146.168 20.9098C147.538 18.6885 149.533 17.6819 152.092 17.0532Z" fill="#0A4A7B"/>
<path d="M151.116 20.0768C151.832 20.0282 152.573 19.9669 153.29 20.0213C154.68 20.1273 156.039 20.7922 156.93 21.7501C157.79 22.6752 158.155 23.8418 157.94 25.0314C157.622 26.7899 156.321 27.8774 154.77 28.8199C153.902 28.9344 152.996 29.0779 152.122 28.9495C150.777 28.7516 149.538 28.071 148.794 27.0402C148.032 25.9863 147.823 24.6512 148.147 23.4365C148.588 21.7817 149.603 20.9522 151.116 20.0768Z" fill="#F5B955"/>
<path d="M202.376 0.00176452C205.738 -0.043763 208.784 0.787406 211.4 2.99724C215.086 6.11063 216.169 9.98437 216.616 14.6188C219.312 14.5982 221.505 14.869 223.551 16.8197C223.646 16.9105 223.738 17.0036 223.828 17.0991C223.919 17.1948 224.006 17.2926 224.092 17.3925C224.177 17.4924 224.26 17.5945 224.34 17.6988C224.42 17.803 224.498 17.9091 224.573 18.0171C224.648 18.1252 224.721 18.2352 224.79 18.347C224.86 18.4588 224.927 18.5723 224.991 18.6875C225.055 18.8027 225.116 18.9194 225.175 19.0377C225.233 19.156 225.288 19.2757 225.34 19.3969C225.393 19.518 225.442 19.6405 225.489 19.7642C225.535 19.8877 225.578 20.0124 225.618 20.1382C225.659 20.264 225.696 20.3907 225.73 20.5183C225.764 20.6462 225.794 20.7748 225.822 20.904C225.85 21.0332 225.874 21.163 225.896 21.2935C225.917 21.424 225.935 21.555 225.95 21.6865C225.964 21.8178 225.976 21.9494 225.984 22.0815C225.993 22.2135 225.997 22.3457 225.999 22.478C226.001 22.6098 226 22.7414 225.995 22.8729C225.99 23.0047 225.982 23.1362 225.97 23.2675C225.959 23.3988 225.944 23.5297 225.926 23.6601C225.907 23.7904 225.886 23.9202 225.862 24.0497C225.837 24.1791 225.809 24.3078 225.778 24.4357C225.747 24.5636 225.712 24.6905 225.675 24.8166C225.637 24.9427 225.597 25.0677 225.553 25.1917C225.509 25.3157 225.462 25.4386 225.412 25.5602C225.362 25.6819 225.309 25.8021 225.253 25.921C225.197 26.0398 225.138 26.157 225.076 26.2727C225.014 26.3884 224.949 26.5026 224.881 26.6151C224.813 26.7275 224.743 26.838 224.669 26.9467C224.596 27.0554 224.52 27.1621 224.442 27.2669C224.363 27.3717 224.282 27.4745 224.198 27.5751C224.114 27.6758 224.027 27.7741 223.939 27.8701C223.85 27.9663 223.759 28.0601 223.665 28.1514C222.45 29.3608 220.92 30.1297 219.264 30.5002C215.504 31.3422 204.072 30.7749 199.543 30.7691C194.919 30.7912 188.627 31.399 184.232 30.548C181.606 30.0391 179.216 28.5281 177.735 26.2521C176.155 23.8247 175.652 20.6518 176.235 17.8186C176.272 17.6417 176.314 17.4658 176.36 17.2909C176.405 17.1161 176.455 16.9424 176.509 16.7699C176.564 16.5974 176.622 16.4264 176.684 16.257C176.746 16.0874 176.813 15.9194 176.883 15.7531C176.954 15.5871 177.028 15.4228 177.107 15.2601C177.185 15.0977 177.267 14.9373 177.353 14.7788C177.439 14.6203 177.529 14.464 177.622 14.3099C177.716 14.156 177.814 14.0044 177.914 13.855C178.015 13.7058 178.12 13.5593 178.228 13.4153C178.336 13.2713 178.447 13.13 178.562 12.9915C178.677 12.8532 178.795 12.7177 178.916 12.5849C179.037 12.4523 179.162 12.3229 179.289 12.1965C179.417 12.0699 179.548 11.9467 179.681 11.8269C179.815 11.707 179.951 11.5904 180.09 11.477C180.229 11.3639 180.371 11.2542 180.515 11.1478C180.659 11.0417 180.806 10.9393 180.956 10.8404C183.789 8.99093 186.541 9.13607 189.716 9.82404C190.381 8.05898 191.136 6.50559 192.313 5.02769C194.929 1.74465 198.334 0.430969 202.376 0.00176452Z" fill="#B7E1F5"/>
<path d="M37.3233 46.0046C39.0527 45.9429 40.6479 46.5098 42.0777 47.5042C45.5922 49.9483 48.741 55.5243 49.4638 59.8503C50.2527 64.5747 49.8298 69.817 49.8287 74.6151L49.8239 100.462L49.8708 132.363C49.8808 137.831 50.2117 143.523 49.7737 148.963C49.5532 151.701 49.1376 153.85 47.5605 156.082C45.3801 159.165 42.0312 160.459 38.5211 160.985C36.233 161.103 34.0822 160.535 32.088 159.359C29.8327 158.029 27.5416 155.616 26.8494 152.938C26.401 151.203 26.1953 149.259 26.1232 147.466C25.8647 141.034 26.09 134.517 26.1107 128.076L26.0955 97.0992L26.1484 73.8989C26.1653 69.6103 25.9323 65.1308 26.411 60.8727C26.7164 58.1555 27.9268 55.2736 29.2454 52.9313C31.1476 49.5514 33.6238 46.9862 37.3233 46.0046Z" fill="#0A4A7B"/>
<path d="M36.5275 50.0335C36.7037 50.0186 36.8802 50.0017 37.0568 50.0001C38.6379 49.9865 39.9577 51.0035 41.0194 52.1428C44.4177 55.7882 46.0956 60.9043 45.9958 65.9067L39.1358 65.9698L29.0549 66C28.9769 64.4278 28.9324 62.996 29.2767 61.4567C30.3132 56.8237 32.6129 52.5677 36.5275 50.0335Z" fill="#FCFDFC"/>
<path d="M29.3705 126.088C34.8159 125.92 40.2738 126.029 45.7199 126.114C45.7653 131.698 46.5281 147.576 45.3255 152.075C44.9289 153.56 44.1937 154.585 43.217 155.73C41.4809 157.149 39.5461 158.071 37.2794 157.996C35.1652 157.925 33.2059 157.094 31.7667 155.495C30.6215 154.223 29.903 152.629 29.5495 150.949C28.5635 146.262 29.164 131.508 29.3705 126.088Z" fill="#FCFDFC"/>
<path d="M29.19 69L45.8392 69.0568C45.8014 86.3711 46.2139 103.687 45.8465 121C40.3214 120.942 34.7962 120.93 29.2711 120.962C29.25 117.448 28.7186 108.067 29.3881 105.227L29.955 105.018C31.5986 105.084 33.4899 105.326 35.112 105.076C36.1362 104.918 36.7124 104.683 37.342 103.845C37.5014 103.118 37.4965 102.98 37.2663 102.273C35.5448 100.624 31.2809 101.254 29.0325 101.306L29 96.429C31.0767 96.4429 33.6726 96.7949 35.6572 96.2675C36.5327 96.0349 36.957 95.7158 37.3913 94.926C37.4349 94.0856 37.4101 93.9326 37.0228 93.19C35.0902 91.7252 31.3409 92.3469 29.0019 92.406L29.0076 87.3965C30.9268 87.3772 33.8691 87.939 35.6071 87.1856C36.3671 86.8564 37.2086 86.186 37.4739 85.3603C37.6674 84.7571 37.4747 84.467 37.1853 83.9515C35.2473 82.583 31.4602 83.3059 29.1116 83.3723L29.1166 78.0352C31.8035 78.109 35.4813 78.6074 37.7056 76.7559C37.9633 76.5415 37.9071 76.1327 37.9396 75.8042C37.8933 75.7602 37.8482 75.715 37.8012 75.6721C35.5949 73.6613 31.9316 74.176 29.2015 74.2714L29.19 69Z" fill="#FCC252"/>
<path d="M232.859 33.1485C232.326 32.8195 231.616 32.4142 231.284 31.8729C230.817 31.112 230.942 30.048 231.121 29.2149C232.66 22.0624 242.009 11.2246 248.077 7.27249C252.144 4.62379 264.421 -1.02543 268.979 0.161754C269.774 0.368659 270.112 0.926994 270.518 1.59304C272.474 1.35514 274.807 0.867324 276.483 2.2343C277.289 2.89105 277.582 3.94378 277.621 4.94886C277.76 8.52903 277.363 12.2378 277.392 15.8471C278.213 15.8831 278.466 16.0551 279.089 15.4824C280.034 12.3804 277.784 1.77399 280.597 0.505434C283.314 -0.719725 293.157 2.86741 296.036 4.25104C307.485 9.74605 316.754 19.4218 320.967 31.4998C322.069 34.6541 324.496 43.6875 323.147 46.6171C322.888 47.1789 322.498 47.3401 321.938 47.504C318.753 48.4354 310.16 47.795 306.422 47.7702C307.64 49.9415 306.237 54.9987 305.572 57.3692C305.433 57.8587 305.283 58.3447 305.124 58.8272C304.961 59.3095 304.789 59.7876 304.606 60.2616C304.42 60.7353 304.223 61.2044 304.014 61.6689C303.808 62.1333 303.59 62.5925 303.361 63.0463C303.132 63.4999 302.891 63.9478 302.638 64.39C302.388 64.832 302.127 65.2678 301.854 65.6973C301.583 66.1266 301.301 66.5491 301.007 66.9647C300.716 67.3803 300.413 67.7886 300.099 68.1895C299.787 68.5904 299.466 68.9835 299.136 69.3689C298.804 69.7541 298.462 70.1311 298.112 70.4999C297.764 70.8685 297.406 71.2285 297.037 71.5798C296.671 71.9311 296.297 72.2732 295.913 72.6062C295.529 72.9394 295.137 73.2629 294.738 73.5768C294.338 73.8909 293.931 74.1951 293.516 74.4893C293.104 74.7835 292.684 75.0675 292.256 75.3413C291.828 75.6151 291.394 75.8783 290.953 76.131C290.276 76.5073 289.586 76.86 288.885 77.1891C288.185 77.5179 287.473 77.8224 286.752 78.1024C286.03 78.3824 285.3 78.6372 284.56 78.8668C283.821 79.0967 283.075 79.3008 282.321 79.479L282.305 85.0418C283.818 85.0395 287.026 84.654 288.136 85.7621C289.284 88.2756 289.643 99.0684 288.661 101.764C288.464 102.304 287.962 102.709 287.444 102.937C286.269 103.451 263.901 103.377 261.982 103.008C261.086 102.427 260.757 101.512 260.531 100.502C260.02 98.2315 259.779 87.6595 261.057 85.9047C261.622 85.1279 263.237 84.8624 264.15 84.8078C265.998 84.6966 267.896 84.7915 269.748 84.8171L269.764 79.4395C263.243 77.8896 258.54 75.6168 253.401 71.2768C253.61 86.966 253.656 102.656 253.538 118.345L295.928 118.433C301.022 118.446 311.022 117.948 315.629 118.857C317.674 119.26 319.587 120.533 321.037 121.992C324.195 125.168 324.342 129.167 324.299 133.403C324.257 137.301 324.786 159.922 323.777 161.938C328.976 161.801 333.491 161.819 337.546 165.608C340.622 168.484 341.705 172.245 341.809 176.357C341.979 183.027 341.824 189.742 341.836 196.418C341.844 201.175 342.393 206.723 341.438 211.378C340.97 213.668 340.054 215.686 338.454 217.402C335.652 220.408 331.902 221.608 327.894 221.694C321.025 221.842 314.126 221.605 307.253 221.617L253.798 221.647L253.878 277.611C253.299 278.447 252.817 279.226 252.552 280.217C251.345 284.726 251.672 295.008 252.549 299.701C252.679 300.399 252.862 301.088 253.052 301.771L295.619 301.751C302.039 301.757 308.707 301.297 315.1 301.703C315.761 301.745 316.603 301.809 317.118 302.279C317.585 302.71 317.933 303.425 317.914 304.069C317.902 304.504 317.69 304.936 317.512 305.325C316.426 306.168 315.166 305.983 313.844 305.982L119.9 305.855L61.2307 305.806L43.9726 305.783C41.8857 305.782 39.4861 306.09 37.4425 305.85C36.8001 305.775 36.3641 305.593 35.8288 305.238C35.4457 304.726 35.227 304.165 35.3027 303.506C35.3851 302.792 35.7816 302.326 36.3672 301.949C37.8928 300.966 67.189 301.57 71.3195 301.555C66.8821 297.317 64.0724 292.827 63.8896 286.55C63.602 276.67 63.9944 266.716 63.8223 256.82L61.0049 257.635C60.6586 260.046 60.6273 264.674 58.5478 266.257C56.1219 268.103 51.1411 267.608 48.3755 267.087C47.0536 266.837 45.1905 266.336 44.3517 265.207C42.7194 263.01 43.8025 257.766 41.6886 256.439C40.8784 256.36 40.3056 256.424 39.6477 256.946C37.2133 258.878 35.9447 262.063 32.2588 261.728C29.7429 261.499 25.8235 259.108 24.2422 257.228C23.2345 256.029 22.8932 254.561 23.095 253.023C23.4328 250.448 24.8158 247.87 25.8533 245.504C24.4861 244.18 23.4653 242.896 22.601 241.197C19.8806 241.269 15.5295 242.115 13.3796 240.133C11.0871 238.02 10.0303 233.388 10.0006 230.395C9.98279 228.592 10.3759 226.618 11.7314 225.333C13.3216 223.826 15.6423 223.352 17.6728 222.725L18.1772 217.699C15.3037 215.944 11.0326 214.667 10.1927 210.996C9.50427 207.986 10.9746 204.242 12.6011 201.763C13.5899 200.256 15.0417 198.86 16.8576 198.489C19.3287 197.985 22.1407 199.492 24.4339 200.284C26.1725 198.103 27.8779 195.957 30.0401 194.174C28.9559 192.047 27.9568 190.142 27.4798 187.776C28.4237 184.541 30.1298 182.909 33.0469 181.317C35.1756 180.155 37.8755 178.99 40.3276 179.703C42.9827 180.473 44.9192 183.854 46.4738 185.95C48.98 185.757 51.4917 185.507 54.0072 185.554C54.7343 182.836 55.4281 179.631 58.1408 178.188C60.0753 177.159 61.9036 177.613 63.8548 178.219L63.8162 106.951L63.8235 88.2524C63.8258 83.8899 63.5181 79.3136 64.3063 75.0116C65.0971 70.6917 67.7197 66.184 70.7849 63.0881C71.233 62.6428 71.6955 62.2129 72.1725 61.7983C72.6492 61.384 73.1392 60.9858 73.6425 60.6037C74.1455 60.222 74.6607 59.8574 75.1882 59.5099C75.7154 59.1625 76.2537 58.833 76.8031 58.5215C77.3523 58.21 77.9112 57.9171 78.4799 57.6427C79.0486 57.3687 79.6257 57.1137 80.2112 56.8779C80.7966 56.6421 81.3894 56.4261 81.9896 56.2301C82.5895 56.0337 83.1952 55.8577 83.8066 55.7019C88.4117 54.5779 93.5777 54.9813 98.2984 54.97L115.838 54.9665L226.781 54.9692C226.766 52.4069 225.841 46.3939 227.601 44.4953C228.548 43.4736 230.009 43.6886 231.281 43.6685L231.444 43.6673C231.576 40.3324 233.009 36.209 232.859 33.1485Z" fill="#1A2770"/>
<path d="M274.08 79L277.999 79.0134L278 85L274 84.9787L274.08 79Z" fill="#74C8F3"/>
<path d="M237.587 48.0706L242.769 48C242.782 50.7038 243.375 53.3687 244 56C241.961 55.4745 239.989 55.2621 237.874 55.2308L230.03 55.3126C229.97 52.9515 230.019 50.58 230.018 48.2182C232.537 48.1276 235.066 48.1187 237.587 48.0706Z" fill="#56A0F7"/>
<path d="M264.002 88.2051C270.383 88.1914 277.64 87.6092 283.948 88.4701C283.974 91.9707 284.071 95.4906 283.907 98.9876L264 99L264.002 88.2051Z" fill="#7C8CDD"/>
<path d="M43 208.107C46.4852 205.652 50.389 204.394 54.5601 205.288C57.8867 206.001 60.3579 207.977 62.8798 210.269C62.8834 213.043 63.2186 233.251 62.7535 234.257C62.6953 234.383 62.3992 234.753 62.2822 234.882C62.2438 234.925 62.1985 234.961 62.1569 235C60.4488 227.944 58.6555 221.492 54.1628 215.797C51.5146 212.441 47.2623 208.501 43 208.107Z" fill="#F2F2F2"/>
<path d="M232.407 32.3173C234.429 31.0557 235.142 27.8351 236.165 25.7284C242.285 13.1234 252.739 5.96425 266 3L265.989 15.8536C257.639 18.3258 250.571 23.5991 246.36 31.4823C244.446 35.0654 243.386 39.0075 242.669 43C238.78 42.9528 234.89 42.934 231 42.9436C231.131 39.5746 232.555 35.4091 232.407 32.3173Z" fill="#6E41A3"/>
<path d="M43.1389 207C47.5579 207.395 51.9665 211.345 54.712 214.709C59.3699 220.418 61.2291 226.887 63 233.96C59.0964 236.769 55.2445 238.491 50.4047 237.875C46.1226 237.33 41.9637 235.017 39.3302 231.453C39.1662 231.227 39.0077 230.997 38.8546 230.762C38.7016 230.528 38.5542 230.29 38.4126 230.048C38.2709 229.807 38.135 229.561 38.0047 229.313C37.8747 229.064 37.7507 228.812 37.6326 228.557C37.5147 228.302 37.4029 228.044 37.2969 227.784C37.1912 227.523 37.0918 227.26 36.9985 226.994C36.9052 226.728 36.8184 226.46 36.738 226.19C36.6574 225.92 36.5833 225.647 36.5158 225.373C36.4484 225.099 36.3875 224.823 36.3331 224.546C36.2788 224.269 36.231 223.991 36.1899 223.711C36.1487 223.432 36.1142 223.151 36.0864 222.87C36.0586 222.588 36.0375 222.306 36.0231 222.024C36.0088 221.742 36.0011 221.459 36.0001 221.176C35.9993 220.894 36.0052 220.611 36.0176 220.328C36.0302 220.046 36.0496 219.764 36.0756 219.482C36.1014 219.2 36.134 218.92 36.1735 218.64C36.8816 213.638 39.2647 209.968 43.1389 207Z" fill="#FCFDFC"/>
<path d="M283.003 3C287.852 3.58214 293.41 6.12851 297.599 8.79822C297.897 8.98766 298.194 9.18116 298.49 9.37874C298.784 9.57604 299.076 9.77742 299.367 9.98287C299.658 10.1886 299.945 10.3981 300.229 10.6114C300.515 10.8247 300.798 11.0418 301.079 11.2628C301.36 11.4837 301.637 11.7085 301.911 11.9373C302.187 12.1658 302.459 12.3981 302.728 12.6343C302.999 12.8704 303.266 13.11 303.53 13.3532C303.793 13.5966 304.056 13.8436 304.317 14.0941C304.576 14.3446 304.83 14.5985 305.082 14.8558C305.335 15.1133 305.585 15.3743 305.831 15.6386C306.08 15.9027 306.324 16.1703 306.563 16.4414C306.804 16.7122 307.042 16.9864 307.279 17.2637C307.513 17.5411 307.744 17.8216 307.973 18.1052C308.199 18.3891 308.423 18.6759 308.644 18.9658C308.868 19.2556 309.087 19.5485 309.301 19.8443C309.514 20.1398 309.726 20.4385 309.935 20.7403C310.144 21.0418 310.349 21.346 310.55 21.653C310.749 21.9602 310.946 22.2702 311.14 22.5828C311.334 22.8952 311.524 23.2103 311.71 23.5281C311.899 23.8459 312.083 24.1661 312.262 24.4888C312.441 24.8115 312.617 25.1366 312.788 25.4642C312.96 25.7915 313.128 26.1213 313.292 26.4534C313.456 26.7856 313.618 27.1198 313.777 27.4561C313.933 27.7926 314.085 28.1312 314.232 28.4718C314.381 28.8127 314.527 29.1553 314.668 29.4997C314.81 29.8444 314.948 30.191 315.082 30.5394C315.214 30.8876 315.342 31.2377 315.467 31.5897C315.593 31.9415 315.715 32.295 315.832 32.6502C315.949 33.0055 316.062 33.3622 316.172 33.7205C316.281 34.0787 316.386 34.4383 316.485 34.7992C316.587 35.1605 316.684 35.5229 316.776 35.8866C316.868 36.2505 316.956 36.6156 317.041 36.9817C317.507 38.9443 318.578 42.8084 317.604 44.6187C316.683 45.3055 307.297 44.8581 305.425 44.8418C305.466 44.7421 305.514 44.6448 305.552 44.5426C306.313 42.4213 303.802 36.1577 302.903 34.2012C298.815 25.3115 291.533 19.3489 283 16.2708L283.003 3Z" fill="#6E41A3"/>
<path d="M59.6511 180C60.6389 180.502 61.7306 180.816 62.7711 181.18L62.7655 204.889C60.6714 203.215 58.3746 201.859 55.8144 201.157C50.7741 199.775 45.4638 200.955 41.0606 203.756C36.7388 206.505 33.4086 210.999 32.2067 216.178C30.9377 221.645 31.4109 227.842 34.2746 232.682C34.4447 232.974 34.6216 233.262 34.8053 233.545C34.9888 233.829 35.1791 234.107 35.376 234.38C35.5729 234.654 35.7762 234.922 35.9859 235.184C36.1955 235.447 36.4114 235.704 36.6335 235.955C36.8553 236.207 37.083 236.452 37.3165 236.691C37.5501 236.931 37.7891 237.164 38.0336 237.391C38.2783 237.618 38.5283 237.839 38.7835 238.052C39.0385 238.266 39.2984 238.473 39.5633 238.674C39.8282 238.874 40.0979 239.067 40.3723 239.253C40.6464 239.439 40.9247 239.618 41.2073 239.79C41.4899 239.962 41.7764 240.126 42.0667 240.282C42.3572 240.439 42.6513 240.588 42.9488 240.729C43.2463 240.87 43.547 241.003 43.8507 241.129C44.1548 241.254 44.4615 241.371 44.771 241.481C45.0802 241.59 45.3921 241.692 45.7065 241.785C46.0207 241.878 46.3369 241.963 46.6551 242.039C52.5462 243.433 57.9791 241.981 63 238.669L62.9604 252.606C60.9795 253.332 58.9169 253.901 56.9042 254.528C56.5341 256.847 56.7802 260.288 55.6568 262.33C55.2072 263.147 54.5271 263.607 53.6625 263.829C52.0204 264.248 48.7167 263.879 47.2833 262.918C46.1263 262.142 45.7166 255.495 45.4216 253.907C43.7835 253.18 40.7924 251.381 39.039 251.776C37.0443 254.018 35.0376 256.329 32.7654 258.265C30.9373 257.472 28.0086 256.262 27.2254 254.202C26.2671 251.681 29.4412 247.301 30.4559 244.989C28.1751 242.385 26.0598 239.757 24.0771 236.894C21.6013 236.795 19.0535 237.313 16.5771 237.49C16.1913 236.882 15.826 236.264 15.5187 235.608C14.712 233.886 13.5079 231.095 14.213 229.22C15.1717 226.67 19.5312 226.119 21.7078 225.169C21.6981 221.621 21.8867 218.135 22.15 214.598C19.5701 213.113 16.7634 212.105 14.6952 209.826C14.3561 208.933 14.4468 208.18 14.6675 207.26C15.1187 205.382 16.0382 202.856 17.6893 201.822C20.2692 201.264 23.6207 202.861 26.1188 203.644C28.611 200.022 31.3963 197.235 34.6201 194.358C33.8575 192.737 32.9451 191.174 32.2721 189.508C31.8628 188.495 31.4841 187.267 31.9588 186.207C32.8898 184.128 36.9961 182.664 38.9688 181.891C40.9011 184.11 42.5085 186.686 44.1674 189.134C48.0314 188.947 51.7407 188.545 55.6326 188.628C56.8721 185.511 57.0645 182.326 59.6511 180Z" fill="#56A0F7"/>
<path d="M75.8843 299C74.7001 298.132 73.5405 297.141 72.5435 296.042C70.3071 293.578 68.789 290.831 68.4293 287.415C67.7045 280.527 68.3083 272.478 68.3337 265.431L68.376 220.786L68.1962 130.955C68.1601 113.738 67.7677 96.4332 68.2054 79.2259C68.3414 73.8812 71.0974 68.3199 74.7846 64.7169C80.1757 59.4484 85.9956 58.7612 93 59.0582C92.9588 59.0961 92.9184 59.1351 92.8761 59.1718C91.3072 60.5392 88.9208 61.2263 87.1735 62.4357C82.6684 65.5539 77.7709 73.4455 77.1383 79.1892C76.4867 85.1051 76.8743 91.391 76.8761 97.3463L76.836 131.164C76.7367 180.462 76.8735 229.757 77.2465 279.05C75.9472 280.41 74.8615 282.186 74.1808 283.972C72.1169 289.388 73.8678 293.959 75.8843 299Z" fill="#F1EACD"/>
<path d="M94.3642 59.0448L95 59C91.3949 63.1856 88.6491 68.3335 87.8213 73.7831C87.0648 78.7673 87.6011 84.384 87.6121 89.4416L87.6204 120.678L87.646 220.529C87.6908 232.783 87.6732 245.037 87.5933 257.292C87.5402 262.938 87.7018 268.689 87.329 274.321C83.5179 275.071 80.3521 276.311 77.5201 279C77.1211 229.714 76.9748 180.427 77.0813 131.138L77.1241 97.3265C77.1222 91.3722 76.7077 85.0873 77.4045 79.1724C78.0808 73.4297 83.3174 65.5394 88.1343 62.4217C90.0025 61.2125 92.5542 60.5255 94.2316 59.1583C94.2769 59.1217 94.3201 59.0826 94.3642 59.0448Z" fill="#F0D5A5"/>
<path d="M271.638 19.1306C271.704 19.1224 271.771 19.1123 271.838 19.1064C272.288 19.067 272.738 19.0386 273.189 19.0212C273.641 19.0035 274.092 18.9969 274.544 19.0013C274.996 19.0057 275.447 19.0212 275.898 19.0477C276.349 19.0739 276.799 19.1111 277.248 19.1594C277.697 19.2077 278.145 19.2667 278.591 19.3366C279.037 19.4066 279.482 19.4875 279.924 19.5791C280.367 19.6707 280.807 19.773 281.244 19.8859C281.682 19.9988 282.117 20.1224 282.549 20.2566C282.981 20.3908 283.409 20.5353 283.834 20.6903C284.259 20.845 284.68 21.0101 285.096 21.1856C285.513 21.361 285.927 21.5465 286.336 21.7419C286.743 21.9374 287.147 22.1427 287.546 22.3579C287.945 22.5731 288.338 22.7977 288.725 23.0318C289.114 23.266 289.497 23.5094 289.873 23.7622C290.249 24.0151 290.621 24.2768 290.987 24.5476C291.35 24.8185 291.707 25.0981 292.058 25.3862C292.247 25.5396 292.434 25.6954 292.619 25.8534C292.806 26.0112 292.99 26.1715 293.172 26.3343C293.353 26.497 293.533 26.662 293.709 26.8291C293.886 26.9965 294.061 27.166 294.235 27.3376C294.409 27.5092 294.581 27.683 294.75 27.859C294.919 28.0349 295.085 28.2131 295.249 28.3935C295.416 28.5737 295.578 28.7559 295.737 28.9402C295.898 29.1245 296.057 29.3108 296.213 29.4993C296.367 29.6875 296.519 29.8777 296.67 30.07C296.821 30.2621 296.971 30.4561 297.119 30.6521C297.265 30.8481 297.408 31.0459 297.549 31.2455C297.69 31.4448 297.828 31.6461 297.964 31.8494C298.102 32.0523 298.237 32.2571 298.367 32.4637C298.498 32.6701 298.627 32.8781 298.755 33.0879C298.88 33.2976 299.003 33.5089 299.124 33.7217C299.244 33.9346 299.363 34.149 299.481 34.3649C299.596 34.5806 299.709 34.7979 299.819 35.0167C299.929 35.2352 300.036 35.4552 300.141 35.6766C300.246 35.898 300.349 36.1207 300.448 36.3448C300.548 36.5688 300.646 36.7941 300.74 37.0207C300.835 37.247 300.926 37.4746 301.013 37.7036C301.103 37.9322 301.188 38.1621 301.27 38.3931C301.352 38.6239 301.433 38.8558 301.512 39.0889C301.589 39.3217 301.663 39.5556 301.735 39.7905C301.804 40.0254 301.872 40.2611 301.938 40.4975C302.005 40.734 302.068 40.9714 302.127 41.2096C302.185 41.4477 302.242 41.6865 302.296 41.926C302.352 42.1656 302.403 42.4058 302.449 42.6467C302.498 42.8876 302.543 43.1291 302.584 43.3713C302.627 43.6132 302.667 43.8556 302.703 44.0986C302.738 44.3415 302.772 44.585 302.802 44.829C302.833 45.0727 302.86 45.3168 302.883 45.5614C303.593 53.0789 301.028 60.8175 296.255 66.5962C291.831 71.954 285.111 75.3074 278.286 75.9105C269.777 76.6721 258.498 72.5287 253.471 65.1548C251.038 61.5857 253.047 61.0157 248.295 57.2137C247.952 55.9534 247.708 54.6608 247.489 53.3724C246.125 45.3601 247.582 37.3648 252.276 30.6938C256.988 23.9978 263.796 20.4945 271.638 19.1306Z" fill="#56A0F7"/>
<path d="M272.449 31C277.525 31.5033 281.948 34.2458 285.144 38.2958C287.367 41.1184 289.372 45.3241 288.941 49.0605C288.778 50.4651 288.414 51.0926 287.334 51.9621C286.684 52.0077 285.871 52.0671 285.27 51.7738C283.02 50.6744 282.983 44.782 281.493 42.4521C278.519 37.8021 275.312 38.3154 271.978 35.5078C271.468 35.0784 271.026 34.536 271.001 33.826C270.962 32.6944 271.776 31.7912 272.449 31Z" fill="#FCFDFC"/>
<path d="M272.583 24.0524C273.241 24.0076 273.901 23.9916 274.561 24.0042C275.22 24.0165 275.879 24.0575 276.535 24.1272C277.192 24.1968 277.844 24.2949 278.492 24.4214C279.141 24.5477 279.783 24.7019 280.419 24.8842C286.652 26.7384 291.474 31.1842 294.511 37.0082C297.534 42.7945 297.628 49.4041 295.735 55.5864C295.341 56.8807 294.913 58.1707 293.681 58.8394C292.934 58.9023 292.379 58.6701 291.796 58.1726C291.372 57.8101 291.297 57.4175 291.286 56.8784C291.199 53.3956 292.57 50.0497 292.273 46.4339C291.789 40.459 289.01 35.1829 284.549 31.3477C280.87 28.185 275.911 25.8036 271.014 26.2891C266.952 26.6917 263.232 29.1425 260.694 32.3523C257.046 36.965 255.707 42.7532 256.251 48.5838C256.397 49.3594 256.564 50.1241 256.812 50.8734C256.925 51.2131 257.046 51.5497 257.175 51.8834C257.305 52.2169 257.442 52.547 257.587 52.8738C257.732 53.2003 257.885 53.523 258.046 53.8418C258.206 54.1606 258.375 54.4751 258.551 54.7855C258.726 55.0958 258.909 55.4015 259.1 55.7025C259.29 56.0036 259.488 56.2996 259.692 56.5907C259.897 56.8817 260.109 57.1673 260.327 57.4476C260.546 57.7278 260.771 58.0024 261.002 58.2713C261.234 58.5403 261.472 58.8031 261.716 59.06C261.96 59.3168 262.21 59.5672 262.467 59.8112C262.723 60.0555 262.985 60.293 263.253 60.5239C263.52 60.7548 263.793 60.9787 264.071 61.1957C264.35 61.4127 264.634 61.6225 264.922 61.8251C265.211 62.0277 265.504 62.2228 265.802 62.4105C266.1 62.5982 266.402 62.7783 266.708 62.9508C267.015 63.1233 267.325 63.2878 267.64 63.4444C274.324 66.8138 282.23 66.5369 289.123 64.0649C286.142 67.0097 282.287 69.2284 278.159 69.8284C272.546 70.6441 265.902 68.4748 261.455 64.9469C261.171 64.7165 260.892 64.4792 260.618 64.235C260.345 63.9908 260.078 63.7397 259.816 63.4818C259.555 63.224 259.3 62.9597 259.051 62.6889C258.803 62.4182 258.561 62.1413 258.325 61.8582C258.09 61.5754 257.862 61.2867 257.64 60.9921C257.418 60.6977 257.204 60.3978 256.996 60.0924C256.789 59.7872 256.589 59.4769 256.397 59.1614C256.205 58.8459 256.02 58.5259 255.843 58.2011C255.666 57.8764 255.496 57.5475 255.335 57.2143C255.174 56.8811 255.02 56.544 254.875 56.2031C254.73 55.8619 254.593 55.5174 254.464 55.1696C254.335 54.8217 254.215 54.4708 254.103 54.1167C253.991 53.7627 253.887 53.4061 253.792 53.0469C253.697 52.6875 253.611 52.326 253.534 51.9625C253.456 51.599 253.387 51.2336 253.327 50.8665C253.267 50.4996 253.215 50.1313 253.173 49.7616C252.467 43.803 253.923 37.7182 257.543 32.982C261.301 28.0677 266.538 24.814 272.583 24.0524Z" fill="#FCFDFC"/>
<path d="M254 121.143L293.477 121.206C299.568 121.216 305.941 120.748 311.998 121.191C313.388 121.293 314.561 121.587 315.786 122.297C317.701 123.41 318.981 125.044 319.54 127.234C320.142 129.576 320.073 156.357 319.788 159.499C319.746 159.967 319.613 160.25 319.388 160.65C318.135 161.236 261.148 160.907 254.025 160.918L254 121.143Z" fill="#FBC06E"/>
<path d="M94.1779 59.0401L101.882 59C101.569 79.3938 102.536 271.932 101.526 273.914C96.6836 273.9 91.8417 273.929 87 274C87.3488 268.378 87.1976 262.636 87.2473 256.999C87.3221 244.765 87.3385 232.531 87.2966 220.298L87.2726 120.615L87.2649 89.4306C87.2546 84.3815 86.7527 78.7742 87.4607 73.7983C88.2352 68.3579 90.8045 63.2186 94.1779 59.0401Z" fill="#F5B955"/>
<path d="M88.083 278.146C93.9152 277.845 99.8831 278.104 105.733 278.101L140.711 278.095L247.783 278.102C245.069 285.342 245.614 292.485 248 299.706L239.584 299.724L137.176 299.896L104.953 299.806C99.6416 299.807 94.1292 300.211 88.8443 299.849C86.7085 299.704 84.7206 299.148 82.9284 297.984C80.4028 296.344 78.7711 293.776 78.1983 290.89C77.6339 288.046 78.2881 285.24 79.9874 282.868C81.9769 280.091 84.7428 278.752 88.083 278.146Z" fill="#F1EACD"/>
<path d="M254 165.065L307.678 165.103L320.397 165.09C323.162 165.072 326.189 164.803 328.916 165.293C331.524 165.764 333.695 167.119 335.18 169.351C336.167 170.833 336.49 172.637 336.681 174.383C337.248 179.62 336.833 185.344 336.837 190.633C336.837 195.498 337.37 205.043 336.509 209.332C336.201 210.867 335.245 212.541 333.927 213.393C333.836 213.628 333.76 213.822 333.585 214.008C332.713 214.925 331.204 215.523 329.978 215.679C326.76 216.089 323.432 215.93 320.191 215.924L305.233 215.904L254.118 216C254.121 199.029 254.28 182.033 254 165.065Z" fill="#78BC6A"/>
<path d="M286.555 179C286.714 179.028 286.876 179.056 287.035 179.093C289.479 179.664 298.437 184.616 299.594 186.746C299.919 187.343 300.127 188.103 299.912 188.775C299.246 190.839 295.327 192.42 293.56 193.378C291.991 194.325 290.436 195.409 288.828 196.277C287.951 196.751 286.736 197.246 285.757 196.864C285.208 196.651 284.841 196.189 284.603 195.655C283.775 193.794 283.841 182.419 284.55 180.593C284.905 179.675 285.734 179.371 286.555 179Z" fill="#FCFDFC"/>
<path d="M105.942 59.456C112.588 58.8112 119.714 59.2606 126.405 59.2572L165.749 59.256L220.018 59.2657C226.84 59.2834 233.868 58.7861 240.659 59.1097C242.304 59.188 243.757 59.7815 245.035 60.8164C246.912 62.3359 248.277 64.6129 248.5 67.0336C249.202 74.6433 248.783 83.3504 248.808 91.0628L248.823 138.794L249 274.589L155.531 274.654L131.788 274.65C128.183 274.656 124.248 274.974 120.668 274.605C114.841 274.864 107.754 275.297 102 274.697C103.056 272.712 102.045 79.8759 102.373 59.4506C103.559 59.4506 104.757 59.4159 105.942 59.456Z" fill="#6E41A3"/>
<path d="M132.428 215.159C136.652 214.858 141.061 215.075 145.308 215.084L167.687 215.164C169.207 215.183 171.439 215.079 172.531 216.18C172.924 216.576 173.038 217.035 172.99 217.552C172.894 218.576 172.3 219.121 171.447 219.753C167.032 220.205 162.268 219.9 157.819 219.896C150.332 219.89 142.823 219.979 135.338 219.843C134.101 219.82 132.349 219.859 131.468 218.956C131.064 218.541 130.971 218.049 131.007 217.517C131.081 216.44 131.569 215.882 132.428 215.159Z" fill="#FCFDFC"/>
<path d="M132.273 199.156C151.734 198.816 171.232 199.134 190.696 199.157H211.933C215.808 199.157 219.772 198.951 223.631 199.294C224.394 199.362 224.938 199.5 225.481 200.145C225.898 200.641 226.029 201.234 225.995 201.901C225.928 203.207 225.411 203.94 224.593 204.822C220.343 205.151 215.934 204.911 211.664 204.918L186.397 204.955L152.446 204.955C146.571 204.943 140.629 205.119 134.762 204.847C133.801 204.803 132.499 204.91 131.721 204.188C131.253 203.753 131.039 203.171 131.008 202.504C130.937 200.991 131.353 200.218 132.273 199.156Z" fill="#FCFDFC"/>
<path d="M132.204 169.241C142.057 168.718 152.197 169.207 162.074 169.214L221.028 169.149C222.371 169.144 224.635 169.361 225.551 170.556C225.855 170.952 226.016 171.391 225.999 171.896C225.956 173.141 225.225 173.901 224.416 174.692C224.364 174.703 224.312 174.715 224.259 174.724C221.115 175.235 217.56 174.88 214.36 174.881L194.187 174.872L155.301 174.849C148.602 174.843 141.842 175.051 135.153 174.784C134.085 174.741 132.671 174.851 131.798 174.078C131.25 173.593 131.014 172.963 131.001 172.209C130.977 170.929 131.439 170.171 132.204 169.241Z" fill="#FCFDFC"/>
<path d="M133.364 184.089L204.446 184.172C208.684 184.204 220.244 183.617 223.623 184.446C224.665 184.702 225.428 185.055 225.961 185.927C226.037 186.476 226.019 186.76 225.748 187.267C225.199 188.296 224.775 188.507 223.65 188.879C216.976 188.955 134.087 189.28 132.222 188.394C131.619 188.108 131.232 187.611 131.073 187.015C130.889 186.325 131.056 185.433 131.538 184.864C132.046 184.266 132.604 184.24 133.364 184.089Z" fill="#FCFDFC"/>
<path d="M107.296 59C109.449 59.257 111.643 59.142 113.804 59.1231L114 273.936L107.1 274C106.826 247.992 107.196 221.945 107.246 195.934L107.296 59Z" fill="#6E41A3"/>
<path d="M178.419 91.1415C179.859 91.0715 181.719 90.7946 182.915 91.7896C184.512 93.1189 184.4 96.6927 184.604 98.6247L188.846 99.7971C189.977 98.9516 191.238 97.8487 192.531 97.291C193.207 96.9997 193.914 96.9023 194.59 97.2093C197.164 98.3775 202.939 104.147 204.046 106.767C204.167 108.399 202.102 110.608 201.173 111.897C201.316 112.444 201.449 113.16 201.752 113.64C202.508 114.838 205.551 114.745 206.861 115.086C207.459 115.241 208 115.537 208.316 116.081C209.07 117.384 209.203 126.039 208.702 127.558C207.792 130.318 204.455 129.022 202.433 130.196C201.372 130.811 201.162 132.597 200.857 133.701C201.769 134.846 203.417 136.5 203.873 137.866C203.983 138.194 203.978 138.515 203.832 138.827C202.916 140.796 196.134 148.352 194.107 148.753C192.066 149.156 189.152 146.582 187.559 145.467C180.893 146.939 185.3 151.258 182.2 153.907C180.473 155.383 177.8 154.961 175.7 154.89C173.17 154.9 169.736 155.266 167.49 153.918C165.355 152.635 166.356 150.216 165.859 148.202C165.394 146.311 164.357 145.554 162.771 144.657C160.78 145.567 157.359 147.809 155.119 147.326C152.899 146.846 149.602 141.33 148.354 139.457C147.315 137.898 144.563 133.915 145.059 132.065C145.585 130.107 148.655 128.731 150.293 127.757C150.431 124.748 150.466 121.726 150.551 118.713C148.744 117.436 146.186 116.414 145.116 114.393C144.943 113.339 145.255 112.328 145.636 111.349C146.834 108.264 151.682 100.049 154.6 98.7373C157.051 98.4647 159.729 100.417 161.847 101.523C163.047 100.708 164.234 100.024 165.537 99.3892C165.953 97.3067 166.175 93.6359 167.657 92.0665C169.208 90.425 176.129 91.1771 178.419 91.1415Z" fill="#0A4A7B"/>
<path d="M173.315 95.2189C175.485 95.0602 177.69 95.0618 179.866 95L180.573 101.508C183.195 102.213 185.373 102.93 187.655 104.46C189.352 103.09 191.001 101.784 192.897 100.685C194.806 103.182 197.109 105.381 199.316 107.619C198.335 109.159 196.985 110.529 195.786 111.908C196.574 113.629 197.217 115.374 197.845 117.155C199.922 117.51 201.967 117.864 204 118.424L203.895 125.91C201.906 126.238 199.999 126.671 198.053 127.188C197.347 129.304 196.551 131.379 195.747 133.459L199.106 137.342C197.106 139.864 194.642 142.186 192.439 144.544C190.553 143.399 188.853 141.986 187.124 140.624C184.8 141.884 182.481 142.705 179.92 143.369C179.564 145.653 179.21 147.914 178.651 150.161C178.608 150.382 178.431 150.602 178.314 150.796C175.521 151.308 171.877 150.699 168.976 150.657C168.61 148.269 168.261 145.912 168.125 143.498C165.72 142.461 163.495 141.378 161.428 139.764C159.543 141.104 157.699 142.347 155.695 143.508C152.829 140.358 150.497 136.376 148.497 132.643C150.397 131.479 152.285 130.294 154.159 129.089C153.472 125.001 153.278 121.614 153.993 117.518C152.05 116.052 150.031 114.712 148 113.368C150.351 109.84 152.27 105.98 154.763 102.563C154.834 102.593 154.903 102.624 154.974 102.653C157.201 103.571 159.198 104.85 161.246 106.098C163.296 103.955 165.475 103.044 168.165 101.927C168.468 99.7308 168.7 97.5276 168.859 95.317C170.344 95.3139 171.831 95.2564 173.315 95.2189Z" fill="white"/>
<path d="M172.06 109.128C175.489 108.858 178.441 108.888 181.571 110.507C181.773 110.613 181.973 110.723 182.17 110.837C182.367 110.952 182.561 111.072 182.751 111.196C182.942 111.32 183.13 111.449 183.314 111.582C183.499 111.715 183.68 111.852 183.857 111.994C184.035 112.136 184.209 112.282 184.379 112.432C184.549 112.582 184.715 112.736 184.877 112.894C185.04 113.053 185.198 113.214 185.353 113.38C185.507 113.546 185.657 113.715 185.803 113.888C185.948 114.061 186.09 114.237 186.227 114.417C186.363 114.597 186.496 114.78 186.623 114.965C186.751 115.152 186.874 115.341 186.992 115.533C187.11 115.725 187.224 115.919 187.332 116.117C187.44 116.314 187.544 116.514 187.642 116.716C187.74 116.918 187.834 117.123 187.922 117.33C188.01 117.537 188.092 117.745 188.17 117.956C188.247 118.167 188.32 118.38 188.387 118.594C189.451 121.98 189.137 125.77 187.393 128.889C185.322 132.594 182.009 134.664 177.952 135.804C174.744 136.236 171.689 136.006 168.746 134.596C168.542 134.5 168.34 134.399 168.14 134.293C167.941 134.188 167.745 134.077 167.551 133.962C167.357 133.847 167.166 133.727 166.979 133.602C166.791 133.478 166.607 133.349 166.426 133.215C166.245 133.082 166.067 132.944 165.893 132.802C165.719 132.66 165.549 132.514 165.383 132.363C165.216 132.213 165.053 132.058 164.894 131.9C164.736 131.742 164.581 131.58 164.431 131.414C164.28 131.248 164.134 131.079 163.992 130.906C163.85 130.733 163.713 130.557 163.58 130.377C163.447 130.198 163.319 130.015 163.195 129.829C163.072 129.643 162.953 129.455 162.839 129.263C162.725 129.071 162.616 128.877 162.512 128.68C162.408 128.483 162.309 128.284 162.215 128.082C162.121 127.881 162.032 127.677 161.949 127.471C161.865 127.265 161.787 127.057 161.714 126.847C161.641 126.634 161.574 126.419 161.512 126.203C161.45 125.986 161.394 125.769 161.343 125.549C161.293 125.33 161.248 125.11 161.208 124.888C161.168 124.667 161.135 124.445 161.106 124.222C161.078 123.999 161.055 123.776 161.038 123.552C161.021 123.327 161.01 123.103 161.004 122.879C160.999 122.654 160.999 122.429 161.004 122.204C161.01 121.98 161.021 121.755 161.039 121.531C161.056 121.307 161.078 121.084 161.107 120.861C161.135 120.638 161.169 120.416 161.209 120.194C161.248 119.973 161.293 119.753 161.344 119.534C161.395 119.314 161.452 119.097 161.513 118.88C161.575 118.664 161.642 118.449 161.715 118.236C161.788 118.023 161.866 117.811 161.949 117.602C162.032 117.392 162.121 117.185 162.215 116.98C162.309 116.775 162.408 116.572 162.512 116.372C164.567 112.438 167.882 110.456 172.06 109.128Z" fill="#0A4A7B"/>
<path d="M173.387 112.131C175.771 111.87 177.922 111.923 180.122 113.003C180.278 113.081 180.432 113.164 180.584 113.25C180.737 113.336 180.887 113.426 181.035 113.519C181.183 113.613 181.328 113.71 181.472 113.811C181.615 113.912 181.756 114.016 181.894 114.124C182.032 114.232 182.168 114.344 182.301 114.458C182.433 114.573 182.563 114.691 182.69 114.812C182.818 114.933 182.942 115.057 183.063 115.184C183.184 115.312 183.302 115.442 183.417 115.575C183.532 115.709 183.643 115.845 183.752 115.983C183.86 116.122 183.965 116.264 184.066 116.408C184.167 116.552 184.265 116.698 184.36 116.847C184.454 116.996 184.545 117.147 184.632 117.301C184.719 117.454 184.802 117.61 184.882 117.767C184.961 117.925 185.037 118.084 185.109 118.246C185.181 118.407 185.249 118.57 185.313 118.735C185.377 118.899 185.436 119.066 185.492 119.233C186.374 121.885 186.081 124.768 184.814 127.239C183.318 130.153 180.97 131.728 177.967 132.702C175.501 133.251 172.979 133.069 170.691 131.931C170.541 131.856 170.393 131.779 170.246 131.697C170.1 131.615 169.956 131.53 169.814 131.441C169.672 131.352 169.532 131.26 169.394 131.164C169.257 131.068 169.121 130.969 168.989 130.866C168.856 130.763 168.726 130.657 168.598 130.548C168.47 130.439 168.345 130.326 168.223 130.211C168.101 130.095 167.982 129.976 167.866 129.855C167.75 129.733 167.636 129.609 167.526 129.481C167.416 129.354 167.309 129.224 167.205 129.091C167.101 128.959 167 128.823 166.903 128.685C166.806 128.548 166.712 128.407 166.621 128.265C166.531 128.122 166.444 127.978 166.36 127.831C166.277 127.684 166.197 127.535 166.121 127.384C166.045 127.233 165.972 127.08 165.904 126.926C165.835 126.771 165.77 126.615 165.709 126.457C165.648 126.299 165.591 126.14 165.538 125.979C165.484 125.813 165.433 125.646 165.387 125.477C165.341 125.308 165.299 125.138 165.261 124.968C165.223 124.797 165.189 124.625 165.159 124.453C165.13 124.28 165.104 124.107 165.082 123.933C165.061 123.76 165.044 123.585 165.031 123.411C165.018 123.236 165.009 123.061 165.004 122.886C164.999 122.711 164.999 122.536 165.002 122.361C165.006 122.186 165.014 122.011 165.026 121.837C165.038 121.662 165.055 121.488 165.075 121.314C165.095 121.14 165.12 120.967 165.149 120.794C165.178 120.621 165.21 120.45 165.247 120.279C165.284 120.107 165.325 119.937 165.371 119.769C165.416 119.6 165.465 119.432 165.518 119.265C165.571 119.099 165.628 118.933 165.689 118.77C165.75 118.606 165.815 118.444 165.884 118.284C165.953 118.123 166.026 117.964 166.102 117.807C167.644 114.677 170.23 113.19 173.387 112.131Z" fill="#FCFDFC"/>
</svg>
