<svg width="350" height="197" viewBox="0 0 350 197" fill="none" xmlns="http://www.w3.org/2000/svg">
<g clip-path="url(#clip0_320_2347)">
<path d="M0.000244141 0H349.7C350.112 0.645979 349.998 1.5819 350 2.32452V142.813L350.002 181.6L350 191.886C349.998 193.299 350.188 195.03 349.952 196.404C349.915 196.619 349.817 196.817 349.7 197H0.000244141V0Z" fill="#F8E7D2"/>
<path d="M112.835 37.0439C113.441 37.314 114.253 37.9921 114.515 38.6108C114.724 39.1057 114.72 39.6397 114.493 40.127C114.202 40.7517 113.542 41.2382 112.894 41.4504C112.087 41.7151 111.028 41.5608 110.195 41.5045C110.897 41.2113 111.559 41.5201 112.268 41.1534C112.731 40.5276 113.71 39.5122 113.681 38.7059C113.666 38.2994 113.245 37.6943 112.944 37.4323C112.832 37.3346 112.855 37.1891 112.835 37.0439Z" fill="#317AEC"/>
<path d="M105.448 49.0826C105.692 49.0622 105.937 49.0326 106.152 48.9047C107.517 48.0918 107.811 45.1184 108.088 43.6876L108.21 43.926C108.511 44.9922 109.358 47.046 108.804 48.0884C108.431 48.791 107.684 49.2117 106.934 49.4006C106.419 49.5301 106.048 49.4689 105.6 49.1859C105.549 49.1527 105.498 49.1183 105.448 49.0826Z" fill="#317AEC"/>
<path d="M103.394 63.6834C105.139 61.9765 106.859 60.2442 108.553 58.4863C108.503 60.2106 108.487 61.9352 108.505 63.6601C106.922 63.8854 104.993 63.7703 103.394 63.6834Z" fill="#76D5F6"/>
<path d="M108.553 58.4863C110.282 60.2103 111.96 61.9598 113.761 63.6112C112.023 63.6896 110.285 63.7416 108.546 63.7674L108.505 63.6601C108.487 61.9352 108.503 60.2106 108.553 58.4863Z" fill="#56A0F7"/>
<path d="M103.394 63.6833C104.993 63.7703 106.922 63.8853 108.505 63.66L108.546 63.7674C108.542 65.5058 108.445 67.2951 108.55 69.0273C107.402 67.7816 103.977 64.9349 103.394 63.6833Z" fill="#62BFEE"/>
<path d="M108.546 63.7674C110.285 63.7416 112.023 63.6896 113.761 63.6112C113.541 64.3373 109.365 68.5122 108.646 69.0147L108.55 69.0274C108.445 67.2951 108.542 65.5058 108.546 63.7674Z" fill="#317AEC"/>
<path d="M249.5 32.8257C249.66 32.617 249.669 32.6041 249.677 32.3425C250.713 31.5127 251.679 30.774 252.546 29.757C253.388 28.7699 254.804 26.2293 255.688 25.6447L255.719 26.02C256.063 26.6658 256.713 27.5744 256.662 28.3099C256.673 28.8192 256.46 29.5864 256.083 29.9523C255.385 30.6312 254.021 30.3965 253.15 30.3311C253.117 31.1087 253.108 32.2692 252.558 32.8567C251.779 33.2711 251.162 33.5845 250.262 33.4158C249.998 33.2268 249.738 33.0433 249.5 32.8257Z" fill="#F69820"/>
<path d="M29.998 155.847C31.7444 154.077 33.8127 152.647 35.3544 150.666C35.4367 154.157 35.3142 157.647 35.3959 161.136C33.8171 159.25 31.7559 157.584 29.998 155.847Z" fill="#D37CE0"/>
<path d="M301.608 93.3572C302.5 93.7397 306.427 97.4092 306.677 98.2012C306.696 98.2576 306.702 98.3169 306.713 98.3748C306.454 99.2697 302.7 102.657 301.862 103.357L301.269 103.426C301.279 103.399 301.287 103.372 301.296 103.346C302.302 100.344 301.037 96.2838 301.608 93.3572Z" fill="#62BFEE"/>
<path d="M296.083 98.2632C298.11 97.015 299.45 94.6964 301.346 93.2495L301.608 93.3572C301.037 96.2838 302.302 100.344 301.296 103.346C301.287 103.372 301.279 103.399 301.269 103.426C300.417 102.163 297.354 99.2109 296.083 98.2632Z" fill="#76D5F6"/>
<path d="M35.3544 150.666C37.0373 151.364 39.4003 154.605 40.8869 155.951C39.8649 156.951 36.5149 160.826 35.3959 161.136C35.3142 157.647 35.4367 154.157 35.3544 150.666Z" fill="#A16AEE"/>
<path d="M99.0615 81.0503C100.206 80.9054 101.331 81.052 102.262 81.7759C102.317 81.8188 102.371 81.863 102.423 81.9085C102.476 81.954 102.527 82.0008 102.577 82.0489C102.627 82.0971 102.676 82.1466 102.723 82.1973C102.771 82.2479 102.817 82.2997 102.862 82.3527C102.906 82.4058 102.95 82.46 102.992 82.5153C103.035 82.5705 103.076 82.6268 103.115 82.6842C103.155 82.7415 103.193 82.7999 103.229 82.8592C103.265 82.9185 103.299 82.9786 103.333 83.0397C103.366 83.1009 103.398 83.1628 103.429 83.2255C103.458 83.2883 103.487 83.3517 103.513 83.4158C103.54 83.4799 103.565 83.5448 103.588 83.6103C103.613 83.6757 103.635 83.7417 103.654 83.8083C103.674 83.8748 103.693 83.9418 103.71 84.0093C103.726 84.0769 103.742 84.1448 103.756 84.213C103.769 84.2814 103.78 84.35 103.79 84.4189C103.799 84.4878 103.807 84.5568 103.813 84.6261C103.921 85.7207 103.64 86.8185 102.933 87.6705C102.19 88.5603 101.217 88.9541 100.092 89.0659C99.4865 89.1538 98.8058 88.9949 98.2481 88.7679C97.3269 88.3929 96.7096 87.7908 96.3308 86.8698C96.3038 86.8038 96.2782 86.7371 96.2538 86.6698C96.2308 86.6024 96.2083 86.5345 96.1865 86.466C96.166 86.3977 96.1474 86.3288 96.1308 86.2594C96.1128 86.1902 96.0974 86.1205 96.0846 86.0503C96.0705 85.9803 96.0583 85.9099 96.0481 85.8393C96.0365 85.7685 96.0276 85.6975 96.0212 85.6265C96.0147 85.5553 96.0096 85.4841 96.0058 85.4127C96.0019 85.3414 96 85.27 96 85.1984C96 85.127 96.0019 85.0556 96.0058 84.9843C96.0083 84.9129 96.0135 84.8416 96.0212 84.7706C96.0276 84.6994 96.0359 84.6285 96.0462 84.5578C96.0564 84.4871 96.0686 84.4167 96.0827 84.3466C96.0955 84.2764 96.1109 84.2066 96.1289 84.1372C96.1455 84.0679 96.1641 83.9989 96.1846 83.9304C96.2051 83.8621 96.2269 83.7942 96.25 83.7267C96.2744 83.6594 96.3 83.5926 96.3269 83.5264C96.8788 82.2057 97.7692 81.5676 99.0615 81.0503Z" fill="#62BFEE"/>
<path d="M279.352 163.646C282.319 163.948 299.296 170.42 302.069 172.14L302.113 172.34C296.927 172.725 291.742 172.833 286.544 172.943C282.963 173.019 279.331 173.169 275.754 173.027C276.056 172.656 276.321 172.261 276.583 171.861C277.844 169.926 279.846 166.008 279.352 163.646Z" fill="#6E41A3"/>
<path d="M279.323 154.268C280.45 154.245 281.619 153.873 282.648 153.432C284.688 155.031 288.262 156.859 289.823 158.722C292.904 160.786 300.829 168.823 302.456 171.981L302.415 172.204L302.113 172.34L302.069 172.14C299.296 170.42 282.319 163.948 279.352 163.646C279.369 163.605 279.388 163.564 279.404 163.523C279.773 162.556 279.771 155.208 279.323 154.268Z" fill="#6E41A3"/>
<path d="M247.046 14.9027C251.438 14.7575 249.933 16.3843 251.615 17.0489C252.138 16.9733 252.477 16.7147 252.896 16.4206C253.075 16.4768 253.242 16.5463 253.408 16.634C254.127 17.0122 255.094 17.706 255.329 18.5174C255.467 18.886 255.377 19.3135 255.323 19.6975C255.3 19.8752 255.267 20.0541 255.258 20.2336C255.223 20.9028 255.871 21.2702 256.277 21.7127C256.765 21.8223 257.098 21.9462 257.381 22.3845C257.644 22.7956 257.731 23.2585 257.61 23.7323C257.431 24.4299 257.115 24.8585 256.485 25.2167C256.288 25.3291 256.087 25.4357 255.873 25.5134L255.719 26.0199L255.688 25.6446C254.804 26.2293 253.388 28.7699 252.546 29.757C251.679 30.7739 250.713 31.5127 249.677 32.3424C249.669 32.6041 249.66 32.6169 249.5 32.8257C249.413 32.5708 249.229 32.3645 249.071 32.1479C248.052 31.9024 247.502 33.0558 246.685 33.5379C246.65 33.5583 246.615 33.5771 246.581 33.5967C245.906 33.2501 245.156 33.0669 244.431 32.8563C244.54 32.3753 244.565 31.6423 244.517 31.1502C244.385 29.7935 242.621 30.6194 241.796 30.2622C240.858 29.8557 240.612 28.5938 239.79 27.9451C239.821 27.9186 239.854 27.8928 239.885 27.8657C240.537 27.2966 241.006 26.5401 241.065 25.6696C240.683 25.1238 239.71 24.9226 239.506 24.3216C239.313 23.7519 239.321 22.6852 239.615 22.1552C239.983 21.4945 241.083 21.3614 241.748 21.1336C241.713 20.1675 241.535 19.3256 240.958 18.5323C241.827 18.0255 242.819 16.9144 243.44 16.1124C244.154 16.3203 245.008 16.7626 245.51 17.3179C245.671 17.2104 245.833 17.0975 245.973 16.9626C246.465 16.4922 247.01 15.5795 247.046 14.9027Z" fill="url(#paint0_linear_320_2347)"/>
<path d="M256.277 21.7127C256.765 21.8224 257.098 21.9463 257.381 22.3845C257.644 22.7956 257.731 23.2585 257.61 23.7323C257.431 24.4299 257.115 24.8586 256.485 25.2168C256.288 25.3291 256.087 25.4357 255.873 25.5134C256.05 24.4469 256.446 23.439 256.562 22.3532C256.381 22.6131 256.244 22.9241 255.942 23.0321C255.977 22.5301 256.088 22.1717 256.277 21.7127Z" fill="#F69820"/>
<path d="M247.358 20.948C248.406 20.8093 249.279 20.7304 250.192 21.3649C250.241 21.3981 250.289 21.4325 250.337 21.468C250.383 21.5036 250.428 21.5404 250.473 21.5782C250.518 21.6162 250.562 21.6552 250.606 21.6954C250.649 21.7355 250.692 21.7768 250.733 21.8191C250.774 21.8613 250.813 21.9046 250.852 21.9489C250.89 21.9932 250.928 22.0384 250.965 22.0846C251.001 22.1307 251.037 22.1778 251.071 22.2258C251.106 22.2737 251.138 22.3226 251.169 22.3722C251.201 22.4219 251.232 22.4724 251.262 22.5236C251.291 22.5748 251.319 22.6266 251.344 22.6792C251.371 22.7318 251.397 22.785 251.421 22.8389C251.444 22.8928 251.467 22.9472 251.488 23.0022C251.509 23.0571 251.528 23.1126 251.546 23.1686C251.565 23.2247 251.583 23.2811 251.598 23.3379C251.613 23.3948 251.628 23.452 251.64 23.5096C251.652 23.5671 251.663 23.625 251.673 23.6831C251.819 24.5278 251.669 25.4201 251.171 26.1265C250.621 26.9045 249.9 27.2806 248.981 27.4469C248.433 27.6006 247.865 27.5082 247.319 27.3793C246.604 27.2106 246.006 26.7812 245.64 26.1415C245.144 25.2737 245.069 24.2223 245.335 23.2689C245.656 22.1142 246.35 21.5184 247.358 20.948Z" fill="#76D5F6"/>
<path d="M278.231 97.6433C282.588 98.1318 287.371 102.172 290.008 105.467C291.675 107.55 295.373 113.995 295.098 116.58C295.079 116.777 295.002 116.945 294.912 117.119C293.244 117.965 289.833 118.539 287.829 119.195C285.556 119.94 281.348 121.897 279.442 122.262C279.765 121.089 279.662 109.532 279.542 107.953C279.313 104.945 278.181 101.016 275.815 98.9963C276.633 98.6835 277.615 98.2741 278.231 97.6433Z" fill="#FEFEFE"/>
<path d="M46.9732 115.803C47.0665 115.61 47.1609 115.417 47.2563 115.225C49.3126 111.083 52.3695 108.211 56.8019 106.736C63.2259 104.6 68.1361 106.14 73.9299 109.061C73.933 109.79 73.9816 110.514 74.0293 111.241C74.1195 115.586 73.9515 119.936 74.0422 124.283C65.817 119.321 56.3344 117.287 46.9732 115.803Z" fill="#FEFEFE"/>
<path d="M68.5907 153.799C70.3738 154.52 72.1611 155.094 74.019 155.589C74.024 156.412 73.9967 157.249 74.0453 158.07L74.033 163.253C74.0267 166.35 73.6905 169.897 74.2297 172.934C68.128 172.853 62.0211 172.899 55.9188 172.899C53.2517 172.9 50.319 173.169 47.6857 172.862L47.5596 172.648C49.2113 168.533 52.6786 164.635 55.9819 161.758C58.1255 159.905 60.5221 158.277 62.989 156.889C64.5636 156.003 67.3569 155.018 68.5907 153.799Z" fill="#6E41A3"/>
<path d="M47.5596 172.648C55.1675 167.669 65.0811 164.739 74.033 163.253C74.0267 166.35 73.6905 169.897 74.2297 172.934C68.128 172.853 62.0211 172.899 55.9188 172.899C53.2517 172.9 50.319 173.169 47.6857 172.862L47.5596 172.648Z" fill="#6E41A3"/>
<path d="M93.9264 19.6879C94.0547 19.0294 94.1764 18.2645 94.4491 17.6523C94.7472 16.9831 95.3168 16.3106 96.0301 16.0832C96.5618 15.9135 97.1243 15.9802 97.6091 16.2551C98.8785 16.9748 99.097 18.3409 99.4284 19.6311C100.628 20.0899 101.831 20.5422 103.035 20.988C103.62 20.4464 104.259 19.754 104.96 19.366C105.688 18.9635 106.726 18.6929 107.533 18.9716C107.98 19.1259 108.3 19.4391 108.477 19.8762C109.063 21.3221 108.246 22.8329 107.638 24.1136C108.517 24.9951 109.223 26.099 109.953 27.1071C110.677 27.0365 111.443 26.9274 112.17 26.9695C112.828 27.0076 113.666 27.3387 114.088 27.8578C114.369 28.2029 114.485 28.6787 114.425 29.1167C114.227 30.5723 112.871 31.3822 111.791 32.1681C111.88 33.0831 111.79 33.9863 111.83 34.9005C111.88 36.0052 112.04 36.3115 112.835 37.0439C112.855 37.1891 112.832 37.3346 112.944 37.4323C113.245 37.6943 113.666 38.2994 113.681 38.7059C113.71 39.5121 112.731 40.5275 112.268 41.1533C111.559 41.52 110.897 41.2113 110.195 41.5044C109.509 42.2963 108.845 43.0926 108.21 43.926L108.088 43.6876C107.811 45.1184 107.517 48.0918 106.152 48.9046C105.937 49.0326 105.692 49.0622 105.448 49.0826C104.609 48.7484 103.826 48.0976 103.083 47.5866C102.025 48.0693 100.979 48.4439 99.841 48.6913C99.6249 49.5699 99.4143 50.6095 99.0216 51.4264C98.6851 52.1265 98.0505 52.942 97.2759 53.1684C96.8384 53.2964 96.4203 53.2027 96.0489 52.9489C94.7057 52.0311 94.5164 50.173 94.2499 48.7113C92.9145 48.4004 91.6359 47.9389 90.3807 47.3933C90.0843 47.6313 89.7854 47.8663 89.4841 48.0982C88.5945 48.7811 87.4914 49.502 86.3057 49.2861C86.2502 49.2759 86.1953 49.2628 86.1411 49.2469C86.0868 49.2309 86.0336 49.2121 85.9814 49.1905C85.9293 49.1688 85.8784 49.1445 85.8287 49.1176C85.779 49.0907 85.7309 49.0612 85.6843 49.0293C85.6378 48.9972 85.593 48.9629 85.5501 48.9262C85.5071 48.8895 85.4662 48.8507 85.4272 48.8096C85.3884 48.7686 85.3518 48.7257 85.3174 48.6809C85.283 48.636 85.2511 48.5895 85.2216 48.5412C84.4091 47.2282 85.1722 45.3308 85.5459 43.997C84.8145 43.2238 84.2259 42.4373 83.6868 41.5206C82.923 41.4885 82.1507 41.4791 81.3889 41.4213C80.6149 41.3627 79.6576 41.0156 79.1659 40.3806C78.8738 40.0033 78.7695 39.5362 78.8611 39.0687C79.1428 37.6304 80.622 36.7759 81.7295 36.0154C81.7859 34.76 81.8707 33.5066 81.9838 32.2551C81.358 31.8397 80.6436 31.4222 80.1105 30.8926C79.5964 30.3816 79.1488 29.5827 79.1843 28.842C79.2076 28.3557 79.4201 27.9345 79.7953 27.6246C80.9103 26.7041 82.4749 27.0353 83.7745 27.22C84.4024 26.3241 85.0682 25.4795 85.7649 24.6369C85.4807 23.8529 85.1547 23.0457 84.977 22.2308C84.8072 21.4512 84.8249 20.4237 85.3124 19.7558C85.5945 19.3691 86.0191 19.1376 86.4914 19.0807C87.992 18.8998 89.2874 20.0457 90.4099 20.8687C91.5649 20.4291 92.7509 20.068 93.9264 19.6879Z" fill="url(#paint1_linear_320_2347)"/>
<path d="M96.168 25.5321C97.9276 25.3834 99.9043 25.9936 101.378 26.9378C101.501 27.0174 101.622 27.0998 101.741 27.1852C101.861 27.2708 101.977 27.3592 102.092 27.4503C102.207 27.5417 102.319 27.6357 102.429 27.7326C102.54 27.8294 102.647 27.9289 102.752 28.0312C102.858 28.1334 102.96 28.2382 103.06 28.3455C103.16 28.4527 103.258 28.5624 103.352 28.6745C103.446 28.7867 103.538 28.9011 103.627 29.0177C103.716 29.1344 103.802 29.2532 103.885 29.3742C103.968 29.4951 104.048 29.6181 104.125 29.743C104.202 29.8678 104.275 29.9945 104.346 30.1231C104.417 30.2516 104.484 30.3819 104.548 30.5139C104.612 30.6457 104.673 30.7791 104.731 30.914C104.788 31.0489 104.843 31.1852 104.893 31.3228C104.944 31.4604 104.991 31.5992 105.035 31.7391C105.079 31.8791 105.12 32.02 105.157 32.162C105.194 32.304 105.227 32.4468 105.257 32.5904C105.745 34.8979 105.343 37.3065 104.027 39.274C102.422 41.6715 100.218 42.7613 97.4714 43.2798C95.3164 43.3285 93.442 42.987 91.6364 41.7328C89.6272 40.3373 88.1318 38.1686 87.7376 35.7365C87.7159 35.5945 87.6978 35.4521 87.6832 35.3092C87.6685 35.1664 87.6575 35.0234 87.6499 34.88C87.6425 34.7365 87.6385 34.5929 87.638 34.4494C87.6376 34.3058 87.6407 34.1623 87.6474 34.0189C87.6541 33.8754 87.6642 33.7322 87.678 33.5893C87.6917 33.4464 87.7089 33.3039 87.7297 33.1618C87.7505 33.0197 87.7748 32.8782 87.8026 32.7372C87.8303 32.5964 87.8615 32.4563 87.8962 32.3171C87.9309 32.1776 87.9689 32.0392 88.0105 31.9017C88.052 31.7643 88.0969 31.628 88.1453 31.4927C88.1935 31.3575 88.2451 31.2236 88.3001 31.091C88.355 30.9583 88.4131 30.827 88.4745 30.6972C88.5358 30.5674 88.6003 30.4392 88.6682 30.3126C88.7359 30.186 88.8066 30.0612 88.8805 29.9381C88.9544 29.8149 89.0314 29.6937 89.1112 29.5744C89.1911 29.4552 89.2739 29.3379 89.3595 29.2228C91.0391 26.9742 93.4535 25.8999 96.168 25.5321Z" fill="#FEFEFE"/>
<path d="M294.912 117.119C297.1 116.91 299.321 116.233 301.504 115.887C304.985 115.336 316.244 114.283 319.26 115.417C319.694 115.416 319.838 115.344 320.177 115.632C320.613 117.728 315.865 126.119 314.588 128.072C310.687 134.035 305.573 138.996 300.012 143.394C298.602 144.509 297.115 145.788 295.469 146.536L295.862 146.821C295.633 148.783 291.735 157.289 290.288 158.471C290.198 158.544 290.087 158.592 289.985 158.642C289.931 158.668 289.877 158.695 289.823 158.722C288.262 156.859 284.688 155.031 282.648 153.432C281.619 153.873 280.45 154.245 279.323 154.268C279.369 154.186 279.381 154.17 279.421 154.073C279.785 153.221 279.808 138.945 279.39 137.831C279.756 136.833 279.704 123.532 279.442 122.262C281.348 121.897 285.556 119.94 287.829 119.195C289.833 118.539 293.244 117.965 294.912 117.119Z" fill="#6E41A3"/>
<path d="M295.469 146.536L295.862 146.821C295.633 148.783 291.735 157.289 290.288 158.471C290.198 158.544 290.087 158.592 289.985 158.642C289.931 158.668 289.877 158.695 289.823 158.722C288.262 156.859 284.688 155.031 282.648 153.432C285.677 152.632 293.021 148.652 295.469 146.536Z" fill="#FEFEFE"/>
<path d="M294.912 117.119C297.1 116.91 299.321 116.233 301.504 115.887C304.985 115.336 316.244 114.283 319.26 115.417C319.2 115.538 319.158 115.634 319.052 115.723C317.8 116.767 315.813 117.592 314.375 118.38L302.429 124.903L286.321 134.018C284.637 134.981 281.304 137.23 279.625 137.775C279.538 137.802 279.483 137.812 279.39 137.831C279.756 136.833 279.704 123.532 279.442 122.262C281.348 121.897 285.556 119.94 287.829 119.195C289.833 118.539 293.244 117.965 294.912 117.119Z" fill="#6E41A3"/>
<path d="M30.5238 116.041C35.9957 115.234 41.4796 115.363 46.9732 115.803C56.3344 117.287 65.8171 119.321 74.0423 124.283L74.0509 138.884C74.103 145.249 74.3809 151.719 74.0453 158.07C73.9967 157.249 74.024 156.412 74.019 155.589C72.1611 155.094 70.3738 154.52 68.5907 153.799C67.3569 155.018 64.5636 156.003 62.989 156.889C60.5221 158.277 58.1255 159.905 55.9819 161.758C53.2238 160.86 48.6679 156.168 46.9782 153.815C43.6569 149.188 41.208 142.017 42.1319 136.282C38.1463 131.997 34.4877 127.374 31.8713 122.104C31.3811 121.117 29.4182 117.453 29.884 116.372C29.9827 116.143 30.2961 116.117 30.5238 116.041Z" fill="#6E41A3"/>
<path d="M42.1319 136.282C50.0888 144.11 58.0486 149.874 68.5907 153.799C67.3569 155.018 64.5636 156.003 62.989 156.889C60.5221 158.277 58.1255 159.905 55.9819 161.758C53.2238 160.86 48.6678 156.168 46.9782 153.815C43.6569 149.188 41.208 142.017 42.1319 136.282Z" fill="#FEFEFE"/>
<path d="M30.5238 116.041C35.9957 115.234 41.4796 115.363 46.9732 115.803C56.3344 117.287 65.817 119.321 74.0422 124.283L74.0509 138.884C69.9772 137.395 66.1532 134.651 62.3388 132.579L46.8238 124.319C41.4249 121.419 36.1582 118.472 30.5238 116.041Z" fill="#6E41A3"/>
<path d="M41.088 72.97C40.8592 72.3078 40.779 71.6722 40.7965 70.9706C40.8192 70.0641 41.0348 69.0637 41.5404 68.2986C43.4569 65.399 48.3319 61.1675 50.9105 58.564C54.2811 55.1611 57.488 51.5316 60.9796 48.259C62.3663 46.9593 63.7063 46.0849 65.6988 46.1713C69.1838 46.3221 71.7005 50.011 73.9001 52.3593C77.0771 55.3339 80.1022 58.4896 83.173 61.5742C84.9871 63.3965 87.2246 65.1997 88.6332 67.3442C89.4636 68.6085 89.7944 69.7059 89.8396 71.2082C89.9121 73.6208 89.019 75.4762 87.3888 77.1718C84.3572 80.3252 81.1076 83.2983 78.0094 86.3912C76.0392 88.3581 71.7136 93.139 69.7017 94.4395C68.6142 95.1423 67.239 95.4267 65.9623 95.4453C64.8232 95.4623 63.6686 95.2778 62.6521 94.7402C60.5515 93.63 55.9325 88.7352 54.0513 86.8766L46.8182 79.7201C45.1594 78.0989 43.2532 76.4841 41.8511 74.6376C41.4755 74.1428 41.235 73.5718 41.088 72.97Z" fill="url(#paint2_linear_320_2347)"/>
<path d="M71.3851 59.8295L74.0718 59.8436C74.9013 62.1993 75.6184 64.8405 76.7505 67.0633L69.8588 67.0549C70.3155 64.6379 70.8847 62.2384 71.3851 59.8295Z" fill="#56A0F7"/>
<path d="M69.8588 67.0548L76.7505 67.0633C76.8824 67.474 76.9668 67.7786 76.908 68.2105L74.5895 68.2061C72.1111 68.5185 69.3193 68.2817 66.8118 68.2709C63.9259 68.2887 61.0401 68.2892 58.1543 68.2722C59.5122 71.1743 64.2145 80.558 64.4913 83.0299C64.4024 83.1977 64.3338 83.3495 64.2007 83.4872C62.4011 81.9947 60.8959 79.1576 59.6072 77.1951C57.6001 74.138 55.6407 70.9985 53.3145 68.1703C53.2824 68.1331 53.2434 68.1008 53.2178 68.0587C53.0166 67.7264 53.1882 67.3996 53.2988 67.0766L58.9795 67.0543L69.8588 67.0548Z" fill="#76D5F6"/>
<path d="M69.8588 67.0548L76.7505 67.0633C76.8824 67.474 76.9668 67.7786 76.908 68.2105L74.5895 68.2061C72.2832 67.9383 69.7416 68.1258 67.4166 68.1266L53.3145 68.1703C53.2824 68.1331 53.2434 68.1008 53.2178 68.0587C53.0166 67.7264 53.1882 67.3996 53.2988 67.0766L58.9795 67.0543L69.8588 67.0548Z" fill="#FEFEFE"/>
<path d="M58.1544 68.2722C61.0401 68.2892 63.926 68.2887 66.8118 68.2709C66.7353 69.9286 65.9147 83.5988 66.1065 83.9312C66.0605 83.9358 66.0147 83.9408 65.9688 83.9449C65.2707 84.0061 64.7611 83.9539 64.2007 83.4872C64.3338 83.3495 64.4024 83.1977 64.4913 83.0299C64.2145 80.558 59.5122 71.1743 58.1544 68.2722Z" fill="#62BFEE"/>
<path d="M74.5895 68.2061L76.908 68.2105C74.4207 71.668 72.3009 75.5316 69.9988 79.1294C69.1418 80.4685 68.2972 81.9953 67.2261 83.1732C66.9094 83.5215 66.5445 83.7623 66.1065 83.9312C65.9147 83.5988 66.7353 69.9287 66.8118 68.2709C69.3193 68.2817 72.1111 68.5185 74.5895 68.2061Z" fill="#56A0F7"/>
<path d="M59.2447 59.6793C63.2839 59.8445 67.3424 59.7989 71.3851 59.8295C70.8847 62.2383 70.3155 64.6379 69.8588 67.0548L58.9795 67.0543C58.7991 64.5948 58.2743 62.1452 57.9022 59.7079L59.2447 59.6793Z" fill="#317AEC"/>
<path d="M41.088 72.97C40.8592 72.3078 40.779 71.6722 40.7965 70.9706C40.8192 70.0641 41.0348 69.0637 41.5404 68.2986C43.4569 65.399 48.3319 61.1675 50.9105 58.564C54.2811 55.1611 57.488 51.5316 60.9796 48.259C62.3663 46.9593 63.7063 46.0849 65.6988 46.1713C69.1838 46.3221 71.7005 50.011 73.9001 52.3593L73.9713 52.5418C74.0438 52.725 74.1303 52.8816 74.2374 53.0472C72.9511 54.2096 71.1798 54.6332 69.8871 55.7469C68.6582 56.8056 67.5173 59.0074 65.9309 59.4605C63.9286 60.0327 61.07 58.7625 59.2448 59.6792L57.9023 59.7079C58.2744 62.1452 58.7992 64.5948 58.9796 67.0542L53.2988 67.0766C53.6515 66.3014 53.8492 65.4655 54.0738 64.6468L53.7544 64.7633C53.669 65.0698 53.5796 65.3813 53.4705 65.6804C53.3959 65.8853 47.0396 70.7697 46.3478 71.1949C44.8205 72.1333 43.3682 72.5004 41.9575 73.7192L41.6477 73.6886C41.5097 73.384 41.3753 73.0777 41.2446 72.7699L41.088 72.97Z" fill="#D37CE0"/>
<path d="M55.4834 59.6887L57.9022 59.708C58.2743 62.1453 58.7991 64.5949 58.9795 67.0543L53.2988 67.0766C53.6515 66.3015 53.8492 65.4656 54.0738 64.6468C54.6651 63.0856 55.1757 61.3272 55.4834 59.6887Z" fill="#56A0F7"/>
<path d="M161.956 27.2016C163.127 25.7795 165.013 24.6733 166.555 23.6623C174.023 18.7649 182.273 15.401 191.223 14.5408C191.648 14.5017 192.073 14.4678 192.498 14.4391C192.925 14.4103 193.351 14.3868 193.777 14.3684C194.204 14.3501 194.63 14.3369 195.056 14.3289C195.483 14.321 195.91 14.3182 196.337 14.3206C196.764 14.323 197.19 14.3307 197.617 14.3435C198.043 14.3563 198.469 14.3743 198.896 14.3975C199.322 14.4207 199.748 14.449 200.173 14.4826C200.599 14.5162 201.024 14.5549 201.448 14.5988C201.873 14.6427 202.296 14.6918 202.719 14.746C203.142 14.8003 203.565 14.8597 203.987 14.9242C204.408 14.9887 204.83 15.0584 205.25 15.1332C205.671 15.2079 206.09 15.2878 206.508 15.3728C206.926 15.4578 207.343 15.5479 207.76 15.643C208.175 15.7382 208.59 15.8384 209.004 15.9436C209.417 16.0489 209.829 16.1591 210.24 16.2744C210.651 16.3897 211.06 16.51 211.469 16.6353C211.877 16.7605 212.283 16.8907 212.689 17.0259C213.092 17.1611 213.495 17.3011 213.896 17.4461C214.299 17.5911 214.699 17.7409 215.096 17.8956C215.494 18.0503 215.889 18.2099 216.283 18.3742C216.676 18.5386 217.068 18.7077 217.458 18.8816C217.847 19.0555 218.235 19.2341 218.621 19.4174C219.007 19.6007 219.39 19.7887 219.771 19.9815C220.152 20.1741 220.53 20.3714 220.906 20.5732C221.281 20.7751 221.655 20.9815 222.027 21.1925C222.397 21.4035 222.766 21.619 223.133 21.8389C223.498 22.0587 223.861 22.2831 224.221 22.5119C224.581 22.7407 224.939 22.9738 225.294 23.2114C225.648 23.4489 225.999 23.6907 226.348 23.9367C226.697 24.1828 227.043 24.4331 227.387 24.6875C227.729 24.942 228.068 25.2005 228.404 25.4632C228.741 25.726 229.074 25.9928 229.404 26.2637C237.514 32.9642 243.517 41.4085 246.704 51.4593C247.283 53.2862 248.012 55.3691 248.163 57.2853C248.185 57.5332 248.163 57.772 248.146 58.0188C248.142 58.0796 248.142 58.1406 248.138 58.2016C248.135 58.2381 248.133 58.2745 248.129 58.311C248.148 58.2828 248.169 58.2553 248.187 58.226C248.815 57.197 248.369 54.6298 248.481 53.3606C249.102 46.3348 253.75 40.1591 260.644 38.2569C264.523 37.1868 268.821 37.8182 272.312 39.8004C276.004 41.8971 278.869 45.7277 279.962 49.8177C280.481 51.7596 280.906 54.8707 279.892 56.6523L279.465 56.9178C279.938 58.0392 279.127 59.812 278.683 60.8997C278.46 61.4473 278.287 61.9934 277.823 62.3874L277.992 62.3386C279.675 61.8334 281.929 59.7918 283.671 60.7031C285.317 61.5642 286.919 64.1385 287.448 65.9159C287.631 66.5319 287.696 67.1137 287.362 67.6937C286.677 68.8821 284.777 70.6055 283.598 71.2792C284.817 71.2973 287.883 71.0177 288.815 71.9198C289.985 73.0501 290.042 75.6932 289.969 77.2411C289.931 78.0663 289.779 79.2483 289.121 79.8283C288.129 80.7015 285.035 80.689 283.69 80.8258C285.063 81.6492 287.6 83.2883 288.242 84.7277C288.452 86.4207 286.815 89.1456 285.792 90.4721C285.394 90.9892 284.781 91.702 284.108 91.8151C282.34 92.1114 280.258 90.4594 278.519 90.0961C279 90.8283 280.613 94.1216 280.485 94.8915C280.477 94.9417 280.463 94.9909 280.454 95.0408C280.244 95.9913 279.302 97.011 278.492 97.5135C278.412 97.5635 278.317 97.6037 278.231 97.6433C277.615 98.2741 276.633 98.6835 275.815 98.9964C275.794 98.9508 275.777 98.903 275.752 98.8596C274.244 96.2922 269.792 94.8692 267.096 94.091C265.602 94.1829 264.112 94.1268 262.617 94.0839C262.323 94.1779 262.04 94.2778 261.733 94.3174C260.388 94.4563 258.94 94.3386 257.587 94.3243C254.996 94.3063 252.405 94.2699 249.815 94.2152C248.027 94.5365 245.748 94.2508 243.894 94.2476L229.594 94.2074C229.812 93.7655 229.817 93.2882 229.825 92.8072C229.908 88.0386 229.758 83.2617 229.754 78.4924C229.826 69.7245 229.831 60.9566 229.771 52.1886C229.764 48.9151 229.778 45.6416 229.814 42.3683C229.829 40.2197 229.987 37.9623 229.637 35.8348C229.294 33.7628 228.39 32.0635 226.919 30.5671C225.337 28.9573 223.181 27.7551 220.952 27.3566C218.679 26.9503 216.169 27.1569 213.865 27.1727C210.451 27.2027 207.037 27.2111 203.621 27.1979L161.956 27.2016Z" fill="#FEFEFE"/>
<path d="M239.542 78.8168C240.013 77.0411 238.913 74.0624 240.235 72.5982C241.169 71.563 242.746 71.6049 244.025 71.5141C244.254 71.8829 244.4 72.2305 244.298 72.6699C243.894 74.4308 241.846 77.6861 240.19 78.5905C239.988 78.7009 239.763 78.7652 239.542 78.8168Z" fill="#D37CE0"/>
<path d="M243.988 70.293C243.769 69.7446 242.965 69.1449 242.565 68.6768C242.194 68.2436 242.073 67.8275 242.127 67.2609C242.304 65.434 244.106 62.5277 245.523 61.3953C246.083 60.9469 246.815 60.585 247.554 60.6889C248.052 60.7589 248.821 61.1448 249.123 61.5473C248.675 61.499 248.488 61.4178 248.079 61.6624C247.669 62.5433 247.465 63.5267 246.996 64.3688C246.094 65.985 244.867 67.4165 244.031 69.0699C243.944 69.2417 243.867 69.2923 243.927 69.4871C244.021 69.7936 244.1 69.9856 243.988 70.293Z" fill="#D37CE0"/>
<path d="M259.94 56.2906C260.59 55.4726 260.396 53.8085 260.683 52.8031C260.875 52.133 261.325 51.6226 261.94 51.3115C263.262 50.6449 266.069 50.6015 267.492 51.0745C268.367 51.3652 269.077 51.9735 269.45 52.826C269.756 53.5286 269.917 55.2079 269.642 55.9153C269.496 55.0922 269.381 53.382 268.954 52.7329C268.75 52.7648 268.665 52.8237 268.504 52.9387C266.754 54.1894 263.902 54.4376 261.888 55.1496C261.154 55.4089 260.644 56.0536 259.94 56.2906Z" fill="#D37CE0"/>
<path d="M250.748 61.055C250.663 59.8147 249.644 58.0852 250.069 56.8911C250.521 55.6219 252.327 54.5819 253.458 53.9982C254.246 53.5915 255.842 52.7754 256.735 53.1625C257.1 53.3214 257.21 53.483 257.348 53.8364C257.227 54.4699 252.121 60.4574 251.494 60.8907C251.246 61.0621 251.05 61.1165 250.748 61.055Z" fill="#D37CE0"/>
<path d="M259.94 56.2906C260.644 56.0536 261.154 55.409 261.888 55.1496C263.902 54.4376 266.754 54.1894 268.504 52.9388C268.665 52.8237 268.75 52.7648 268.954 52.7329C269.381 53.382 269.496 55.0923 269.642 55.9153L270.119 56.6119C271.379 55.7162 271.402 54.2924 273.542 53.0257C273.554 53.0192 273.56 53.0067 273.569 52.997C275.315 53.398 278.181 54.347 279.179 55.9128C279.363 56.2041 279.515 56.5663 279.465 56.9178C279.938 58.0392 279.127 59.812 278.683 60.8998C278.46 61.4473 278.287 61.9934 277.823 62.3874L277.992 62.3386C279.675 61.8334 281.929 59.7918 283.671 60.7031C285.317 61.5642 286.919 64.1385 287.448 65.9159C287.631 66.532 287.696 67.1137 287.362 67.6938C286.677 68.8821 284.777 70.6055 283.598 71.2792C284.817 71.2973 287.883 71.0177 288.815 71.9198C289.985 73.0501 290.042 75.6932 289.969 77.2411C289.931 78.0663 289.779 79.2483 289.121 79.8283C288.129 80.7015 285.035 80.689 283.69 80.8258C285.063 81.6492 287.6 83.2883 288.242 84.7277C288.452 86.4207 286.815 89.1456 285.792 90.4721C285.394 90.9892 284.781 91.702 284.108 91.8151C282.34 92.1114 280.258 90.4594 278.519 90.0962C279 90.8284 280.613 94.1216 280.485 94.8915C280.477 94.9417 280.463 94.991 280.454 95.0408C280.244 95.9913 279.302 97.011 278.492 97.5135C278.412 97.5635 278.317 97.6037 278.231 97.6433C277.615 98.2742 276.633 98.6836 275.815 98.9964C275.794 98.9508 275.777 98.9031 275.752 98.8596C274.244 96.2922 269.792 94.8692 267.096 94.091C265.602 94.1829 264.112 94.1268 262.617 94.0839C262.323 94.1779 262.04 94.2778 261.733 94.3174C260.388 94.4563 258.94 94.3386 257.587 94.3243C254.996 94.3063 252.405 94.2699 249.815 94.2153C249.896 94.121 249.935 94.0883 249.992 93.9856C250.337 93.3738 250.492 91.4738 250.294 90.8032C250.269 90.8178 250.244 90.8353 250.215 90.847C248.929 91.3992 247.313 91.9182 245.96 91.3472C244.402 90.6895 243.152 88.5748 242.538 87.0567C241.121 83.5459 243.992 83.8083 244.804 81.7054C244.813 81.6794 244.821 81.6525 244.831 81.6261C243.742 81.1305 242.429 81.1802 241.308 80.7606C240.321 80.3916 239.958 79.7394 239.542 78.8168C239.763 78.7652 239.988 78.7009 240.19 78.5905C241.846 77.6861 243.894 74.4308 244.298 72.6699C244.4 72.2305 244.254 71.8829 244.025 71.5141C244.379 71.472 244.542 71.4874 244.833 71.27C244.742 70.8206 244.327 70.5922 243.988 70.293C244.1 69.9856 244.021 69.7936 243.927 69.4871C243.867 69.2923 243.944 69.2417 244.031 69.0699C244.867 67.4165 246.094 65.985 246.996 64.3688C247.465 63.5267 247.669 62.5433 248.079 61.6624C248.488 61.4178 248.675 61.499 249.123 61.5473C249.721 61.6441 250.221 61.9706 250.804 62.1362L250.948 61.9082L250.748 61.055C251.05 61.1166 251.246 61.0621 251.494 60.8907C252.121 60.4575 257.227 54.4699 257.348 53.8364C258.54 54.3439 258.862 56.0836 259.913 56.8207C260.052 56.5946 259.998 56.5542 259.94 56.2906Z" fill="url(#paint3_linear_320_2347)"/>
<path d="M264.352 63.016C267.94 62.8559 271.265 63.9788 273.958 66.364C274.131 66.5192 274.3 66.6785 274.465 66.8419C274.631 67.0053 274.792 67.1725 274.948 67.3436C275.106 67.5148 275.259 67.6897 275.408 67.8682C275.556 68.0469 275.701 68.229 275.84 68.4146C275.981 68.6002 276.117 68.789 276.248 68.9812C276.379 69.1733 276.504 69.3684 276.625 69.5666C276.747 69.7649 276.863 69.966 276.975 70.1699C277.087 70.3737 277.194 70.5801 277.296 70.7892C277.397 70.9982 277.494 71.2096 277.585 71.4233C277.677 71.6371 277.763 71.8529 277.844 72.0708C277.925 72.2887 278.001 72.5084 278.071 72.7299C278.142 72.9516 278.206 73.1747 278.265 73.3994C278.326 73.6241 278.38 73.8501 278.429 74.0774C278.478 74.3048 278.521 74.5332 278.558 74.7627C278.596 74.992 278.628 75.2221 278.654 75.4531C278.681 75.6841 278.702 75.9156 278.717 76.1476C278.933 79.8664 277.633 83.3876 275.156 86.1481C272.588 89.0082 268.969 90.4267 265.192 90.6214C262.258 90.7283 259.106 89.6396 256.771 87.8841C256.592 87.7487 256.415 87.6089 256.242 87.4647C256.069 87.3206 255.9 87.1723 255.735 87.0199C255.568 86.8676 255.406 86.7112 255.248 86.5509C255.089 86.3906 254.935 86.2266 254.785 86.0588C254.635 85.8909 254.489 85.7195 254.348 85.5446C254.206 85.3696 254.068 85.1913 253.935 85.0096C253.803 84.8278 253.674 84.643 253.55 84.4551C253.426 84.2671 253.306 84.0762 253.192 83.8824C253.077 83.6886 252.967 83.4921 252.862 83.2929C252.756 83.0937 252.656 82.8921 252.562 82.6881C252.465 82.484 252.375 82.2778 252.29 82.0694C252.205 81.8608 252.124 81.6504 252.05 81.438C251.974 81.2256 251.904 81.0114 251.84 80.7956C251.776 80.5799 251.717 80.3627 251.663 80.144C251.61 79.9252 251.561 79.7053 251.517 79.4843C251.474 79.2632 251.436 79.0412 251.404 78.8183C250.904 75.1278 251.787 71.3635 254.069 68.3981C256.825 64.817 260.006 63.5789 264.352 63.016Z" fill="url(#paint4_linear_320_2347)"/>
<path d="M263.362 70.1982C265.229 69.9306 266.95 70.1297 268.542 71.2042C268.633 71.2649 268.723 71.3277 268.812 71.3927C268.899 71.4579 268.985 71.5251 269.069 71.5945C269.154 71.664 269.237 71.7355 269.317 71.809C269.398 71.8825 269.477 71.9581 269.554 72.0357C269.632 72.1131 269.708 72.1925 269.781 72.2738C269.854 72.355 269.925 72.438 269.994 72.5228C270.063 72.6077 270.13 72.6942 270.194 72.7823C270.26 72.8704 270.322 72.9601 270.383 73.0514C270.443 73.1428 270.501 73.2355 270.556 73.3296C270.612 73.4239 270.665 73.5194 270.715 73.6163C270.767 73.7131 270.815 73.8112 270.862 73.9104C270.908 74.0097 270.951 74.11 270.992 74.2113C271.033 74.3128 271.072 74.4152 271.108 74.5186C271.144 74.6219 271.177 74.7261 271.208 74.8312C271.238 74.9362 271.267 75.042 271.292 75.1484C271.317 75.2547 271.339 75.3617 271.36 75.4693C271.706 77.3291 271.35 79.4026 270.237 80.953C269.29 82.2691 267.879 83.0936 266.296 83.3682C265.081 83.6539 263.563 83.4751 262.417 82.9982C260.792 82.3216 259.548 80.9576 258.898 79.3322C258.217 77.6334 258.163 75.6502 258.9 73.9608C259.781 71.9452 261.398 70.9543 263.362 70.1982Z" fill="#2F368A"/>
<path d="M259.94 56.2906C260.644 56.0536 261.154 55.409 261.888 55.1496C263.902 54.4376 266.754 54.1894 268.504 52.9388C268.665 52.8237 268.75 52.7648 268.954 52.7329C269.381 53.382 269.496 55.0923 269.642 55.9153L270.119 56.6119C271.379 55.7162 271.402 54.2924 273.542 53.0257C273.554 53.0192 273.56 53.0067 273.569 52.997C275.315 53.398 278.181 54.347 279.179 55.9128C279.363 56.2041 279.515 56.5663 279.465 56.9178C279.938 58.0392 279.127 59.812 278.683 60.8998C278.46 61.4473 278.287 61.9934 277.823 62.3874L277.992 62.3386C279.675 61.8334 281.929 59.7918 283.671 60.7031C285.317 61.5642 286.919 64.1385 287.448 65.9159C287.631 66.532 287.696 67.1137 287.362 67.6938C286.677 68.8821 284.777 70.6055 283.598 71.2792C284.817 71.2973 287.883 71.0177 288.815 71.9198C289.985 73.0501 290.042 75.6932 289.969 77.2411C289.931 78.0663 289.779 79.2483 289.121 79.8283C288.129 80.7015 285.035 80.689 283.69 80.8258C285.063 81.6492 287.6 83.2883 288.242 84.7277C288.452 86.4207 286.815 89.1456 285.792 90.4721C285.394 90.9892 284.781 91.702 284.108 91.8151C282.34 92.1114 280.258 90.4594 278.519 90.0962C279 90.8284 280.613 94.1216 280.485 94.8915C280.477 94.9417 280.463 94.991 280.454 95.0408C280.244 95.9913 279.302 97.011 278.492 97.5135C278.412 97.5635 278.317 97.6037 278.231 97.6433C277.615 98.2742 276.633 98.6836 275.815 98.9964C275.794 98.9508 275.777 98.9031 275.752 98.8596C274.244 96.2922 269.792 94.8692 267.096 94.091C268.604 93.7501 270.073 93.3609 271.498 92.7493C275.848 90.8822 279.302 87.5602 281.04 83.1377C282.75 78.7887 282.679 74.4348 280.806 70.152C280.748 70.0194 280.688 69.8876 280.625 69.7565C280.563 69.6254 280.501 69.4951 280.437 69.3656C280.371 69.236 280.304 69.1073 280.237 68.9794C280.169 68.8514 280.099 68.7243 280.029 68.5981C279.958 68.4719 279.886 68.3466 279.812 68.2222C279.737 68.0978 279.662 67.9744 279.585 67.8519C279.508 67.7293 279.429 67.6077 279.348 67.4871C279.267 67.3666 279.186 67.247 279.104 67.1283C279.021 67.0097 278.936 66.8922 278.85 66.7757C278.764 66.6592 278.676 66.5438 278.587 66.4294C278.498 66.315 278.408 66.2018 278.317 66.0897C278.225 65.9776 278.132 65.8666 278.038 65.7566C277.944 65.6469 277.847 65.5382 277.75 65.4308C277.654 65.3231 277.556 65.2168 277.456 65.1118C277.356 65.0067 277.254 64.9029 277.152 64.8003C277.051 64.6977 276.947 64.5965 276.842 64.4965C276.737 64.3965 276.631 64.2977 276.525 64.2003C276.417 64.1028 276.309 64.0067 276.2 63.9121C276.09 63.8173 275.979 63.7239 275.867 63.6318C275.756 63.5398 275.643 63.4492 275.529 63.3599C275.415 63.2707 275.3 63.1828 275.185 63.0964C275.068 63.0099 274.951 62.925 274.833 62.8415C274.713 62.758 274.594 62.676 274.475 62.5954C274.354 62.5147 274.233 62.4356 274.11 62.358C273.988 62.2804 273.865 62.2044 273.74 62.1298C273.617 62.0552 273.492 61.9822 273.365 61.9107C273.24 61.8393 273.113 61.7694 272.987 61.701C272.858 61.6327 272.729 61.5658 272.6 61.5006C272.471 61.4354 272.34 61.3719 272.21 61.3099C272.079 61.2478 271.947 61.1874 271.815 61.1287C271.683 61.0699 271.551 61.0128 271.417 60.9573C271.283 60.9019 271.148 60.8481 271.013 60.7959C270.88 60.7448 270.746 60.6955 270.61 60.6479C270.475 60.6002 270.34 60.5542 270.204 60.5098C270.068 60.4655 269.931 60.4229 269.794 60.3819C269.657 60.3409 269.519 60.3017 269.381 60.2641C269.242 60.2265 269.104 60.1906 268.965 60.1564C268.826 60.1223 268.686 60.0898 268.546 60.059C268.406 60.0283 268.267 59.9993 268.127 59.9721C267.986 59.9448 267.845 59.9192 267.704 59.8953C267.563 59.8715 267.421 59.8494 267.279 59.8291C267.138 59.8087 266.996 59.7902 266.854 59.7734C266.712 59.7564 266.569 59.7413 266.427 59.7279C266.285 59.7146 266.142 59.7031 265.998 59.6933C265.856 59.6834 265.713 59.6754 265.569 59.6691C265.427 59.6628 265.284 59.6582 265.14 59.6554C264.997 59.6526 264.854 59.6516 264.712 59.6523C264.568 59.6531 264.424 59.6556 264.281 59.6598C264.138 59.6641 263.996 59.6701 263.852 59.6779C263.71 59.6858 263.567 59.6953 263.423 59.7066C263.281 59.7179 263.138 59.7309 262.996 59.7456C262.854 59.7605 262.712 59.7771 262.569 59.7953C262.427 59.8136 262.285 59.8337 262.144 59.8555C262.003 59.8773 261.862 59.9008 261.721 59.9261C261.58 59.9514 261.44 59.9784 261.3 60.0071C261.159 60.0358 261.019 60.0663 260.879 60.0985C260.74 60.1307 260.601 60.1646 260.462 60.2003C260.323 60.2359 260.185 60.2732 260.048 60.3122C259.91 60.3512 259.772 60.3919 259.637 60.4342C259.499 60.4766 259.363 60.5207 259.227 60.5664C259.091 60.6121 258.956 60.6596 258.821 60.7087C258.688 60.7577 258.555 60.8084 258.421 60.8607C258.288 60.9132 258.155 60.9672 258.023 61.0227C257.891 61.0783 257.76 61.1356 257.629 61.1945C253.517 63.0356 250.337 66.6266 248.777 70.8265C247.233 74.9818 247.442 79.9828 249.296 84.0034C250.95 87.5927 254.467 91.0796 258.106 92.6445C259.55 93.2659 261.096 93.5056 262.538 94.0529C262.565 94.0629 262.59 94.0735 262.617 94.0839C262.323 94.1779 262.04 94.2778 261.733 94.3174C260.388 94.4563 258.94 94.3386 257.587 94.3243C254.996 94.3063 252.405 94.2699 249.815 94.2153C249.896 94.121 249.935 94.0883 249.992 93.9856C250.337 93.3738 250.492 91.4738 250.294 90.8032C250.269 90.8178 250.244 90.8353 250.215 90.847C248.929 91.3992 247.313 91.9182 245.96 91.3472C244.402 90.6895 243.152 88.5748 242.538 87.0567C241.121 83.5459 243.992 83.8083 244.804 81.7054C244.813 81.6794 244.821 81.6525 244.831 81.6261C243.742 81.1305 242.429 81.1802 241.308 80.7606C240.321 80.3916 239.958 79.7394 239.542 78.8168C239.763 78.7652 239.988 78.7009 240.19 78.5905C241.846 77.6861 243.894 74.4308 244.298 72.6699C244.4 72.2305 244.254 71.8829 244.025 71.5141C244.379 71.472 244.542 71.4874 244.833 71.27C244.742 70.8206 244.327 70.5922 243.988 70.293C244.1 69.9856 244.021 69.7936 243.927 69.4871C243.867 69.2923 243.944 69.2417 244.031 69.0699C244.867 67.4165 246.094 65.985 246.996 64.3688C247.465 63.5267 247.669 62.5433 248.079 61.6624C248.488 61.4178 248.675 61.499 249.123 61.5473C249.721 61.6441 250.221 61.9706 250.804 62.1362L250.948 61.9082L250.748 61.055C251.05 61.1166 251.246 61.0621 251.494 60.8907C252.121 60.4575 257.227 54.4699 257.348 53.8364C258.54 54.3439 258.862 56.0836 259.913 56.8207C260.052 56.5946 259.998 56.5542 259.94 56.2906Z" fill="url(#paint5_linear_320_2347)"/>
<path d="M262.617 94.0839C264.112 94.1268 265.602 94.1829 267.096 94.091C269.792 94.8692 274.244 96.2922 275.752 98.8596C275.777 98.9031 275.794 98.9508 275.815 98.9964C278.181 101.016 279.313 104.945 279.542 107.953C279.662 109.532 279.765 121.089 279.442 122.262C279.704 123.532 279.756 136.833 279.39 137.831C279.808 138.945 279.785 153.221 279.421 154.073C279.381 154.17 279.369 154.186 279.323 154.268C279.771 155.208 279.773 162.556 279.404 163.523C279.388 163.564 279.369 163.605 279.352 163.646C279.846 166.008 277.844 169.926 276.583 171.861C276.321 172.262 276.056 172.656 275.754 173.027C275.723 173.046 275.694 173.063 275.663 173.082C274.798 173.643 274.15 174.536 273.352 175.196C270.765 177.331 267.196 178.667 263.831 178.567C263.423 178.696 222.715 178.796 220.238 178.52C221.152 178.239 222.054 177.948 222.923 177.546C225.962 176.138 228.142 173.753 229.267 170.604C229.719 169.337 229.694 167.61 229.717 166.271C229.946 152.624 229.704 138.937 229.717 125.285C229.727 115.433 230.067 105.211 229.838 95.4173C229.827 94.964 229.79 94.6264 229.594 94.2074L243.894 94.2476C245.748 94.2508 248.027 94.5365 249.815 94.2153C252.405 94.2699 254.995 94.3063 257.587 94.3243C258.94 94.3386 260.388 94.4563 261.733 94.3174C262.04 94.2778 262.323 94.1779 262.617 94.0839Z" fill="#56A0F7"/>
<path d="M264.721 109.871C265.242 109.774 265.51 109.76 265.969 110.002C266.362 110.57 266.206 111.503 266.288 112.182C266.779 112.562 267.408 112.473 268.002 112.607C268.465 112.711 268.579 112.875 268.808 113.253C268.771 113.755 268.787 113.816 268.462 114.192C267.723 114.525 266.798 114.423 266.002 114.418C266.198 114.79 266.281 115.272 266.227 115.694C266.162 116.217 265.992 116.411 265.588 116.713L265.273 116.899L264.84 116.685C264.423 116.157 264.41 115.266 264.321 114.611C263.985 114.362 263.473 114.473 263.056 114.444C262.492 114.404 262.3 114.203 261.944 113.803C261.883 113.368 261.908 113.321 262.108 112.926C262.66 112.45 263.448 112.512 264.138 112.371C264.521 111.906 264.465 110.578 264.721 109.871Z" fill="#FEFEFE"/>
<path d="M239.125 100.467C241.369 100.249 243.802 100.442 246.06 100.44C248.554 100.438 251.285 100.209 253.752 100.512C254.362 100.586 254.877 100.72 255.396 101.061C256.298 101.655 256.833 102.61 257.021 103.66C257.194 104.628 257.027 105.652 256.45 106.461C255.817 107.347 255.035 107.7 253.99 107.879C251.675 108.085 240.094 108.251 238.45 107.541C238.397 107.518 238.345 107.495 238.292 107.469C238.24 107.444 238.188 107.418 238.138 107.39C238.087 107.362 238.037 107.333 237.988 107.303C237.94 107.273 237.892 107.241 237.844 107.208C237.796 107.176 237.749 107.142 237.704 107.106C237.658 107.071 237.613 107.035 237.569 106.998C237.524 106.96 237.481 106.922 237.438 106.882C237.397 106.843 237.356 106.802 237.315 106.76C237.276 106.719 237.237 106.676 237.2 106.632C237.162 106.589 237.124 106.544 237.088 106.499C237.054 106.453 237.02 106.407 236.987 106.359C236.953 106.312 236.921 106.264 236.89 106.215C236.86 106.166 236.83 106.117 236.802 106.066C236.774 106.016 236.747 105.965 236.721 105.913C236.696 105.861 236.671 105.809 236.648 105.756C236.625 105.703 236.603 105.649 236.583 105.595C236.558 105.531 236.536 105.466 236.515 105.401C236.495 105.336 236.476 105.27 236.458 105.204C236.44 105.137 236.424 105.071 236.41 105.003C236.397 104.936 236.385 104.869 236.373 104.801C236.363 104.733 236.354 104.665 236.346 104.597C236.34 104.529 236.335 104.461 236.331 104.392C236.327 104.324 236.325 104.255 236.325 104.187C236.325 104.118 236.326 104.049 236.329 103.981C236.333 103.913 236.338 103.844 236.344 103.776C236.351 103.708 236.359 103.64 236.369 103.572C236.379 103.504 236.392 103.436 236.406 103.369C236.42 103.302 236.435 103.235 236.452 103.169C236.469 103.103 236.487 103.037 236.508 102.971C236.528 102.906 236.551 102.841 236.575 102.776C236.598 102.712 236.623 102.648 236.65 102.585C236.677 102.522 236.706 102.46 236.737 102.398C237.252 101.326 238.038 100.851 239.125 100.467Z" fill="#20256C"/>
<path d="M262.617 94.0839C264.112 94.1268 265.602 94.1829 267.096 94.091C269.792 94.8692 274.244 96.2922 275.752 98.8596C275.777 98.9031 275.794 98.9508 275.815 98.9964C278.181 101.016 279.313 104.945 279.542 107.953C279.662 109.532 279.765 121.089 279.442 122.262C279.704 123.532 279.756 136.833 279.39 137.831C279.808 138.945 279.785 153.221 279.421 154.073C279.381 154.17 279.369 154.186 279.323 154.268C279.771 155.208 279.773 162.556 279.404 163.523C279.388 163.564 279.369 163.605 279.352 163.646C279.846 166.008 277.844 169.926 276.583 171.861C276.321 172.262 276.056 172.656 275.754 173.027C275.723 173.046 275.694 173.063 275.663 173.082C274.798 173.643 274.15 174.536 273.352 175.196C270.765 177.331 267.196 178.667 263.831 178.567C262.754 178.321 261.242 178.491 260.11 178.45C261.147 178.176 262.151 177.81 263.123 177.352C267.085 175.501 269.975 172.416 271.465 168.285C271.858 167.191 272.138 166.075 272.215 164.912C272.454 161.258 272.325 157.566 272.306 153.905L272.285 137.106L272.39 117.718C272.392 114.454 272.529 111.111 272.3 107.855C272.162 105.882 271.825 104.098 270.971 102.301C269.138 98.4411 265.723 95.7287 261.733 94.3174C262.04 94.2778 262.323 94.1779 262.617 94.0839Z" fill="#1A2770"/>
<path d="M119.36 98.372C121.74 98.4224 124.14 98.3266 126.514 98.4361C128.573 98.6181 130.363 99.2887 131.72 100.918C132.751 102.157 133.17 103.51 133.368 105.087C133.628 107.161 133.505 109.367 133.504 111.457L133.493 122.148L133.532 156.737C133.536 160.524 134.033 168.59 133.303 171.859C132.93 173.533 132.166 175.128 130.942 176.346C129.73 177.552 128.067 178.428 126.367 178.643C118.646 178.908 110.823 178.668 103.092 178.669C95.9653 178.67 88.6993 178.937 81.5853 178.581C80.7459 178.539 79.8626 178.498 79.0703 178.197C76.5267 177.23 75.283 175.311 74.2297 172.934C73.6905 169.897 74.0267 166.35 74.033 163.253L74.0453 158.07C74.3809 151.719 74.103 145.249 74.0509 138.884L74.0422 124.283C73.9515 119.936 74.1195 115.586 74.0294 111.241C74.4003 107.625 73.287 103.639 76.0113 100.659C76.9278 99.6572 78.2649 98.8801 79.5986 98.6139C82.5263 98.029 86.7788 98.4217 89.8411 98.4136L107.29 98.3951C111.297 98.4149 115.359 98.5537 119.36 98.372Z" fill="#20256C"/>
<path d="M76.5953 169.518C76.5805 169.323 76.5712 169.128 76.5674 168.932C76.379 155.934 76.5876 142.91 76.5669 129.908L76.6696 113.969C76.6923 111.137 76.513 108.169 76.8274 105.355C76.9648 104.124 77.1367 103.349 78.0278 102.446C79.4761 100.977 81.2524 101.148 83.153 101.139L113.233 101.156L122.333 101.132C123.835 101.128 125.514 100.981 126.99 101.211C127.849 101.345 128.794 101.844 129.398 102.466C130.166 103.257 130.55 104.41 130.737 105.473C131.062 107.322 130.861 109.45 130.871 111.335C130.89 114.942 130.973 118.559 130.873 122.165C130.747 120.263 130.786 118.352 130.791 116.447L76.7153 116.447L76.7017 152.952L76.6988 163.578C76.6974 165.529 76.8321 167.586 76.5953 169.518Z" fill="#FBC06E"/>
<path d="M98.2989 107.597C100.284 107.582 109.627 107.078 110.728 108.255C110.841 108.376 110.998 108.608 110.973 108.782C110.907 109.234 110.373 109.686 110.031 109.955C107.56 110.062 100.293 110.519 98.2207 109.818C97.7249 109.651 97.5493 109.456 97.321 109.012C97.3974 108.368 97.8295 107.99 98.2989 107.597Z" fill="#FEFEFE"/>
<path d="M76.7153 116.447L130.791 116.447C130.786 118.352 130.747 120.264 130.873 122.165L130.883 156.027L130.907 165.567C130.915 167.379 131.052 169.31 130.819 171.106C130.658 172.341 130.258 173.282 129.369 174.175C128.44 175.108 127.433 175.597 126.142 175.803C124.269 176.102 122.275 175.973 120.382 175.973L111.33 175.971C101.98 175.967 92.607 176.116 83.2619 176.009C81.3251 175.987 79.5763 175.642 78.1845 174.186C76.9428 172.887 76.5744 171.267 76.5953 169.518C76.8321 167.586 76.6974 165.529 76.6988 163.578L76.7017 152.952L76.7153 116.447Z" fill="#FEFEFE"/>
<path d="M114.748 130.175C116.311 130.129 120.07 129.68 121.212 130.761C121.441 130.978 121.511 131.206 121.484 131.512C121.43 132.113 120.902 132.556 120.488 132.937C119.037 133.11 115.417 133.43 114.219 132.471C113.842 132.169 113.854 131.958 113.818 131.514C114.038 130.913 114.274 130.602 114.748 130.175Z" fill="#ACBEFB"/>
<path d="M84.9749 130.151C89.6015 129.939 94.3151 130.125 98.9503 130.128C102.004 130.13 105.267 129.882 108.3 130.145C108.746 130.183 109.049 130.257 109.408 130.546C109.655 130.898 109.744 131.156 109.723 131.593C109.689 132.295 109.441 132.581 108.958 133.034C106.465 133.097 85.4644 133.216 84.8205 132.671C84.5109 132.409 84.3405 132.078 84.3126 131.68C84.2688 131.058 84.6005 130.6 84.9749 130.151Z" fill="#ACBEFB"/>
<path d="M85.019 122.452C92.0634 122.246 99.1826 122.438 106.234 122.424L115.097 122.407C116.665 122.405 118.304 122.304 119.863 122.44C120.315 122.479 120.63 122.602 120.991 122.887C121.23 123.225 121.327 123.476 121.299 123.897C121.257 124.533 120.957 124.81 120.503 125.191C120.352 125.213 120.205 125.231 120.054 125.243C118.109 125.397 116.109 125.309 114.158 125.308L103.761 125.301L92.5274 125.305C90.3738 125.305 88.1711 125.396 86.0249 125.24C85.5624 125.206 84.9657 125.144 84.6244 124.797C84.3557 124.524 84.2863 124.269 84.2747 123.897C84.2547 123.254 84.6026 122.877 85.019 122.452Z" fill="#ACBEFB"/>
<path d="M84.7084 138.524L84.8703 138.521C86.6684 138.5 101.285 138.371 101.701 138.799C102.468 139.589 102.221 141.974 102.202 143.061C102.189 143.78 101.964 144.092 101.463 144.57C101.225 144.598 100.987 144.615 100.748 144.623C98.9524 144.667 84.997 144.818 84.5366 144.362C83.7493 143.582 84.0355 141.579 84.0391 140.516C84.0422 139.635 84.0564 139.172 84.7084 138.524Z" fill="#317AEC"/>
<path d="M84.9436 149.135C85.1035 149.12 85.2635 149.108 85.4236 149.098C90.4399 148.792 95.6286 149.05 100.662 149.053C103.943 149.056 107.52 148.745 110.76 149.097C111.288 149.155 111.699 149.327 112.088 149.701C112.539 150.136 112.724 150.738 112.698 151.354C112.653 152.391 112.291 153.003 111.557 153.706C106.933 154.047 102.091 153.773 97.4465 153.774C93.8401 153.775 89.3413 154.091 85.8388 153.658C85.3092 153.592 84.867 153.478 84.4653 153.098C84.0715 152.725 83.9046 152.215 83.8872 151.684C83.8521 150.598 84.2111 149.899 84.9436 149.135Z" fill="#ACBEFB"/>
<path d="M85.3541 157.872C91.6362 157.747 97.9528 157.868 104.237 157.918C106.43 157.935 108.911 157.582 111.055 157.947C111.837 158.08 112.633 158.394 113.078 159.092C113.475 159.713 113.52 160.59 113.325 161.288C113.103 162.082 112.543 162.473 111.883 162.876C109.767 163.073 107.582 162.971 105.455 162.968L94.656 162.949C92.4233 162.945 87.7778 163.268 85.813 162.84C85.1247 162.69 84.4891 162.401 84.126 161.759C83.7432 161.082 83.7349 160.063 83.9553 159.331C84.188 158.56 84.6795 158.216 85.3541 157.872Z" fill="#ACBEFB"/>
<path d="M161.956 27.2016L203.621 27.1979C207.037 27.211 210.451 27.2026 213.865 27.1727C216.169 27.1569 218.679 26.9503 220.952 27.3566C223.181 27.755 225.337 28.9572 226.919 30.5671C228.39 32.0635 229.294 33.7628 229.637 35.8347C229.987 37.9623 229.829 40.2197 229.813 42.3682C229.778 45.6416 229.763 48.915 229.771 52.1886C229.831 60.9565 229.826 69.7244 229.754 78.4924C229.758 83.2617 229.908 88.0386 229.825 92.8072C229.817 93.2881 229.812 93.7654 229.594 94.2073C229.79 94.6264 229.827 94.964 229.838 95.4172C230.067 105.211 229.727 115.433 229.717 125.284C229.704 138.937 229.946 152.624 229.717 166.271C229.694 167.61 229.719 169.337 229.267 170.604C228.142 173.753 225.962 176.138 222.923 177.546C222.054 177.948 221.152 178.239 220.238 178.52C216.448 178.824 212.571 178.681 208.769 178.682L189.741 178.681L126.367 178.643C128.067 178.428 129.73 177.552 130.942 176.346C132.166 175.128 132.93 173.533 133.303 171.859C134.033 168.59 133.536 160.524 133.532 156.737L222.363 156.77C222.477 156.587 222.544 156.426 222.585 156.213C222.937 154.326 222.663 149.293 222.667 147.103L222.652 122.807L222.612 68.2299C222.598 59.9988 222.769 51.7429 222.583 43.5156C222.571 42.951 222.571 42.5021 222.246 42.0095L126.521 42.0048L126.514 98.4361C124.14 98.3266 121.74 98.4224 119.36 98.372L119.414 56.3085L119.401 44.5864C119.4 41.9215 119.224 39.0766 119.718 36.4469C120.093 34.4484 121.33 32.3511 122.721 30.9169C124.204 29.3895 126.182 28.1094 128.27 27.6202C131.623 26.8345 137.228 27.2625 140.76 27.2672L161.956 27.2016Z" fill="#2F368A"/>
<path d="M173.037 161.631C174.335 161.527 175.436 161.541 176.646 162.073C176.737 162.113 176.826 162.155 176.914 162.199C177.002 162.243 177.089 162.289 177.174 162.338C177.26 162.386 177.345 162.437 177.428 162.489C177.511 162.542 177.593 162.597 177.673 162.654C177.754 162.711 177.833 162.769 177.91 162.83C177.988 162.891 178.064 162.953 178.138 163.018C178.213 163.082 178.285 163.149 178.356 163.217C178.428 163.285 178.497 163.355 178.564 163.427C178.632 163.498 178.698 163.572 178.762 163.647C178.826 163.721 178.888 163.798 178.948 163.876C179.008 163.954 179.066 164.034 179.122 164.114C179.179 164.195 179.233 164.278 179.285 164.361C179.337 164.445 179.387 164.53 179.435 164.616C179.482 164.702 179.528 164.789 179.571 164.878C179.615 164.966 179.656 165.056 179.695 165.146C179.734 165.237 179.771 165.328 179.805 165.42C179.841 165.516 179.875 165.613 179.906 165.71C179.938 165.808 179.967 165.906 179.993 166.005C180.02 166.104 180.044 166.204 180.065 166.304C180.087 166.404 180.106 166.505 180.122 166.606C180.139 166.707 180.153 166.808 180.164 166.91C180.176 167.012 180.185 167.114 180.191 167.216C180.197 167.318 180.201 167.421 180.203 167.523C180.204 167.625 180.203 167.728 180.199 167.83C180.195 167.933 180.189 168.035 180.18 168.137C180.171 168.239 180.159 168.341 180.145 168.442C180.131 168.544 180.115 168.645 180.096 168.745C180.077 168.846 180.056 168.946 180.032 169.046C180.008 169.145 179.981 169.244 179.952 169.343C179.924 169.441 179.892 169.538 179.859 169.635C179.825 169.732 179.789 169.828 179.75 169.923C179.712 170.018 179.671 170.111 179.628 170.204C178.779 171.997 177.31 172.923 175.494 173.555C174.173 173.832 172.804 173.743 171.579 173.151C170.155 172.464 169.129 171.159 168.645 169.668C168.612 169.569 168.582 169.47 168.554 169.37C168.527 169.27 168.502 169.169 168.479 169.068C168.457 168.966 168.437 168.864 168.419 168.762C168.402 168.66 168.387 168.557 168.375 168.454C168.362 168.351 168.352 168.248 168.345 168.144C168.338 168.04 168.333 167.937 168.331 167.833C168.329 167.729 168.329 167.625 168.332 167.522C168.335 167.418 168.341 167.314 168.349 167.211C168.357 167.107 168.368 167.004 168.381 166.901C168.394 166.798 168.41 166.695 168.429 166.593C168.447 166.491 168.468 166.389 168.491 166.288C168.515 166.187 168.541 166.087 168.569 165.987C168.597 165.887 168.628 165.788 168.662 165.69C168.695 165.591 168.731 165.494 168.769 165.397C168.807 165.301 168.848 165.205 168.89 165.111C168.933 165.016 168.978 164.923 169.026 164.83C169.888 163.177 171.294 162.19 173.037 161.631Z" fill="#3F5FCC"/>
<path d="M159.582 32.1733C164.986 31.8519 170.552 32.1424 175.977 32.1345C179.353 32.1295 185.058 31.8042 188.176 32.2324C188.798 32.3178 189.253 32.5573 189.617 33.0866C190.003 33.6493 190.025 34.3001 189.876 34.9433C189.678 35.794 189.268 36.1738 188.552 36.6172C186.683 36.815 184.729 36.7105 182.845 36.7145L172.942 36.7453L164.527 36.7701C162.951 36.7742 161.191 36.9285 159.641 36.6439C159.098 36.5441 158.608 36.2811 158.315 35.7934C158.01 35.2847 158.033 34.6734 158.153 34.1139C158.359 33.1574 158.784 32.7003 159.582 32.1733Z" fill="#3F5FCC"/>
<path d="M126.521 42.0049L222.246 42.0095C222.571 42.5022 222.571 42.951 222.583 43.5157C222.769 51.7429 222.598 59.9988 222.612 68.2299L222.652 122.807L222.667 147.103C222.663 149.294 222.937 154.326 222.585 156.214C222.544 156.426 222.477 156.587 222.363 156.77L133.532 156.737L133.493 122.148L133.504 111.457C133.505 109.367 133.628 107.161 133.368 105.087C133.17 103.51 132.751 102.157 131.72 100.918C130.363 99.2888 128.573 98.6181 126.514 98.4361L126.521 42.0049Z" fill="#56A0F7"/>
<path d="M152.363 56.4493C153.189 56.6094 153.653 57.0825 154.111 57.7635C155.013 59.1038 155.457 60.9778 155.111 62.5679C155.092 62.6522 155.071 62.7359 155.048 62.8191C155.025 62.9022 155 62.9848 154.973 63.0667C154.946 63.1487 154.916 63.2299 154.885 63.3105C154.854 63.3909 154.821 63.4705 154.785 63.5492C154.75 63.6281 154.713 63.706 154.674 63.783C154.635 63.8598 154.594 63.9357 154.551 64.0106C154.508 64.0855 154.463 64.1592 154.416 64.2318C154.37 64.3044 154.321 64.3758 154.271 64.4459C154.221 64.5161 154.169 64.585 154.115 64.6525C154.061 64.72 154.006 64.7861 153.949 64.8509C153.892 64.9157 153.833 64.979 153.773 65.0408C153.712 65.1026 153.651 65.1629 153.587 65.2216C153.524 65.2804 153.459 65.3374 153.393 65.3928C153.327 65.4482 153.26 65.502 153.191 65.554C153.122 65.6061 153.052 65.6565 152.981 65.7051C152.909 65.7535 152.837 65.8002 152.763 65.8451C151.344 66.7189 149.652 66.8876 148.052 66.479C146.836 66.1685 145.12 65.2928 144.529 64.1068C144.451 63.9523 144.445 63.8449 144.434 63.675C144.621 63.7712 144.81 63.8636 145.002 63.9521C145.093 63.9952 145.186 64.036 145.28 64.0744C145.374 64.1128 145.469 64.1488 145.564 64.1826C145.66 64.2162 145.757 64.2474 145.854 64.2762C145.951 64.305 146.049 64.3313 146.148 64.3553C146.246 64.3792 146.345 64.4005 146.445 64.4194C146.545 64.4384 146.645 64.4548 146.745 64.4686C146.846 64.4825 146.947 64.4938 147.048 64.5027C147.149 64.5114 147.25 64.5176 147.351 64.5213C147.453 64.5252 147.554 64.5264 147.655 64.525C147.757 64.5236 147.858 64.5197 147.959 64.5133C148.061 64.5067 148.162 64.4977 148.263 64.4861C148.363 64.4746 148.464 64.4605 148.564 64.444C148.664 64.4275 148.763 64.4083 148.863 64.3867C148.962 64.3651 149.06 64.3411 149.158 64.3145C149.256 64.288 149.353 64.259 149.45 64.2276C149.546 64.1961 149.642 64.1623 149.736 64.126C149.815 64.096 149.893 64.0641 149.969 64.0304C150.046 63.9965 150.122 63.9608 150.197 63.9232C150.272 63.8856 150.347 63.8463 150.42 63.8051C150.493 63.7639 150.565 63.7209 150.636 63.676C150.707 63.6312 150.777 63.5848 150.846 63.5365C150.915 63.4883 150.982 63.4384 151.049 63.3867C151.115 63.3351 151.18 63.2819 151.243 63.2272C151.307 63.1724 151.369 63.116 151.43 63.0581C151.491 63.0002 151.55 62.9409 151.608 62.8801C151.666 62.8193 151.723 62.7571 151.778 62.6935C151.832 62.6299 151.886 62.5649 151.937 62.4986C151.989 62.4324 152.039 62.365 152.088 62.2962C152.136 62.2275 152.182 62.1577 152.227 62.0867C152.272 62.0157 152.315 61.9436 152.357 61.8705C152.398 61.7973 152.438 61.7231 152.475 61.6481C152.513 61.5729 152.549 61.497 152.583 61.4201C153.314 59.7404 153.018 58.0936 152.363 56.4493Z" fill="#317AEC"/>
<path d="M211.233 133.414C211.627 133.365 211.665 133.326 211.994 133.585C213.26 134.581 214.119 136.784 214.283 138.347C214.496 140.405 213.839 142.373 212.527 143.958C211.175 145.594 209.246 146.712 207.119 146.906C205.265 147.076 203.277 146.622 201.837 145.404C201.135 144.809 200.512 144.13 200.171 143.263C201.375 143.768 202.464 144.403 203.777 144.609C203.894 144.626 204.011 144.64 204.129 144.652C204.247 144.663 204.365 144.672 204.483 144.677C204.602 144.683 204.721 144.685 204.839 144.685C204.956 144.685 205.074 144.681 205.192 144.675C205.312 144.669 205.43 144.66 205.546 144.648C205.664 144.636 205.782 144.622 205.9 144.604C206.017 144.586 206.133 144.565 206.248 144.542C206.365 144.519 206.48 144.492 206.594 144.463C206.71 144.434 206.824 144.402 206.937 144.367C207.049 144.332 207.162 144.295 207.273 144.255C207.385 144.214 207.495 144.171 207.604 144.126C207.713 144.08 207.821 144.031 207.927 143.98C208.035 143.929 208.14 143.876 208.244 143.819C208.348 143.763 208.451 143.704 208.552 143.643C208.653 143.582 208.753 143.518 208.852 143.451C208.949 143.385 209.046 143.317 209.14 143.246C209.244 143.166 209.347 143.083 209.448 142.998C209.548 142.913 209.646 142.825 209.742 142.736C209.839 142.646 209.932 142.553 210.023 142.459C210.114 142.365 210.203 142.268 210.29 142.169C210.378 142.07 210.462 141.969 210.542 141.866C210.624 141.763 210.704 141.658 210.781 141.551C210.858 141.444 210.931 141.336 211.002 141.225C211.074 141.115 211.142 141.002 211.208 140.888C211.273 140.775 211.336 140.659 211.396 140.542C211.456 140.425 211.514 140.307 211.567 140.187C211.622 140.067 211.674 139.946 211.721 139.824C211.77 139.701 211.815 139.578 211.858 139.453C211.9 139.329 211.939 139.203 211.975 139.077C212.011 138.95 212.044 138.823 212.075 138.695C212.105 138.567 212.131 138.438 212.154 138.309C212.178 138.179 212.199 138.049 212.215 137.919C212.41 136.458 212.154 134.606 211.233 133.414Z" fill="#317AEC"/>
<path d="M144.434 63.675C144.105 63.1794 143.426 62.7479 143.024 62.2712C142.231 61.3304 141.989 59.9272 142.1 58.7287C142.233 57.2775 142.896 55.961 144.023 55.0305C145.156 54.0955 146.693 53.6082 148.157 53.7535C150.057 53.9418 151.233 55.0326 152.363 56.4493C153.018 58.0936 153.314 59.7404 152.583 61.4201C152.549 61.4969 152.513 61.5729 152.475 61.6481C152.438 61.7231 152.398 61.7972 152.357 61.8705C152.315 61.9436 152.272 62.0157 152.227 62.0867C152.183 62.1576 152.136 62.2275 152.088 62.2962C152.039 62.365 151.989 62.4324 151.938 62.4986C151.886 62.5649 151.832 62.6299 151.778 62.6935C151.723 62.7571 151.666 62.8193 151.608 62.8801C151.55 62.9409 151.491 63.0002 151.43 63.058C151.369 63.116 151.307 63.1724 151.243 63.2272C151.18 63.2819 151.115 63.3351 151.048 63.3866C150.982 63.4383 150.915 63.4883 150.846 63.5365C150.777 63.5847 150.707 63.6312 150.636 63.676C150.565 63.7209 150.493 63.7639 150.42 63.8051C150.347 63.8462 150.273 63.8856 150.197 63.9232C150.122 63.9608 150.046 63.9965 149.97 64.0303C149.893 64.0641 149.815 64.096 149.736 64.126C149.642 64.1623 149.546 64.1961 149.45 64.2275C149.353 64.259 149.256 64.2879 149.158 64.3145C149.06 64.341 148.962 64.3651 148.863 64.3866C148.764 64.4083 148.664 64.4274 148.564 64.444C148.464 64.4605 148.363 64.4746 148.263 64.4861C148.162 64.4976 148.061 64.5067 147.96 64.5132C147.858 64.5196 147.757 64.5236 147.655 64.525C147.554 64.5264 147.453 64.5252 147.351 64.5213C147.25 64.5176 147.149 64.5114 147.048 64.5026C146.947 64.4938 146.846 64.4824 146.745 64.4686C146.645 64.4547 146.545 64.4383 146.445 64.4193C146.346 64.4005 146.246 64.3791 146.148 64.3553C146.049 64.3313 145.951 64.3049 145.854 64.2762C145.757 64.2474 145.66 64.2161 145.565 64.1825C145.469 64.1488 145.374 64.1128 145.28 64.0744C145.186 64.0359 145.093 63.9951 145.002 63.952C144.811 63.8635 144.621 63.7712 144.434 63.675Z" fill="#FEFEFE"/>
<path d="M200.171 143.263C200.088 143.084 200.129 143.125 200.012 143.01C199.169 142.185 198.381 141.307 197.84 140.246C197.023 138.637 196.973 136.399 197.548 134.71C198.213 132.747 199.773 131.179 201.625 130.297C201.738 130.242 201.851 130.19 201.965 130.141C202.081 130.093 202.197 130.047 202.313 130.003C202.43 129.96 202.548 129.92 202.667 129.883C202.787 129.846 202.907 129.811 203.029 129.78C203.149 129.749 203.271 129.72 203.392 129.695C203.515 129.67 203.638 129.648 203.762 129.629C203.885 129.609 204.008 129.593 204.133 129.58C204.257 129.567 204.381 129.558 204.506 129.551C204.63 129.544 204.754 129.54 204.879 129.54C205.004 129.539 205.129 129.542 205.254 129.547C205.378 129.553 205.503 129.562 205.627 129.573C205.751 129.585 205.876 129.6 206 129.618C206.123 129.636 206.245 129.657 206.367 129.681C206.49 129.705 206.612 129.732 206.733 129.763C206.854 129.793 206.975 129.826 207.094 129.862C207.213 129.898 207.332 129.937 207.45 129.979C207.553 130.017 207.654 130.057 207.754 130.099C207.855 130.142 207.955 130.186 208.054 130.234C208.151 130.281 208.248 130.33 208.344 130.382C208.44 130.434 208.535 130.488 208.629 130.545C208.722 130.601 208.815 130.66 208.906 130.721C208.996 130.782 209.084 130.845 209.171 130.91C209.26 130.975 209.346 131.043 209.429 131.112C209.513 131.182 209.596 131.253 209.677 131.326C209.758 131.4 209.837 131.475 209.913 131.552C209.992 131.63 210.067 131.709 210.14 131.789C210.213 131.87 210.285 131.953 210.354 132.037C210.423 132.121 210.49 132.207 210.556 132.295C210.621 132.383 210.685 132.472 210.746 132.562C210.806 132.653 210.865 132.745 210.921 132.838C210.978 132.932 211.032 133.027 211.085 133.123C211.136 133.219 211.185 133.316 211.233 133.414C212.154 134.606 212.41 136.458 212.215 137.919C212.199 138.049 212.178 138.179 212.154 138.309C212.131 138.438 212.104 138.567 212.075 138.695C212.044 138.823 212.011 138.95 211.975 139.077C211.939 139.203 211.9 139.329 211.858 139.453C211.815 139.578 211.77 139.701 211.721 139.824C211.674 139.946 211.622 140.067 211.567 140.187C211.513 140.307 211.456 140.425 211.396 140.542C211.336 140.659 211.273 140.775 211.208 140.888C211.142 141.002 211.074 141.115 211.002 141.225C210.931 141.336 210.858 141.444 210.781 141.551C210.704 141.658 210.624 141.763 210.542 141.866C210.462 141.969 210.378 142.07 210.29 142.169C210.203 142.268 210.114 142.365 210.023 142.459C209.932 142.554 209.838 142.646 209.742 142.736C209.646 142.825 209.548 142.913 209.448 142.998C209.347 143.083 209.244 143.166 209.14 143.246C209.046 143.317 208.949 143.385 208.852 143.451C208.753 143.518 208.653 143.582 208.552 143.643C208.451 143.704 208.348 143.763 208.244 143.819C208.14 143.876 208.035 143.929 207.927 143.98C207.82 144.031 207.713 144.08 207.604 144.126C207.495 144.171 207.385 144.214 207.273 144.255C207.162 144.295 207.049 144.332 206.937 144.367C206.824 144.402 206.71 144.434 206.594 144.463C206.48 144.492 206.365 144.519 206.248 144.542C206.133 144.566 206.017 144.586 205.9 144.604C205.782 144.622 205.664 144.636 205.546 144.648C205.429 144.66 205.312 144.669 205.192 144.675C205.074 144.682 204.956 144.685 204.838 144.685C204.721 144.685 204.602 144.683 204.483 144.677C204.365 144.672 204.247 144.663 204.129 144.652C204.011 144.64 203.894 144.626 203.777 144.609C202.463 144.404 201.375 143.768 200.171 143.263Z" fill="#FEFEFE"/>
<path d="M173.239 97.816L181.98 106.593L190.723 97.816V107.848L186.976 111.61L181.98 116.627L173.239 107.848V97.816ZM158.252 107.848L174.487 124.151L179.484 119.134L158.252 97.816V107.848Z" fill="white"/>
<path d="M157.91 79.0052H162.918V79.9865H158.929V82.9496H162.528V83.9214H158.929V87.6752H157.91V79.0052Z" fill="white"/>
<path d="M164.128 79.0052H165.156V87.6657H164.128V79.0052Z" fill="white"/>
<path d="M167.222 87.2085C166.832 86.7702 166.632 86.1604 166.632 85.3792V81.4919H167.66V85.2172C167.66 85.8079 167.794 86.2367 168.06 86.513C168.327 86.7893 168.689 86.9226 169.136 86.9226C169.479 86.9226 169.793 86.8274 170.06 86.6464C170.326 86.4653 170.536 86.2176 170.688 85.9223C170.84 85.6269 170.907 85.3125 170.907 84.979V81.4919H171.945V87.6658H170.964V86.7702H170.917C170.745 87.0751 170.479 87.3323 170.107 87.5419C169.736 87.7516 169.346 87.8563 168.927 87.8563C168.174 87.8659 167.613 87.6468 167.222 87.2085Z" fill="white"/>
<path d="M175.201 87.7419C174.992 87.6562 174.811 87.5514 174.658 87.4085C174.497 87.256 174.373 87.075 174.297 86.8654C174.221 86.6558 174.173 86.4081 174.173 86.1128V82.4256H173.097V81.4919H174.173V79.7484H175.201V81.4919H176.706V82.4256H175.211V85.865C175.211 86.208 175.277 86.4653 175.401 86.6272C175.554 86.8082 175.773 86.9035 176.068 86.9035C176.306 86.9035 176.525 86.8368 176.744 86.6939V87.6943C176.62 87.7515 176.496 87.7896 176.372 87.8182C176.248 87.8468 176.087 87.8563 175.896 87.8563C175.649 87.8658 175.411 87.8182 175.201 87.7419Z" fill="white"/>
<path d="M179.562 87.7419C179.353 87.6562 179.172 87.5514 179.019 87.4085C178.857 87.256 178.734 87.075 178.657 86.8654C178.581 86.6558 178.534 86.4081 178.534 86.1128V82.4256H177.467V81.4919H178.543V79.7484H179.572V81.4919H181.066V82.4256H179.572V85.865C179.572 86.208 179.638 86.4653 179.762 86.6272C179.914 86.8082 180.133 86.9035 180.429 86.9035C180.666 86.9035 180.886 86.8368 181.104 86.6939V87.6943C180.981 87.7515 180.857 87.7896 180.733 87.8182C180.609 87.8468 180.447 87.8563 180.257 87.8563C180.01 87.8658 179.781 87.8182 179.562 87.7419Z" fill="white"/>
<path d="M183.209 87.4372C182.742 87.1513 182.381 86.7702 182.114 86.2653C181.847 85.7699 181.724 85.2078 181.724 84.5885C181.724 83.9882 181.847 83.4451 182.095 82.9402C182.342 82.4448 182.685 82.0446 183.142 81.7397C183.59 81.4444 184.113 81.2919 184.713 81.2919C185.313 81.2919 185.846 81.4253 186.284 81.7016C186.732 81.9684 187.065 82.3495 187.303 82.8163C187.541 83.2927 187.656 83.8358 187.656 84.4455C187.656 84.5694 187.646 84.6742 187.617 84.76H182.742C182.771 85.2268 182.875 85.627 183.085 85.9414C183.285 86.2653 183.542 86.5035 183.856 86.6654C184.171 86.8274 184.494 86.9036 184.827 86.9036C185.618 86.9036 186.227 86.5321 186.656 85.7889L187.522 86.2081C187.256 86.7035 186.894 87.1037 186.437 87.3896C185.98 87.6754 185.427 87.8278 184.79 87.8278C184.208 87.8659 183.675 87.723 183.209 87.4372ZM186.57 83.931C186.551 83.6738 186.484 83.4166 186.351 83.1593C186.218 82.9021 186.018 82.6829 185.741 82.5019C185.466 82.3209 185.113 82.2351 184.694 82.2351C184.208 82.2351 183.799 82.3876 183.466 82.702C183.133 83.0164 182.914 83.4261 182.809 83.931H186.57Z" fill="white"/>
<path d="M188.855 81.5015H189.836V82.4924H189.883C190.007 82.1493 190.236 81.873 190.588 81.6444C190.931 81.4157 191.293 81.3014 191.673 81.3014C191.959 81.3014 192.197 81.349 192.397 81.4348V82.54C192.14 82.4066 191.845 82.3494 191.53 82.3494C191.235 82.3494 190.959 82.4352 190.712 82.6067C190.464 82.7782 190.264 83.0068 190.112 83.2927C189.96 83.5785 189.893 83.8929 189.893 84.2168V87.6753H188.864V81.5015H188.855Z" fill="white"/>
<path d="M241.22 155.801C239.69 155.161 238.202 153.977 237.048 152.8C236.85 152.599 236.656 152.394 236.468 152.184C236.28 151.974 236.097 151.759 235.92 151.54C235.742 151.32 235.57 151.097 235.404 150.869C235.237 150.642 235.076 150.41 234.921 150.175C234.766 149.939 234.617 149.7 234.473 149.457C234.33 149.214 234.192 148.968 234.061 148.718C233.93 148.468 233.805 148.216 233.686 147.96C233.567 147.704 233.454 147.446 233.348 147.184C233.242 146.923 233.142 146.659 233.049 146.393C232.956 146.127 232.869 145.858 232.789 145.588C232.709 145.317 232.635 145.045 232.569 144.771C232.502 144.497 232.442 144.221 232.389 143.944C232.336 143.667 232.289 143.389 232.25 143.109C232.21 142.83 232.178 142.55 232.152 142.269C232.126 141.988 232.107 141.707 232.096 141.425C232.084 141.143 232.079 140.861 232.08 140.579C232.138 135.873 233.84 131.723 237.243 128.451C241.043 124.797 245.821 124.042 250.893 124.163C254.457 124.859 258.018 126.619 260.543 129.275C263.612 132.38 265.171 136.685 265.137 141.018C265.133 141.291 265.123 141.564 265.106 141.836C265.089 142.109 265.065 142.38 265.035 142.652C265.005 142.923 264.969 143.193 264.926 143.463C264.883 143.732 264.833 144 264.777 144.267C264.721 144.534 264.658 144.8 264.589 145.064C264.52 145.328 264.445 145.59 264.363 145.851C264.282 146.111 264.194 146.369 264.1 146.625C264.006 146.882 263.905 147.135 263.799 147.386C263.693 147.638 263.58 147.886 263.462 148.132C263.343 148.378 263.219 148.621 263.089 148.86C262.959 149.1 262.823 149.337 262.681 149.57C262.54 149.803 262.393 150.033 262.24 150.259C262.087 150.485 261.929 150.707 261.765 150.926C261.602 151.144 261.434 151.358 261.26 151.569C261.086 151.779 260.907 151.985 260.723 152.186C260.539 152.388 260.351 152.585 260.158 152.777C258.392 154.502 256.062 155.95 253.717 156.734C253.412 156.844 253.107 156.939 252.794 157.024C248.809 158.108 244.836 157.882 241.22 155.801Z" fill="#F69820"/>
<path d="M255.2 132.807L256.434 133.969C254.368 136.248 252.104 138.37 249.978 140.597C252.174 142.622 254.082 144.933 256.206 147.028L255.035 148.184C252.964 146.115 250.6 144.025 248.811 141.709C247.921 142.577 242.499 148.235 242.03 148.367C241.714 147.985 241.456 147.543 241.184 147.128C243.268 144.877 245.37 142.644 247.493 140.429C245.327 138.551 243.324 136.33 241.358 134.242C241.644 133.749 242.033 133.306 242.386 132.86C244.66 134.826 246.689 137.119 248.742 139.311C250.953 137.222 253.037 134.952 255.2 132.807Z" fill="#FEFEFE"/>
<path d="M258.341 129.962C259.071 129.7 259.788 129.454 260.543 129.275C263.612 132.38 265.172 136.685 265.137 141.018C265.133 141.291 265.123 141.564 265.106 141.836C265.089 142.109 265.066 142.38 265.036 142.652C265.006 142.923 264.969 143.193 264.926 143.463C264.883 143.732 264.833 144 264.777 144.267C264.721 144.534 264.658 144.8 264.589 145.064C264.52 145.328 264.445 145.59 264.364 145.851C264.282 146.111 264.194 146.369 264.1 146.625C264.006 146.881 263.906 147.135 263.799 147.386C263.693 147.638 263.58 147.886 263.462 148.132C263.344 148.378 263.219 148.621 263.089 148.86C262.959 149.1 262.823 149.337 262.682 149.57C262.54 149.803 262.393 150.033 262.24 150.259C262.087 150.485 261.929 150.707 261.766 150.925C261.602 151.144 261.434 151.358 261.26 151.569C261.086 151.779 260.907 151.985 260.723 152.186C260.54 152.388 260.351 152.585 260.158 152.777C258.392 154.501 256.062 155.949 253.717 156.734C253.412 156.844 253.107 156.939 252.795 157.024C248.809 158.108 244.836 157.882 241.22 155.801C240.305 154.11 239.033 152.691 238.235 150.902L239.827 151.8C242.717 153.449 246.457 154.09 249.741 153.581C253.233 153.039 256.48 151.198 258.571 148.327C258.727 148.11 258.878 147.888 259.022 147.663C259.167 147.438 259.307 147.21 259.44 146.977C259.573 146.746 259.701 146.51 259.823 146.272C259.945 146.033 260.06 145.792 260.17 145.548C260.28 145.304 260.383 145.057 260.481 144.808C260.578 144.559 260.669 144.307 260.755 144.053C260.839 143.799 260.918 143.543 260.99 143.286C261.062 143.028 261.128 142.769 261.187 142.507C261.247 142.246 261.299 141.984 261.346 141.72C261.392 141.457 261.432 141.192 261.465 140.926C261.498 140.661 261.524 140.394 261.544 140.127C261.564 139.86 261.577 139.593 261.583 139.326C261.59 139.058 261.59 138.79 261.583 138.523C261.576 138.255 261.563 137.988 261.542 137.721C261.522 137.454 261.496 137.187 261.462 136.922C261.429 136.656 261.389 136.392 261.342 136.128C260.957 133.828 260.338 131.375 258.341 129.962Z" fill="#255EEF"/>
<path d="M241.22 155.801C239.69 155.161 238.202 153.977 237.048 152.8C236.85 152.599 236.656 152.394 236.468 152.184C236.28 151.973 236.097 151.759 235.92 151.54C235.742 151.32 235.57 151.097 235.404 150.869C235.237 150.642 235.076 150.41 234.921 150.175C234.766 149.939 234.617 149.7 234.473 149.457C234.33 149.214 234.192 148.968 234.061 148.718C233.93 148.468 233.805 148.216 233.686 147.96C233.567 147.704 233.454 147.446 233.348 147.184C233.242 146.923 233.142 146.659 233.049 146.393C232.956 146.127 232.869 145.858 232.789 145.588C232.709 145.317 232.635 145.045 232.569 144.771C232.502 144.497 232.442 144.221 232.389 143.944C232.336 143.667 232.289 143.389 232.25 143.109C232.21 142.83 232.178 142.55 232.152 142.269C232.126 141.988 232.107 141.707 232.096 141.425C232.084 141.143 232.079 140.861 232.08 140.579C232.138 135.873 233.84 131.723 237.243 128.451C241.043 124.797 245.821 124.042 250.893 124.163C254.457 124.859 258.018 126.619 260.543 129.275C259.787 129.454 259.071 129.7 258.341 129.962C257.116 130.613 256.148 131.81 255.2 132.807C253.037 134.952 250.953 137.222 248.742 139.311C246.688 137.119 244.66 134.826 242.386 132.86C242.033 133.306 241.644 133.748 241.358 134.242C243.323 136.33 245.327 138.551 247.493 140.429C245.37 142.644 243.267 144.877 241.184 147.128C241.455 147.543 241.714 147.985 242.03 148.367C240.81 148.905 240.497 150.748 239.827 151.8L238.235 150.902C239.033 152.691 240.304 154.11 241.22 155.801Z" fill="#FBC06E"/>
<path d="M298.643 67.0124C298.805 66.9938 298.963 66.9996 299.125 67.0074C300.442 67.0701 301.536 67.5882 302.418 68.5719C302.474 68.6352 302.529 68.6998 302.582 68.7657C302.635 68.8317 302.686 68.8989 302.736 68.9675C302.786 69.036 302.834 69.1057 302.88 69.1766C302.927 69.2474 302.971 69.3194 303.014 69.3924C303.057 69.4655 303.098 69.5396 303.137 69.6146C303.176 69.6898 303.214 69.7658 303.249 69.8426C303.284 69.9196 303.318 69.9973 303.349 70.0759C303.381 70.1545 303.411 70.2338 303.438 70.3139C303.466 70.3939 303.492 70.4746 303.515 70.5559C303.539 70.6371 303.561 70.7189 303.58 70.8013C303.6 70.8837 303.618 70.9666 303.633 71.0498C303.649 71.1331 303.662 71.2166 303.674 71.3005C303.685 71.3844 303.695 71.4686 303.702 71.5529C303.71 71.6373 303.715 71.7218 303.718 71.8064C303.721 71.8911 303.722 71.9758 303.721 72.0605C303.72 72.1452 303.717 72.2297 303.712 72.3143C303.575 74.6825 300.858 78.7311 299.1 80.3084C299 80.2834 299.023 80.2997 298.946 80.2432C298.411 79.8513 297.971 79.2779 297.55 78.7696C296.054 76.961 294.338 74.6816 294.038 72.2991C293.888 71.1067 294.182 69.7839 294.926 68.8299C295.883 67.6023 297.155 67.2 298.643 67.0124Z" fill="#FBC06E"/>
<path d="M298.492 69.6594C298.919 69.6212 299.277 69.6172 299.68 69.7866C299.744 69.8133 299.807 69.8432 299.868 69.8763C299.929 69.9094 299.988 69.9455 300.046 69.9847C300.103 70.0238 300.159 70.0657 300.212 70.1105C300.265 70.1551 300.316 70.2024 300.364 70.2524C300.413 70.3023 300.459 70.3545 300.502 70.409C300.545 70.4636 300.585 70.5202 300.622 70.5788C300.66 70.6374 300.694 70.6978 300.726 70.76C300.757 70.822 300.785 70.8855 300.81 70.9505C301.018 71.4902 300.987 72.1307 300.725 72.6464C300.451 73.1864 300.05 73.4537 299.492 73.649C299.06 73.6857 298.603 73.7043 298.189 73.557C297.672 73.3736 297.251 73.0022 297.041 72.4912C296.836 71.9916 296.852 71.3885 297.063 70.8937C297.34 70.2437 297.86 69.9113 298.492 69.6594Z" fill="#FEFEFE"/>
<path d="M308.353 120.314C311 119 319.099 115.261 319.5 115.5L317 117.5L312.5 119.5C310 121 305.07 123.554 303.082 124.656C300.481 126.082 297.902 127.548 295.347 129.054C292.035 131.003 288.778 133.045 285.473 135.008C284.062 135.845 282.605 136.858 281.103 137.505L279.5 138.5C278.549 137.453 280 137 280.196 136.486C280.595 136.281 281 136.5 281.111 136.281C282.559 134.868 284.814 133.812 286.556 132.768C292.043 129.485 297.597 126.32 303.219 123.273C304.582 122.52 306.5 121.5 308.353 120.314Z" fill="#1A2770"/>
<path d="M48.4998 171.5C49.5111 170.599 67.3066 163.205 75.4762 162.58L76.2555 163.205C73.0346 164.297 69.7484 165.237 66.4958 166.234C63.6131 167.117 50.4548 172.389 47.5 173L48.4998 171.5Z" fill="#1A2770"/>
<path d="M275.748 161.55C277.101 161.484 295.593 166.905 302.343 171.549L302.557 172.525C299.365 171.352 296.217 170.02 293.06 168.753C290.262 167.63 276.711 163.47 274.028 162.089L275.748 161.55Z" fill="#1A2770"/>
</g>
<defs>
<linearGradient id="paint0_linear_320_2347" x1="252.416" y1="30.1812" x2="243.172" y2="16.77" gradientUnits="userSpaceOnUse">
<stop stop-color="#FED16B"/>
<stop offset="1" stop-color="#9DD82F"/>
</linearGradient>
<linearGradient id="paint1_linear_320_2347" x1="111.695" y1="42.4302" x2="81.1278" y2="25.4053" gradientUnits="userSpaceOnUse">
<stop stop-color="#2890E8"/>
<stop offset="1" stop-color="#61D3EC"/>
</linearGradient>
<linearGradient id="paint2_linear_320_2347" x1="76.5166" y1="89.8392" x2="59.6161" y2="61.6836" gradientUnits="userSpaceOnUse">
<stop stop-color="#A447AB"/>
<stop offset="1" stop-color="#D070DB"/>
</linearGradient>
<linearGradient id="paint3_linear_320_2347" x1="272.757" y1="91.6788" x2="256.889" y2="61.7779" gradientUnits="userSpaceOnUse">
<stop stop-color="#7B349A"/>
<stop offset="1" stop-color="#AB49C3"/>
</linearGradient>
<linearGradient id="paint4_linear_320_2347" x1="272.219" y1="88.0827" x2="257.515" y2="65.3434" gradientUnits="userSpaceOnUse">
<stop stop-color="#B658CF"/>
<stop offset="1" stop-color="#C976EC"/>
</linearGradient>
<linearGradient id="paint5_linear_320_2347" x1="285.194" y1="90.6234" x2="247.434" y2="62.2816" gradientUnits="userSpaceOnUse">
<stop stop-color="#9B46C3"/>
<stop offset="1" stop-color="#DA86EA"/>
</linearGradient>
<clipPath id="clip0_320_2347">
<rect width="350" height="197" rx="24" fill="white"/>
</clipPath>
</defs>
</svg>
