<svg width="22" height="29" viewBox="0 0 22 29" fill="none" xmlns="http://www.w3.org/2000/svg">
<g clip-path="url(#clip0_320_3046)">
<path d="M7.00187 23.0601C7.00187 23.0601 5.8568 23.7292 7.81678 23.9556C10.1912 24.2278 11.4048 24.1888 14.0215 23.6912C14.0215 23.6912 14.7094 24.1246 15.6702 24.5C9.80431 27.0261 2.39452 24.3537 7.00187 23.0601ZM6.28509 19.7638C6.28509 19.7638 5.00078 20.719 6.96222 20.9228C9.49869 21.1858 11.5018 21.2073 14.968 20.5366C14.968 20.5366 15.4474 21.025 16.2012 21.2921C9.10901 23.3759 1.20955 21.4564 6.28509 19.7638Z" fill="#3E3E3E"/>
<path d="M12.3495 14.294C13.7731 15.9426 11.9754 17.4261 11.9754 17.4261C11.9754 17.4261 15.5902 15.5492 13.9301 13.1988C12.3796 11.0069 11.1906 9.91784 17.6274 6.1629C17.6274 6.1629 7.5237 8.70108 12.3495 14.294Z" fill="#3E3E3E"/>
<path d="M20.0078 25.5444C20.0078 25.5444 20.8471 26.2424 19.0836 26.7824C15.7301 27.8078 5.12623 28.1175 2.18051 26.8232C1.1216 26.3582 3.10736 25.7129 3.732 25.5775C4.38344 25.435 4.75572 25.4615 4.75572 25.4615C3.5781 24.6241 -2.85591 27.1058 1.48756 27.8165C13.3328 29.7555 23.0803 26.9433 20.0078 25.5444ZM7.59457 16.4404C7.59457 16.4404 2.20075 17.7336 5.68448 18.2032C7.15542 18.402 10.0877 18.357 12.819 18.126C15.0513 17.936 17.2927 17.5318 17.2927 17.5318C17.2927 17.5318 16.5056 17.8721 15.9361 18.2646C10.4588 19.7187 -0.122404 19.0422 2.92378 17.5549C5.49995 16.2979 7.59457 16.4404 7.59457 16.4404ZM17.2704 21.8998C22.8384 18.9792 20.264 16.1726 18.4671 16.5507C18.0266 16.6433 17.8303 16.7235 17.8303 16.7235C17.8303 16.7235 17.9938 16.4649 18.3061 16.353C21.8609 15.0915 24.5948 20.0737 17.1585 22.047C17.1585 22.0471 17.2447 21.9693 17.2704 21.8998Z" fill="#3E3E3E"/>
<path d="M13.8636 0C13.8636 0 16.9449 3.10026 10.9411 7.86759C6.12669 11.6918 9.84328 13.8723 10.9391 16.3635C8.12886 13.8133 6.0665 11.5682 7.45009 9.47878C9.48088 6.41164 15.1068 4.92458 13.8636 0Z" fill="#3E3E3E"/>
</g>
<defs>
<clipPath id="clip0_320_3046">
<rect width="21.875" height="28.4768" fill="white"/>
</clipPath>
</defs>
</svg>
