<svg width="350" height="197" viewBox="0 0 350 197" fill="none" xmlns="http://www.w3.org/2000/svg">
<g clip-path="url(#clip0_320_2442)">
<path d="M0.000183105 0H349.7C350.111 0.645979 349.998 1.5819 350 2.32452V142.813L350.002 181.6L350 191.886C349.998 193.299 350.188 195.03 349.952 196.404C349.915 196.619 349.817 196.817 349.7 197H0.000183105V0Z" fill="#C6E5F0"/>
<path d="M176.663 54.2183C176.888 54.2237 177.1 54.2389 177.322 54.2831C177.914 54.4009 178.402 54.6637 178.73 55.1935C178.988 55.6096 179.039 56.0617 178.929 56.535C178.741 57.343 178.254 57.6656 177.596 58.0686C177.303 58.0506 176.997 58.0342 176.711 57.9659C176.19 57.8418 175.759 57.4934 175.483 57.0392C175.227 56.6204 175.154 56.175 175.286 55.7C175.499 54.9345 176.027 54.5992 176.663 54.2183Z" fill="#F4DAEF"/>
<path d="M136.688 37.2392C136.246 36.9419 135.77 36.6416 135.509 36.1605C135.141 35.486 135.283 34.4034 135.51 33.6987C135.831 32.6976 136.555 31.6291 137.545 31.1907C138.308 30.8523 139.152 31.1766 139.874 31.4636C138.41 32.9225 137.047 34.8311 136.782 36.9302C136.758 37.1226 136.775 37.0422 136.688 37.2392Z" fill="#56A0F7"/>
<path d="M320.725 111.41L321.217 111.505C321.721 111.984 321.863 112.609 321.921 113.274C322.608 113.552 323.656 113.849 324.067 114.498L323.99 114.833C323.483 115.314 322.642 115.465 321.983 115.66C322.06 115.904 322.011 116.149 321.967 116.396C321.869 116.945 321.598 117.425 321.136 117.739C320.511 117.176 320.49 116.262 319.888 115.652C319.769 115.546 319.827 115.58 319.685 115.518C319.15 115.288 318.406 114.956 318.017 114.52C318.35 114.274 318.669 114.026 319.05 113.858C319.283 113.756 319.485 113.646 319.698 113.508L319.777 113.456C320.323 112.979 320.546 112.091 320.725 111.41Z" fill="#F16F97"/>
<path d="M289.938 69.5947C290.606 68.7338 291.202 67.9594 292.346 67.7997C292.902 67.722 293.427 67.8269 293.873 68.1814C294.417 68.6143 294.737 69.3221 294.775 70.0096C294.812 70.6189 294.644 71.2519 294.229 71.7101C293.777 72.2074 293.188 72.4167 292.527 72.4223C291.977 72.4267 291.356 72.1607 290.848 71.9691C290.544 71.1461 290.171 70.4658 289.938 69.5947Z" fill="#1A2770"/>
<path d="M267.877 110.898L268.265 111.027C268.677 111.592 269.067 112.541 269.065 113.24C269.804 113.518 271.035 114.005 271.521 114.638C271.017 115.232 269.819 115.592 269.104 115.895C269.138 116.251 268.971 116.65 268.837 116.977C268.619 117.502 268.408 118.065 267.85 118.297C267.865 118.209 267.873 118.19 267.862 118.087C267.787 117.398 267.219 116.291 266.706 115.828C266.108 115.271 264.66 114.852 263.883 114.607C264.827 114.337 266.071 113.863 266.846 113.258C267.235 112.495 267.673 111.735 267.877 110.898Z" fill="#0A99F3"/>
<path d="M299.89 106.965C300.588 106.888 301.26 106.787 301.921 107.091C302.003 107.13 302.083 107.173 302.162 107.22C302.24 107.267 302.315 107.318 302.388 107.372C302.462 107.427 302.532 107.485 302.6 107.547C302.667 107.608 302.73 107.673 302.79 107.741C302.851 107.81 302.908 107.881 302.962 107.955C303.014 108.029 303.063 108.105 303.11 108.184C303.154 108.263 303.196 108.344 303.235 108.428C303.272 108.511 303.304 108.596 303.333 108.682C303.36 108.763 303.382 108.845 303.4 108.928C303.419 109.011 303.433 109.095 303.442 109.18C303.453 109.264 303.458 109.349 303.46 109.434C303.461 109.519 303.458 109.604 303.45 109.689C303.441 109.774 303.428 109.858 303.412 109.942C303.396 110.025 303.376 110.108 303.35 110.189C303.324 110.27 303.295 110.35 303.261 110.429C303.228 110.507 303.191 110.583 303.15 110.658C302.75 111.383 302.088 111.782 301.315 111.994C301.029 112.153 300.7 112.108 300.387 112.065C299.721 111.974 299.15 111.656 298.76 111.099C298.313 110.459 298.173 109.594 298.325 108.832C298.515 107.876 299.137 107.465 299.89 106.965Z" fill="#F9E2DE"/>
<path d="M272.158 39.8587C272.567 39.238 272.775 38.5447 273.071 37.8692C274.435 34.7469 276.504 32.2415 279.725 30.9835C279.617 31.7099 278.385 32.9529 277.99 33.6724C277.235 35.0487 276.098 39.1982 275.446 39.8954C274.348 39.9248 273.252 39.9791 272.158 39.8587Z" fill="#0A99F3"/>
<path d="M272.204 52.3531L275.64 52.3299C276.227 53.0621 276.456 54.1271 276.76 55.0126C277.806 58.079 279.115 60.6951 281.567 62.8948C281.058 63.0381 280.558 62.8909 280.05 62.7947L280.431 62.5746L280.415 62.3821C277.563 60.6121 275.527 57.9636 273.9 55.0794C273.4 54.1941 272.948 53.0515 272.204 52.3531Z" fill="#0A99F3"/>
<path d="M280.962 29.9315C280.944 29.994 280.933 30.0579 280.912 30.1189C280.748 30.5787 280.131 30.7982 279.725 30.9834C276.504 32.2414 274.435 34.7468 273.071 37.8692C272.775 38.5447 272.567 39.238 272.158 39.8586C270.885 40.046 269.387 39.8908 268.088 39.8877C269.01 39.2265 269.527 37.9185 270.167 36.9917C272.925 32.999 276.435 31.2547 280.962 29.9315Z" fill="#2E57D6"/>
<path d="M183.397 36.6203C183.892 36.6054 184.465 36.6539 184.936 36.8209C185.706 37.0945 186.352 37.7024 186.687 38.4454C187.018 39.1801 186.995 39.9964 186.71 40.7405C186.299 41.8084 185.534 42.2807 184.524 42.7122C184.146 42.7282 183.713 42.6944 183.348 42.5876C182.537 42.3508 181.771 41.8471 181.376 41.0814C181.005 40.3623 180.975 39.5437 181.228 38.7817C181.601 37.6574 182.385 37.1339 183.397 36.6203Z" fill="#F4DAEF"/>
<path d="M36.1247 104.346C36.6901 104.323 37.3616 104.424 37.8759 104.67C38.573 105.003 39.1317 105.642 39.388 106.369C39.4241 106.469 39.455 106.571 39.4807 106.674C39.5063 106.778 39.5266 106.882 39.5415 106.987C39.5563 107.093 39.5658 107.199 39.5697 107.305C39.5737 107.411 39.5722 107.518 39.5651 107.624C39.5582 107.73 39.5458 107.836 39.5278 107.941C39.51 108.046 39.4868 108.149 39.4582 108.252C39.4297 108.354 39.396 108.455 39.357 108.554C39.3181 108.653 39.2741 108.75 39.2253 108.844C38.7447 109.777 38.0542 110.156 37.0949 110.479C36.4653 110.504 35.8684 110.529 35.2809 110.255C34.5211 109.9 33.9032 109.231 33.6415 108.431C33.6083 108.331 33.5802 108.229 33.5574 108.127C33.5345 108.024 33.5168 107.92 33.5043 107.816C33.4919 107.711 33.4848 107.606 33.483 107.501C33.4812 107.396 33.4847 107.291 33.4936 107.186C33.5024 107.081 33.5165 106.977 33.5359 106.873C33.5554 106.77 33.5799 106.668 33.6095 106.567C33.6393 106.466 33.674 106.366 33.7138 106.269C33.7536 106.172 33.7983 106.076 33.8476 105.983C34.3542 105.02 35.1322 104.67 36.1247 104.346Z" fill="#F4DAEF"/>
<path d="M139.12 38.6499L140.881 39.7963C140.528 41.5378 140.57 43.1118 141.024 44.8271C139.69 45.6825 138.159 46.4945 137.013 47.5884C137.597 49.256 138.31 51.0811 139.154 52.6334C138.677 52.675 138.247 52.6544 137.819 52.412C136.594 51.7181 135.783 50.2773 135.429 48.9562C135.168 47.9785 135.348 47.4945 135.835 46.6405C125.374 46.6232 114.871 46.8356 104.417 46.5666C114.928 46.4041 125.461 46.5316 135.973 46.5715L137.387 45.3481C137.807 45.2896 138.156 45.1444 138.545 44.9856C138.604 44.8929 138.683 44.8102 138.721 44.7071C138.877 44.2898 138.702 43.0051 138.7 42.5066C138.693 41.1441 138.84 39.9793 139.12 38.6499Z" fill="#56A0F7"/>
<path d="M84.4499 82.534C85.0563 83.7341 85.2543 85.0977 85.9142 86.3079C87.4038 87.3224 88.8015 87.7708 90.5263 88.2412C89.4347 88.6046 88.2007 88.9347 87.1924 89.4825C85.3676 90.474 84.9955 92.4392 84.4597 94.2764C84.122 93.2251 83.8267 92.0544 83.2845 91.089C82.1778 89.1185 80.2455 88.7851 78.2297 88.2018C79.9544 87.9447 81.4068 87.4376 82.8857 86.5105C83.6659 85.3206 84.0413 83.8822 84.4499 82.534Z" fill="#FBC06E"/>
<path d="M193.71 16.5471C194.281 17.115 194.602 19.0769 194.965 19.9085C195.831 21.9003 197.617 21.8605 199.36 22.5607C199.394 22.5746 199.429 22.5892 199.463 22.6034C198.881 23.0921 197.604 23.4403 196.873 23.8453C194.796 24.9955 194.575 26.7506 193.96 28.8892C193.502 28.6556 192.867 26.0731 192.619 25.4638C191.949 23.8095 189.639 23.1673 188.147 22.544C189.095 22.3697 190.303 22.0736 191.133 21.5817C192.967 20.493 193.24 18.4537 193.71 16.5471Z" fill="#FBC06E"/>
<path d="M267.785 52.3185C269.258 52.3015 270.731 52.313 272.204 52.3531C272.948 53.0515 273.4 54.194 273.9 55.0794C275.527 57.9636 277.563 60.6121 280.415 62.3821L280.431 62.5746L280.05 62.7947C276.487 62.2466 272.162 59.0654 270.188 56.1127C269.429 54.9751 268.871 53.3143 267.879 52.4003C267.848 52.372 267.815 52.3456 267.785 52.3185Z" fill="#2E57D6"/>
<path d="M268.731 40.5907L275.256 40.5955C275.744 41.6934 275.088 45.0678 275.065 46.461C275.04 47.9335 275.837 50.6288 275.631 51.6246C273.627 51.625 271.59 51.6944 269.59 51.6065C270.388 51.5115 271.231 51.5586 272.035 51.5547C272.413 50.2654 271.296 47.784 271.237 46.3439C271.171 44.7988 272.063 42.0112 271.656 40.7199C270.673 40.7294 269.704 40.7557 268.731 40.5907Z" fill="#0A99F3"/>
<path d="M267.781 51.6121C267.733 50.8377 267.465 50.038 267.352 49.2631C267.027 47.0374 267.002 42.4348 268.337 40.637L268.731 40.5907C269.704 40.7557 270.673 40.7294 271.656 40.7199C272.063 42.0112 271.171 44.7988 271.237 46.3439C271.296 47.784 272.413 50.2654 272.035 51.5547C271.231 51.5586 270.388 51.5115 269.59 51.6065L267.781 51.6121Z" fill="#2E57D6"/>
<path d="M95.6434 45.2421C106.175 45.5709 116.799 45.2906 127.341 45.3087C130.676 45.3142 134.058 45.2071 137.387 45.3481L135.973 46.5715C125.461 46.5316 114.928 46.4041 104.417 46.5667L95.3715 46.5488L95.3682 46.4249C95.359 45.9593 95.3149 45.5855 95.6434 45.2421Z" fill="#1A2770"/>
<path d="M285.94 30.0113C286.198 29.9911 286.456 29.988 286.712 30.0275C290.877 30.6695 294.935 33.505 297.373 36.8861C297.829 37.52 298.788 38.9617 298.652 39.7594C297.758 40.1711 292.712 39.8919 291.385 39.8844C291.658 39.257 291.117 37.844 290.904 37.191C290.092 34.7126 288.333 31.2291 285.94 30.0113Z" fill="#0A99F3"/>
<path d="M47.3674 91.6898C48.2311 91.6221 48.982 91.5919 49.7901 91.949C49.8576 91.9789 49.9242 92.0104 49.9901 92.0436C50.0559 92.0768 50.1208 92.1117 50.1849 92.1483C50.249 92.1848 50.3122 92.223 50.3744 92.2628C50.4365 92.3025 50.4976 92.3437 50.5576 92.3865C50.6177 92.4293 50.6767 92.4736 50.7345 92.5194C50.7925 92.5652 50.8492 92.6124 50.9045 92.661C50.9601 92.7097 51.0143 92.7597 51.0672 92.811C51.1202 92.8625 51.1718 92.9152 51.222 92.9692C51.2723 93.0232 51.3212 93.0784 51.3688 93.1348C51.4162 93.1914 51.4622 93.249 51.5069 93.3078C51.5515 93.3665 51.5945 93.4264 51.6361 93.4875C51.6776 93.5484 51.7176 93.6103 51.7561 93.6733C51.7945 93.7363 51.8314 93.8002 51.8667 93.8651C51.9018 93.93 51.9353 93.9957 51.9672 94.0621C51.9992 94.1287 52.0294 94.196 52.0578 94.2641C52.0864 94.3322 52.1132 94.401 52.1382 94.4703C52.1619 94.5336 52.184 94.5974 52.2044 94.6618C52.2249 94.7262 52.2437 94.791 52.2609 94.8565C52.2781 94.9217 52.2936 94.9874 52.3074 95.0535C52.3213 95.1196 52.3335 95.1861 52.344 95.2528C52.3545 95.3196 52.3633 95.3865 52.3705 95.4536C52.3776 95.5208 52.383 95.5882 52.3869 95.6556C52.3906 95.7231 52.3926 95.7906 52.3928 95.8582C52.3932 95.9258 52.3919 95.9933 52.3888 96.0608C52.3857 96.1282 52.3809 96.1956 52.3744 96.2628C52.3678 96.3301 52.3596 96.3972 52.3497 96.464C52.3399 96.5308 52.3283 96.5973 52.3151 96.6635C52.3019 96.7298 52.287 96.7957 52.2705 96.8611C52.254 96.9266 52.2358 96.9916 52.2159 97.0562C52.196 97.1208 52.1745 97.1849 52.1515 97.2484C52.1284 97.3118 52.1038 97.3747 52.0776 97.4369C52.0513 97.4992 52.0235 97.5608 51.9942 97.6216C51.3963 98.8299 50.3753 99.4427 49.1342 99.8415C48.3072 99.8996 47.523 99.873 46.7444 99.5571C45.7046 99.1352 44.8442 98.3111 44.4355 97.2593C44.4112 97.1967 44.3883 97.1336 44.367 97.07C44.3458 97.0064 44.326 96.9423 44.3078 96.8776C44.2897 96.813 44.2733 96.748 44.2584 96.6826C44.2435 96.617 44.2303 96.5512 44.2188 96.4852C44.2071 96.419 44.1971 96.3526 44.1888 96.2861C44.1804 96.2195 44.1738 96.1527 44.1688 96.0858C44.1638 96.0188 44.1604 95.9518 44.1588 95.8847C44.1571 95.8175 44.1571 95.7504 44.1588 95.6833C44.1603 95.6162 44.1636 95.5492 44.1686 95.4823C44.1736 95.4153 44.1803 95.3486 44.1886 95.282C44.1968 95.2153 44.2067 95.1489 44.2182 95.0829C44.2299 95.0167 44.2431 94.9509 44.258 94.8855C44.2728 94.8201 44.2892 94.7551 44.3072 94.6904C44.3253 94.6257 44.345 94.5615 44.3663 94.4979C44.3876 94.4342 44.4104 94.3711 44.4347 94.3086C44.4591 94.246 44.485 94.1841 44.5124 94.1229C45.1034 92.8012 46.0626 92.1943 47.3674 91.6898Z" fill="#F4DAEF"/>
<path d="M47.5348 93.046C48.0261 93.0133 48.5865 92.9482 49.0546 93.1283C49.75 93.3957 50.3553 93.9875 50.6638 94.6626C50.7037 94.7489 50.7389 94.837 50.7696 94.9271C50.8002 95.0171 50.8261 95.1085 50.8473 95.2012C50.8683 95.294 50.8844 95.3876 50.8955 95.4821C50.9068 95.5765 50.9131 95.6713 50.9144 95.7664C50.9155 95.8615 50.9118 95.9564 50.903 96.0512C50.8943 96.1458 50.8807 96.2398 50.8621 96.3332C50.8435 96.4264 50.8201 96.5185 50.7919 96.6093C50.7636 96.7001 50.7306 96.7892 50.693 96.8765C50.3344 97.703 49.7028 98.0073 48.9294 98.3407C48.4209 98.3707 47.9309 98.3965 47.4311 98.2749C46.7173 98.1012 46.0454 97.5598 45.708 96.9113C45.6709 96.8383 45.6373 96.7636 45.6075 96.6872C45.5777 96.6109 45.5518 96.5332 45.5298 96.4542C45.5079 96.3752 45.4898 96.2953 45.4757 96.2145C45.4618 96.1338 45.4518 96.0526 45.4459 95.9708C45.4399 95.8891 45.438 95.8072 45.4404 95.7253C45.4427 95.6433 45.449 95.5617 45.4594 95.4804C45.4698 95.3991 45.4842 95.3184 45.5027 95.2385C45.5212 95.1586 45.5437 95.0799 45.57 95.0023C45.9142 93.963 46.6013 93.5261 47.5348 93.046Z" fill="#FFFCF8"/>
<path d="M291.467 52.4133C293.781 52.0132 296.529 52.3081 298.883 52.3218C298.954 52.9564 298.627 53.5396 298.36 54.0984C297.173 56.5831 294.217 60.0242 291.565 60.9638C290.454 62.1887 287.317 62.7866 285.725 62.9553C285.796 62.9157 285.867 62.8757 285.937 62.832L286.044 62.7635C287.012 62.1518 287.788 61.0433 288.425 60.0985C289.438 58.5958 291.815 54.2221 291.467 52.4133Z" fill="#0A99F3"/>
<path d="M264.931 85.5888C266.24 85.4514 267.223 85.4397 268.377 86.149C269.454 86.8114 270.279 87.9178 270.54 89.1629C270.556 89.2313 270.569 89.3 270.581 89.3691C270.592 89.4381 270.602 89.5074 270.61 89.5771C270.619 89.6466 270.626 89.7163 270.631 89.7862C270.635 89.856 270.637 89.9259 270.638 89.9961C270.641 90.0661 270.641 90.1361 270.638 90.206C270.636 90.276 270.632 90.346 270.627 90.4159C270.622 90.4857 270.615 90.5553 270.606 90.6248C270.597 90.6942 270.586 90.7634 270.573 90.8324C270.562 90.9014 270.547 90.97 270.531 91.0382C270.515 91.1065 270.498 91.1743 270.479 91.2416C270.46 91.309 270.439 91.3759 270.417 91.4422C270.394 91.5087 270.371 91.5745 270.346 91.6396C270.321 91.7049 270.293 91.7694 270.263 91.8332C270.235 91.897 270.205 91.9602 270.173 92.0227C270.141 92.085 270.108 92.1465 270.073 92.2072C270.038 92.268 270.002 92.3278 269.963 92.3866C269.267 93.4515 268.202 94.0517 266.985 94.3105C266.313 94.5298 265.294 94.4071 264.627 94.1966C263.55 93.8568 262.69 93.034 262.187 92.0357C262.151 91.9664 262.117 91.8961 262.087 91.8249C262.054 91.7538 262.024 91.682 261.996 91.6092C261.968 91.5366 261.942 91.4633 261.917 91.3893C261.893 91.3153 261.87 91.2408 261.848 91.1658C261.828 91.0906 261.809 91.015 261.792 90.939C261.776 90.8629 261.761 90.7865 261.748 90.7096C261.735 90.6328 261.724 90.5557 261.713 90.4782C261.705 90.4009 261.697 90.3233 261.692 90.2456C261.687 90.1678 261.684 90.0899 261.683 90.0121C261.681 89.9341 261.682 89.8562 261.685 89.7783C261.687 89.7005 261.692 89.6227 261.698 89.545C261.704 89.4674 261.713 89.39 261.725 89.3128C261.735 89.2355 261.747 89.1587 261.762 89.0821C261.776 89.0055 261.792 88.9293 261.81 88.8535C261.829 88.7777 261.849 88.7025 261.871 88.6277C261.893 88.5529 261.917 88.4788 261.942 88.4053C262.481 86.8916 263.538 86.2377 264.931 85.5888Z" fill="#F9E2DE"/>
<path d="M265.637 87.4697C266.396 87.4255 267.033 87.5402 267.631 88.0378C267.697 88.0935 267.762 88.1524 267.823 88.2146C267.885 88.2767 267.943 88.3417 267.998 88.4095C268.052 88.4775 268.103 88.548 268.152 88.621C268.199 88.6939 268.244 88.7691 268.285 88.8464C268.324 88.9238 268.36 89.003 268.392 89.084C268.426 89.1651 268.454 89.2475 268.479 89.3312C268.503 89.4151 268.523 89.5 268.538 89.5858C268.554 89.6716 268.565 89.7579 268.573 89.8449C268.581 89.9263 268.585 90.008 268.585 90.0898C268.583 90.1716 268.578 90.2532 268.569 90.3345C268.562 90.4158 268.549 90.4966 268.533 90.5767C268.515 90.6568 268.494 90.7358 268.469 90.8137C268.445 90.8917 268.417 90.9683 268.385 91.0434C268.351 91.1186 268.315 91.1919 268.275 91.2633C268.235 91.3348 268.192 91.4041 268.146 91.4713C268.099 91.5385 268.049 91.6031 267.996 91.6652C267.454 92.2953 266.875 92.4632 266.071 92.5273C265.804 92.5057 265.49 92.4273 265.237 92.3399C264.627 92.1298 264.056 91.7062 263.781 91.1115C263.494 90.4923 263.531 89.737 263.794 89.1152C264.15 88.2764 264.823 87.807 265.637 87.4697Z" fill="#FFFCF8"/>
<path d="M64.7711 60.7272L65.878 60.7976C66.3652 62.9188 65.934 67.7309 66.0842 70.3067L66.105 92.1283C65.8419 97.1041 66.023 102.174 66.0144 107.16C66.0115 108.894 66.1844 110.806 65.9953 112.517C65.9513 112.915 65.8146 113.205 65.5257 113.479L65.2128 113.425C64.5159 112.394 64.9684 109.506 64.8009 108.183L64.7711 60.7272Z" fill="#1A2770"/>
<path d="M284.788 108.327C285.352 107.257 285.037 101.474 285.033 99.894L285.013 81.4647C285.015 79.0255 284.79 76.381 284.965 73.9699C284.996 73.5497 285.035 73.386 285.313 73.0587L286.006 73.0287C286.208 73.4437 286.24 73.774 286.254 74.2253C286.394 79.2342 286.519 128.328 286.133 129.349C286.117 129.393 286.096 129.437 286.079 129.481L285.958 129.783C285.523 129.848 285.235 129.774 284.815 129.652C284.873 129.519 284.862 129.554 284.912 129.385C285.188 128.455 285.165 111.345 285.017 109.124C284.998 108.82 284.931 108.598 284.788 108.327Z" fill="#1A2770"/>
<path d="M298.988 40.6141L299.244 40.7151C300.081 41.8896 300.227 44.0582 300.298 45.4879C300.375 47.0301 300.306 50.3595 299.254 51.528L292.535 51.5424C292.477 51.5438 292.417 51.5563 292.36 51.5465C291.983 51.4828 291.942 51.3135 291.935 50.9712C291.865 48.2554 293.192 42.991 291.44 40.6141C293.956 40.6603 296.472 40.6603 298.988 40.6141Z" fill="#0A99F3"/>
<path d="M116.172 21.9232C117.297 21.8697 118.266 21.8481 119.322 22.3183C119.405 22.355 119.487 22.3937 119.568 22.4345C119.649 22.4754 119.729 22.5183 119.808 22.5632C119.887 22.6081 119.965 22.6549 120.042 22.7037C120.119 22.7524 120.194 22.8031 120.268 22.8556C120.342 22.9084 120.415 22.9628 120.486 23.019C120.558 23.0753 120.628 23.1333 120.696 23.1931C120.765 23.2529 120.831 23.3143 120.897 23.3774C120.962 23.4406 121.026 23.5054 121.088 23.5717C121.15 23.6381 121.21 23.706 121.269 23.7754C121.328 23.8448 121.385 23.9157 121.44 23.988C121.495 24.0602 121.548 24.1338 121.6 24.2089C121.651 24.2838 121.7 24.3599 121.748 24.4374C121.796 24.5149 121.841 24.5935 121.885 24.6733C121.928 24.7531 121.97 24.8339 122.009 24.9157C122.049 24.9975 122.086 25.0803 122.122 25.164C122.157 25.2478 122.19 25.3324 122.222 25.4178C122.253 25.5044 122.282 25.5916 122.309 25.6796C122.336 25.7677 122.36 25.8564 122.383 25.9455C122.405 26.0348 122.425 26.1246 122.443 26.2148C122.461 26.3051 122.477 26.3958 122.491 26.4869C122.504 26.5779 122.515 26.6692 122.524 26.7608C122.533 26.8524 122.54 26.9442 122.544 27.0361C122.548 27.1281 122.55 27.22 122.55 27.312C122.55 27.4041 122.547 27.496 122.543 27.5879C122.538 27.6798 122.531 27.7716 122.521 27.8632C122.512 27.9548 122.5 28.046 122.486 28.1369C122.472 28.2279 122.456 28.3184 122.438 28.4086C122.419 28.4987 122.399 28.5884 122.376 28.6775C122.353 28.7667 122.328 28.8552 122.3 28.943C122.273 29.031 122.243 29.1182 122.212 29.2045C122.18 29.2909 122.146 29.3765 122.11 29.4613C122.075 29.546 122.037 29.6297 121.996 29.7126C121.178 31.4096 119.828 32.166 118.111 32.7487C117.081 32.8407 116.127 32.7422 115.164 32.3451C113.739 31.7578 112.66 30.6235 112.102 29.1891C111.58 27.8464 111.552 26.3893 112.166 25.0742C112.981 23.3258 114.463 22.5675 116.172 21.9232Z" fill="#F4DAEF"/>
<path d="M116.394 23.6286C117.029 23.5842 117.64 23.5505 118.254 23.7531C119.268 24.0882 120.136 24.8062 120.593 25.7795C120.997 26.6417 121.052 27.6283 120.707 28.5196C120.229 29.7514 119.245 30.4065 118.086 30.9269C117.374 30.9717 116.669 31.0198 115.989 30.7607C115.019 30.3907 114.199 29.6246 113.793 28.6648C113.747 28.5563 113.705 28.4458 113.67 28.3332C113.634 28.2206 113.605 28.1064 113.58 27.9907C113.556 27.8752 113.538 27.7586 113.525 27.6412C113.513 27.5237 113.506 27.4059 113.506 27.2879C113.505 27.1698 113.51 27.052 113.521 26.9344C113.532 26.8167 113.549 26.7 113.572 26.584C113.594 26.4682 113.623 26.3537 113.657 26.2406C113.691 26.1276 113.731 26.0166 113.776 25.9074C114.281 24.7093 115.235 24.1023 116.394 23.6286Z" fill="#FFFCF8"/>
<path d="M283.042 30.0115C283.571 29.9517 284.142 29.9867 284.66 30.1141C286.381 30.5383 287.808 32.3611 288.65 33.8119C289.436 35.1614 291.063 38.3917 290.663 39.9248L283.99 39.8896L276.031 39.8933C276.998 38.8677 277.815 35.4335 278.742 33.8294C279.75 32.0845 281.027 30.5539 283.042 30.0115Z" fill="#0A99F3"/>
<path d="M276.64 52.4135C278.335 52.2371 280.104 52.3279 281.808 52.3266L290.677 52.3254C290.733 52.5496 290.748 52.7439 290.715 52.9745C290.444 54.8568 288.862 58.912 287.338 60.0471C287.344 60.1827 287.327 60.2678 287.262 60.3884C286.744 61.3378 285.427 62.7874 284.352 63.0945C283.806 63.2507 283.183 63.1093 282.688 62.849C279.627 61.2341 277.617 55.4705 276.64 52.4135Z" fill="#0A99F3"/>
<path d="M34.1192 69.4215C34.3944 69.411 34.6819 69.3944 34.9563 69.4215C35.5127 69.4764 36.0253 69.7268 36.3759 70.1716C36.6527 70.5227 36.7734 70.921 36.7109 71.3648C36.5898 72.2251 36.0411 72.6718 35.3746 73.1343C35.2019 73.1428 35.0302 73.1443 34.8578 73.1286C34.1988 73.0678 33.6298 72.8454 33.213 72.3025C32.9175 71.9173 32.7913 71.4654 32.8832 70.9848C33.0278 70.2293 33.5167 69.825 34.1192 69.4215Z" fill="#FFFCF8"/>
<path d="M276.163 40.6141L290.825 40.6516C291.763 41.7848 291.65 46.4654 291.556 47.9766C291.496 48.9279 291.44 50.8193 290.719 51.4555C289.406 51.8845 278.371 51.5919 276.221 51.6015C276.579 50.5039 275.869 48.1355 275.762 46.9154C275.579 44.8246 276.002 42.6967 276.163 40.6141Z" fill="#0A99F3"/>
<path d="M305.094 75.6705C305.458 75.6563 305.994 75.583 306.34 75.6895C307.577 76.0708 306.708 77.2884 307.15 78.1367C308.708 79.6174 309.444 77.9108 310.99 78.1863C311.352 78.2509 311.633 78.5899 311.846 78.8677C312.363 79.5391 313.598 81.3983 313.477 82.264C313.165 83.2338 311.971 83.5917 311.654 84.5111C311.092 86.1455 313.027 86.285 313.483 87.3618C313.508 87.4199 313.527 87.4801 313.548 87.5392C313.446 88.7216 312.225 91.186 311.325 91.952C310.873 91.4978 310.038 91.1346 309.446 90.8664C308.1 90.9926 307.829 92.7006 306.958 93.5967C306.396 94.1739 305.402 94.0673 304.669 94.0594C304.258 94.0602 303.773 94.0969 303.377 93.9842C302.313 93.6816 302.56 92.5213 302.098 91.6894C302.083 91.6615 302.065 91.6344 302.05 91.6071C301.69 91.0525 300.885 90.8674 300.294 90.6658C299.752 91.1787 298.948 91.3447 298.252 91.5502C298.229 91.4336 298.2 91.3674 298.127 91.2727C297.015 89.8406 296.708 88.5805 295.942 87.0074L295.879 86.8787C296.694 86.5322 297.438 86.1073 297.983 85.3926C298.238 84.0299 296.329 83.6382 295.987 82.4226C295.594 81.0295 297.296 79.442 297.877 78.3223C297.89 78.2983 297.902 78.2736 297.913 78.2494C298.804 78.4449 299.6 79.1186 300.498 79.1926C300.858 79.011 301.188 78.8365 301.45 78.5207C301.91 77.965 301.875 77.4972 301.788 76.8258C301.756 76.5655 301.829 76.4999 301.938 76.2734C302.796 75.7105 304.09 75.748 305.094 75.6705Z" fill="#B7E1F5"/>
<path d="M303.719 83.0238C304.396 82.913 305.01 82.7987 305.671 83.0478C306.379 83.3139 306.998 83.8858 307.306 84.579C307.531 85.0867 307.546 85.6583 307.315 86.1663C306.998 86.8672 306.388 87.2335 305.692 87.4701C305.444 87.6046 305.163 87.6894 304.883 87.6966C304.271 87.7116 303.737 87.5996 303.294 87.1469C302.779 86.6223 302.525 85.699 302.583 84.9747C302.658 84.0617 303.086 83.6084 303.719 83.0238Z" fill="#FFFCF8"/>
<path d="M284.575 73.0129C283.142 72.9954 281.723 72.9883 280.298 72.8329C280.087 72.8113 279.876 72.7871 279.665 72.7601C279.455 72.7333 279.245 72.7038 279.035 72.6717C278.824 72.6395 278.615 72.6046 278.406 72.5672C278.197 72.5297 277.988 72.4897 277.781 72.4471C277.572 72.4044 277.364 72.3591 277.158 72.3111C276.951 72.2633 276.745 72.2128 276.538 72.1597C276.333 72.1066 276.129 72.051 275.925 71.9927C275.72 71.9345 275.516 71.8737 275.313 71.8104C275.111 71.747 274.909 71.6811 274.708 71.6126C274.508 71.5442 274.308 71.4733 274.108 71.3998C273.909 71.3263 273.711 71.2504 273.513 71.172C273.316 71.0935 273.119 71.0126 272.923 70.9292C272.728 70.8457 272.534 70.7599 272.34 70.6716C272.148 70.5834 271.956 70.4927 271.765 70.3996C271.574 70.3065 271.385 70.211 271.196 70.1132C271.008 70.0153 270.821 69.9151 270.635 69.8125C270.449 69.7099 270.264 69.6049 270.081 69.4977C269.897 69.3905 269.715 69.281 269.535 69.1691C269.354 69.0573 269.174 68.9432 268.996 68.8269C268.819 68.7106 268.644 68.592 268.469 68.4714C268.294 68.3505 268.12 68.2276 267.948 68.1026C267.776 67.9774 267.606 67.8502 267.438 67.7209C267.271 67.5915 267.104 67.4599 266.938 67.3263C266.773 67.1928 266.61 67.0572 266.448 66.9194C266.287 66.7818 266.126 66.6421 265.967 66.5004C265.81 66.3587 265.653 66.215 265.498 66.0693C265.344 65.9237 265.192 65.7761 265.04 65.6266C264.889 65.4772 264.74 65.3258 264.592 65.1726C264.446 65.0193 264.301 64.8642 264.158 64.7074C264.014 64.5505 263.873 64.3919 263.735 64.2314C263.595 64.071 263.458 63.9088 263.323 63.7449C263.187 63.581 263.054 63.4154 262.923 63.2482C258.598 57.8076 256.623 50.5305 257.41 43.6399C258.202 36.7217 262.248 29.8857 267.69 25.5992C273.025 21.3966 280.14 19.5713 286.858 20.3949C294.133 21.287 300.385 24.8607 304.885 30.6539C305.022 30.831 305.156 31.0098 305.288 31.1903C305.422 31.3708 305.553 31.553 305.681 31.7366C305.809 31.9203 305.935 32.1055 306.058 32.2922C306.182 32.4791 306.303 32.6674 306.421 32.8571C306.54 33.0469 306.657 33.2381 306.771 33.4308C306.885 33.6234 306.997 33.8174 307.108 34.0129C307.217 34.2082 307.324 34.4049 307.429 34.6029C307.534 34.801 307.636 35.0003 307.735 35.2009C307.835 35.4015 307.932 35.6032 308.027 35.8061C308.122 36.009 308.214 36.2131 308.304 36.4183C308.394 36.6236 308.481 36.8299 308.565 37.0372C308.65 37.2446 308.732 37.453 308.811 37.6624C308.891 37.8717 308.969 38.0821 309.044 38.2934C309.119 38.5047 309.19 38.7168 309.26 38.9298C309.329 39.1429 309.395 39.3567 309.458 39.5714C309.522 39.7861 309.583 40.0016 309.642 40.2178C309.701 40.4339 309.757 40.6508 309.81 40.8685C309.863 41.086 309.914 41.3042 309.962 41.5231C310.01 41.7419 310.056 41.9613 310.098 42.1813C310.14 42.4011 310.18 42.6215 310.217 42.8425C310.254 43.0634 310.289 43.2847 310.321 43.5064C310.353 43.7283 310.382 43.9504 310.408 44.1728C310.435 44.3954 310.458 44.6181 310.479 44.8412C310.499 45.0642 310.517 45.2875 310.533 45.511C310.548 45.7345 310.56 45.9581 310.569 46.1819C310.579 46.4058 310.586 46.6298 310.59 46.8537C310.595 47.0776 310.597 47.3016 310.596 47.5257C310.595 47.7497 310.591 47.9737 310.585 48.1977C310.577 48.4215 310.567 48.6453 310.556 48.8691C310.543 49.0928 310.528 49.3163 310.51 49.5395C310.493 49.7628 310.472 49.9859 310.448 50.2087C310.425 50.4316 310.399 50.6541 310.371 50.8762C309.998 53.8129 308.485 60.1435 306.048 62.0394C305.656 61.3501 304.779 60.8203 304.11 60.4265C306.019 59.0067 307.312 54.065 307.698 51.7546C308.796 45.1907 307.458 38.5389 303.569 33.0974C303.453 32.9323 303.334 32.7686 303.213 32.6064C303.092 32.4443 302.969 32.2836 302.844 32.1245C302.72 31.9653 302.593 31.8077 302.463 31.6516C302.335 31.4956 302.204 31.3412 302.071 31.1883C301.939 31.0356 301.805 30.8844 301.669 30.7349C301.533 30.5855 301.395 30.4377 301.256 30.2916C301.115 30.1456 300.973 30.0012 300.831 29.8586C300.687 29.716 300.542 29.5751 300.394 29.4361C300.248 29.2971 300.099 29.1599 299.948 29.0246C299.798 28.8893 299.646 28.7559 299.492 28.6243C299.34 28.4927 299.185 28.3629 299.027 28.2351C298.87 28.1073 298.712 27.9815 298.552 27.8576C298.393 27.7337 298.232 27.6118 298.069 27.4919C297.906 27.3721 297.742 27.2542 297.575 27.1383C297.41 27.0225 297.243 26.9087 297.075 26.797C296.906 26.6853 296.735 26.5757 296.563 26.4682C296.393 26.3606 296.22 26.2552 296.046 26.152C295.873 26.0487 295.698 25.9476 295.521 25.8486C295.345 25.7497 295.168 25.6529 294.988 25.5583C294.81 25.4637 294.631 25.3714 294.45 25.2812C294.268 25.1911 294.086 25.1031 293.904 25.0175C293.72 24.9318 293.536 24.8484 293.35 24.7674C293.165 24.6863 292.979 24.6075 292.792 24.5309C292.605 24.4544 292.417 24.3802 292.227 24.3083C292.038 24.2364 291.849 24.1669 291.658 24.0998C291.467 24.0326 291.275 23.9677 291.083 23.9051C290.89 23.8427 290.697 23.7826 290.504 23.7249C290.31 23.6671 290.116 23.6119 289.921 23.559C289.726 23.506 289.531 23.4555 289.335 23.4074C289.137 23.3593 288.94 23.3137 288.742 23.2704C288.545 23.2272 288.347 23.1864 288.148 23.1481C287.951 23.1097 287.752 23.0738 287.552 23.0404C281.51 22.0569 275.025 23.4674 270.046 27.0673C264.969 30.7384 261.219 36.3621 260.219 42.5838C259.173 49.0832 260.494 55.661 264.377 61.0225C267.944 65.9498 273.69 69.3554 279.679 70.3069C281.85 70.6518 288.112 71.0075 289.875 69.6472C289.896 69.6307 289.917 69.6122 289.938 69.5947C290.171 70.4658 290.544 71.1461 290.848 71.9691C289.296 72.3048 287.477 72.4704 286.006 73.0287L285.313 73.0587C285.035 73.386 284.996 73.5497 284.965 73.9699C284.79 76.381 285.015 79.0255 285.013 81.4647L285.033 99.894C285.037 101.474 285.352 107.257 284.788 108.327C285.188 106.736 284.869 99.2867 284.863 96.954C284.848 89.3528 285.092 81.6852 284.844 74.0928C284.831 73.6692 284.792 73.3827 284.575 73.0129Z" fill="#B199E4"/>
<path d="M25.1619 137.295L25.3465 137.298C27.1769 137.317 28.9971 137.045 30.8323 137.057C31.1909 137.06 31.5493 137.07 31.9075 137.086C32.2657 137.102 32.6234 137.125 32.9807 137.154C33.3382 137.183 33.6949 137.219 34.0509 137.261C34.4071 137.303 34.7623 137.352 35.1167 137.408C35.4709 137.463 35.8241 137.524 36.1761 137.592C36.5282 137.66 36.8789 137.735 37.2282 137.816C37.5776 137.896 37.9254 137.983 38.2717 138.077C38.6178 138.17 38.9622 138.27 39.3048 138.376C39.6473 138.482 39.9878 138.595 40.3263 138.713C40.6648 138.832 41.0009 138.956 41.3348 139.087C41.6687 139.218 42.0002 139.354 42.3292 139.497C42.6582 139.64 42.9844 139.789 43.3078 139.943C43.6314 140.098 43.9521 140.259 44.2698 140.425C44.5875 140.591 44.902 140.763 45.2134 140.941C45.5248 141.119 45.8329 141.303 46.1376 141.492C46.4424 141.681 46.7436 141.875 47.0413 142.075C47.4407 145.505 47.158 149.224 47.1557 152.68L47.1244 154.088C47.1236 157.26 47.1853 160.461 47.0051 163.629C46.7342 163.589 46.4642 163.544 46.195 163.494C45.9256 163.444 45.6573 163.39 45.3901 163.33C45.123 163.27 44.8569 163.205 44.5921 163.135C44.3273 163.066 44.0639 162.991 43.8019 162.912C43.5398 162.832 43.2794 162.748 43.0205 162.658C42.7617 162.569 42.5046 162.475 42.2492 162.376C41.9938 162.277 41.7403 162.174 41.4888 162.065C41.2373 161.957 40.9878 161.844 40.7405 161.726C40.4932 161.609 40.2482 161.487 40.0053 161.36C39.7626 161.233 39.5223 161.102 39.2844 160.966C39.0466 160.831 38.8113 160.691 38.5786 160.546C38.3459 160.402 38.116 160.253 37.889 160.1C37.6618 159.947 37.4376 159.789 37.2165 159.628C36.9952 159.467 36.777 159.301 36.5619 159.132C36.3468 158.962 36.1349 158.788 35.9263 158.611C35.7177 158.433 35.5125 158.252 35.3105 158.067C29.7607 153.011 25.449 145.707 25.0836 138.097L25.1619 137.295Z" fill="#6E41A3"/>
<path d="M25.1619 137.295C27.0386 137.656 44.6032 150.693 47.1557 152.68L47.1244 154.088C43.1388 151.416 39.2673 148.54 35.3619 145.75C31.9005 143.277 28.3013 140.885 25.0836 138.097L25.1619 137.295Z" fill="#1A2770"/>
<path d="M25.1619 137.295L25.3465 137.298C27.1769 137.317 28.9971 137.045 30.8322 137.057C31.1908 137.06 31.5492 137.07 31.9074 137.086C32.2656 137.102 32.6234 137.125 32.9807 137.154C33.3381 137.183 33.6949 137.219 34.0509 137.261C34.4071 137.303 34.7623 137.352 35.1167 137.408C35.4709 137.463 35.824 137.524 36.1761 137.592C36.5281 137.66 36.8788 137.735 37.2282 137.816C37.5776 137.896 37.9254 137.983 38.2717 138.077C38.6178 138.17 38.9622 138.27 39.3047 138.376C39.6473 138.482 39.9878 138.595 40.3263 138.713C40.6647 138.832 41.0009 138.956 41.3347 139.087C41.6687 139.218 42.0002 139.354 42.3292 139.497C42.6581 139.64 42.9844 139.789 43.3078 139.943C43.6314 140.098 43.952 140.259 44.2697 140.425C44.5874 140.591 44.902 140.763 45.2134 140.941C45.5248 141.119 45.8329 141.303 46.1376 141.492C46.4424 141.681 46.7436 141.875 47.0413 142.075C47.4407 145.505 47.158 149.224 47.1557 152.68C44.6032 150.693 27.0386 137.656 25.1619 137.295Z" fill="#6E41A3"/>
<path d="M49.6597 114.586C51.107 114.624 51.867 114.871 53.1364 115.496C53.7541 116.308 54.5114 117.197 54.6364 118.245C55.0076 121.358 54.7161 125.62 54.7224 128.825L54.7591 150.521L54.8082 166.985C54.8047 169.537 54.9951 172.303 54.6855 174.833C54.6451 175.163 54.5605 175.448 54.4328 175.753C53.9311 176.952 53.2136 177.712 51.9999 178.217C51.5399 178.409 51.0576 178.54 50.5766 178.667C49.7366 178.354 48.9593 178.081 48.3188 177.428C47.7028 176.799 47.2826 175.945 47.1001 175.088C46.5895 172.693 46.9857 166.439 47.0051 163.629C47.1853 160.461 47.1236 157.26 47.1243 154.088L47.1557 152.68C47.158 149.224 47.4407 145.505 47.0413 142.075C46.8984 137.147 47.0024 132.186 46.9966 127.254C46.9934 124.297 46.7103 121.033 47.117 118.106C47.3499 116.43 48.3888 115.552 49.6597 114.586Z" fill="#2E57D6"/>
<path d="M149.558 24.1612C150.828 24.1433 152.27 23.9459 153.273 24.8974C154.424 25.9888 154.327 28.5038 154.43 29.9873C156.021 30.6506 157.392 31.4084 158.783 32.4257C160.254 31.7799 161.655 31.2686 163.282 31.2574C163.807 31.39 164.15 31.5494 164.438 32.0208C165.064 33.0437 165.944 35.1185 165.552 36.3271C165.239 37.2946 163.067 38.1978 162.223 38.7367C162.854 41.0764 162.846 42.8587 162.268 45.2077C163.26 45.7377 165.121 46.4866 165.461 47.675C165.732 48.6219 164.833 50.1302 164.337 50.876C163.917 51.5086 163.129 52.585 162.334 52.7575C161.317 52.978 159.262 51.8081 158.285 51.4236C157.055 52.5032 155.936 53.241 154.34 53.6989C154.191 55.1425 154.24 57.9651 153.011 58.9007C152.051 59.632 150.469 59.3472 149.332 59.2864C148.919 59.1916 148.525 59.0935 148.184 58.8259C146.841 57.7745 146.847 55.1313 146.641 53.573C144.934 52.9476 143.581 52.1989 142.32 50.8749C141.326 51.3218 139.969 51.9339 139.154 52.6334C138.31 51.0811 137.597 49.256 137.013 47.5884C138.159 46.4945 139.69 45.6825 141.024 44.8271C140.57 43.1118 140.528 41.5378 140.881 39.7963L139.12 38.6499C138.285 38.2159 137.446 37.8021 136.688 37.2392C136.775 37.0422 136.758 37.1226 136.782 36.9302C137.047 34.8311 138.41 32.9225 139.874 31.4636C140.475 31.8124 141.848 32.7978 142.522 32.7264C144.019 31.5868 145.422 30.7068 147.158 29.9752C147.119 28.3665 146.965 26.2339 147.992 24.8951C148.428 24.3272 148.895 24.2495 149.558 24.1612Z" fill="#B153B9"/>
<path d="M158.783 32.4257C160.254 31.7799 161.655 31.2685 163.282 31.2574C162.321 32.0419 160.989 33.1906 159.665 33.0529C159.415 33.0267 158.974 32.606 158.783 32.4257Z" fill="#56A0F7"/>
<path d="M142.319 50.8749C142.608 50.706 143.149 50.3202 143.491 50.3926C144.678 50.6444 146.947 52.5842 148.538 53.1771C148.504 55.356 148.825 57.1796 149.332 59.2864C148.918 59.1916 148.525 59.0935 148.184 58.8259C146.841 57.7745 146.847 55.1313 146.641 53.573C144.934 52.9476 143.581 52.1989 142.319 50.8749Z" fill="#56A0F7"/>
<path d="M151.751 38.0327C152.302 37.7101 153.091 37.7221 153.701 37.8756C154.556 38.091 155.17 38.7005 155.603 39.4468C155.643 39.5142 155.681 39.5827 155.717 39.6522C155.754 39.7216 155.788 39.7919 155.821 39.8631C155.854 39.9343 155.885 40.0063 155.914 40.0791C155.943 40.1518 155.971 40.2253 155.996 40.2994C156.022 40.3735 156.045 40.4482 156.067 40.5235C156.089 40.5988 156.109 40.6746 156.127 40.7509C156.144 40.8272 156.16 40.9039 156.174 40.981C156.189 41.0582 156.201 41.1357 156.211 41.2134C156.221 41.2911 156.229 41.3691 156.236 41.4472C156.242 41.5253 156.246 41.6035 156.249 41.6819C156.251 41.7602 156.251 41.8386 156.249 41.917C156.248 41.9953 156.244 42.0736 156.239 42.1519C156.233 42.2301 156.226 42.3081 156.216 42.386C156.207 42.4637 156.195 42.5412 156.182 42.6186C156.169 42.6958 156.153 42.7726 156.136 42.8491C156.119 42.9255 156.1 43.0015 156.079 43.077C155.773 44.208 155.099 45.2492 154.053 45.8156C153.166 46.2958 151.776 46.5009 150.808 46.1578C150.429 46.0232 150.368 45.862 150.217 45.5247C150.677 45.5216 151.148 45.4737 151.591 45.3446C151.653 45.3269 151.713 45.3077 151.774 45.2869C151.834 45.2661 151.894 45.2439 151.953 45.2202C152.012 45.1964 152.07 45.1713 152.128 45.1448C152.186 45.1181 152.244 45.0901 152.3 45.0607C152.357 45.0313 152.412 45.0005 152.467 44.9683C152.522 44.9362 152.577 44.9026 152.63 44.8677C152.683 44.833 152.736 44.7969 152.787 44.7594C152.839 44.722 152.89 44.6833 152.939 44.6434C152.989 44.6034 153.038 44.5622 153.085 44.5199C153.133 44.4776 153.179 44.4341 153.225 44.3895C153.27 44.3448 153.315 44.2991 153.358 44.2523C153.401 44.2055 153.443 44.1576 153.484 44.1088C153.525 44.0598 153.565 44.0099 153.603 43.9591C153.642 43.9082 153.679 43.8564 153.715 43.8038C153.751 43.7511 153.785 43.6976 153.819 43.6432C153.852 43.5887 153.884 43.5335 153.914 43.4776C153.943 43.4233 153.97 43.3684 153.996 43.3127C154.022 43.257 154.046 43.2008 154.07 43.144C154.093 43.0872 154.114 43.0298 154.135 42.9718C154.155 42.9138 154.174 42.8554 154.191 42.7965C154.209 42.7377 154.224 42.6783 154.239 42.6186C154.253 42.5589 154.266 42.4989 154.277 42.4385C154.289 42.3782 154.299 42.3177 154.307 42.2569C154.315 42.1961 154.322 42.1351 154.328 42.0739C154.333 42.0128 154.337 41.9515 154.339 41.8902C154.341 41.8288 154.342 41.7674 154.341 41.7061C154.34 41.6447 154.338 41.5833 154.334 41.522C154.33 41.4607 154.325 41.3996 154.318 41.3387C154.311 41.2776 154.302 41.2168 154.292 41.1563C154.282 41.0957 154.271 41.0355 154.258 40.9754C154.245 40.9154 154.231 40.8558 154.215 40.7965C154.199 40.7371 154.181 40.6783 154.162 40.6199C153.756 39.3587 152.89 38.6309 151.751 38.0327Z" fill="#56A0F7"/>
<path d="M147.158 29.9752C147.119 28.3665 146.965 26.2339 147.992 24.8951C148.428 24.3272 148.895 24.2495 149.558 24.1612L149.847 24.3789C149.822 25.105 149.54 25.8157 149.371 26.5196C149.025 27.9551 148.803 29.4388 148.852 30.918C147.234 31.712 145.637 32.4321 144.297 33.6649C143.674 33.3998 143.045 33.1685 142.522 32.7264C144.019 31.5868 145.422 30.7068 147.158 29.9752Z" fill="#56A0F7"/>
<path d="M150.217 45.5247C150.074 45.4627 149.931 45.3944 149.786 45.3387C149.247 45.1315 148.875 44.9531 148.485 44.521C147.732 43.6849 147.384 42.4879 147.471 41.3769C147.547 40.3971 147.94 39.4131 148.715 38.7798C149.598 38.0577 150.652 37.9065 151.751 38.0327C152.89 38.6308 153.756 39.3586 154.162 40.6199C154.181 40.6782 154.199 40.7371 154.215 40.7965C154.231 40.8558 154.245 40.9154 154.258 40.9754C154.271 41.0354 154.282 41.0957 154.292 41.1563C154.302 41.2168 154.311 41.2776 154.318 41.3386C154.325 41.3996 154.33 41.4607 154.334 41.522C154.338 41.5833 154.34 41.6447 154.341 41.7061C154.342 41.7674 154.341 41.8288 154.339 41.8902C154.337 41.9515 154.333 42.0127 154.328 42.0739C154.322 42.1351 154.315 42.1961 154.307 42.2569C154.299 42.3177 154.289 42.3782 154.277 42.4385C154.266 42.4989 154.253 42.5589 154.239 42.6186C154.224 42.6783 154.208 42.7376 154.191 42.7965C154.174 42.8554 154.155 42.9138 154.135 42.9718C154.114 43.0297 154.093 43.0871 154.07 43.144C154.046 43.2008 154.022 43.257 153.996 43.3127C153.97 43.3683 153.943 43.4233 153.914 43.4775C153.884 43.5335 153.852 43.5887 153.818 43.6432C153.785 43.6976 153.751 43.7511 153.715 43.8038C153.679 43.8564 153.642 43.9082 153.603 43.9591C153.565 44.0099 153.525 44.0598 153.484 44.1088C153.443 44.1576 153.401 44.2055 153.358 44.2523C153.315 44.2991 153.27 44.3448 153.225 44.3894C153.179 44.4341 153.133 44.4776 153.085 44.5199C153.038 44.5622 152.989 44.6034 152.939 44.6434C152.89 44.6833 152.839 44.7219 152.787 44.7594C152.736 44.7968 152.683 44.8329 152.63 44.8677C152.577 44.9026 152.522 44.9361 152.467 44.9683C152.412 45.0005 152.357 45.0313 152.3 45.0607C152.243 45.09 152.186 45.1181 152.128 45.1447C152.07 45.1713 152.012 45.1964 151.953 45.2201C151.893 45.2439 151.834 45.2661 151.773 45.2869C151.713 45.3077 151.653 45.3269 151.591 45.3446C151.148 45.4737 150.677 45.5216 150.217 45.5247Z" fill="#FFFCF8"/>
<path d="M290.885 136.459C290.921 136.442 290.96 136.424 290.996 136.406C292.933 135.449 294.531 133.786 296.502 132.786C302.8 129.587 310.233 128.564 317.223 129.139C318.55 129.248 320.012 129.336 321.3 129.678C322.017 132.03 318.538 140.379 317.35 142.61C317.226 142.843 317.098 143.074 316.967 143.303C316.838 143.533 316.705 143.761 316.569 143.987C316.433 144.213 316.294 144.438 316.152 144.661C316.011 144.883 315.867 145.104 315.721 145.324C315.574 145.543 315.424 145.76 315.271 145.976C315.12 146.192 314.965 146.405 314.808 146.617C314.65 146.829 314.49 147.039 314.327 147.247C314.165 147.454 314.001 147.66 313.833 147.864C313.665 148.068 313.494 148.269 313.321 148.469C313.149 148.668 312.974 148.866 312.796 149.061C312.619 149.256 312.44 149.449 312.258 149.64C312.076 149.831 311.891 150.02 311.704 150.206C311.517 150.392 311.328 150.576 311.137 150.758C310.946 150.94 310.752 151.119 310.556 151.296C310.36 151.473 310.162 151.647 309.962 151.819C309.762 151.991 309.56 152.161 309.356 152.328C309.152 152.495 308.946 152.659 308.737 152.821C308.529 152.983 308.319 153.142 308.106 153.299C307.894 153.456 307.68 153.61 307.463 153.762C307.248 153.913 307.031 154.062 306.812 154.208C306.591 154.354 306.369 154.498 306.146 154.638C305.923 154.779 305.698 154.917 305.471 155.052C305.245 155.187 305.017 155.32 304.787 155.449C304.557 155.579 304.326 155.705 304.092 155.829C303.86 155.953 303.626 156.074 303.39 156.192C303.154 156.31 302.917 156.425 302.679 156.537C302.439 156.65 302.199 156.759 301.958 156.865C301.717 156.972 301.474 157.075 301.231 157.175C300.986 157.276 300.74 157.373 300.494 157.467C300.248 157.562 300.001 157.653 299.752 157.741C299.503 157.829 299.254 157.914 299.004 157.996C298.753 158.079 298.501 158.158 298.248 158.233C297.66 158.416 297.066 158.581 296.467 158.728C295.869 158.875 295.266 159.003 294.66 159.112C294.053 159.221 293.444 159.312 292.831 159.384C292.219 159.456 291.606 159.508 290.99 159.542C291.279 158.26 291.177 137.716 290.885 136.459Z" fill="#6E41A3"/>
<path d="M317.987 131.761C318.46 131.752 318.623 131.727 319.035 131.947L318.952 132.296C317.387 133.92 314.862 135.153 312.929 136.348C310.398 137.897 307.892 139.484 305.412 141.11C302.196 143.214 299.04 145.409 295.833 147.527C294.463 148.431 293.056 149.512 291.587 150.23L291.362 150.519C291.248 150.398 291.146 150.353 291.137 150.18C291.112 149.683 291.194 149.375 291.537 149.007C292.915 147.527 295.117 146.364 296.808 145.239C302.132 141.698 307.529 138.271 313 134.96C314.325 134.144 317.004 132.857 317.987 131.761Z" fill="#1A2770"/>
<path d="M64.8009 108.183C64.9684 109.506 64.5159 112.394 65.2128 113.425L65.5257 113.479C65.8145 113.205 65.9513 112.915 65.9953 112.517C66.1843 110.806 66.0114 108.894 66.0143 107.16C66.023 102.174 65.8418 97.1041 66.1049 92.1283C66.4697 99.1955 66.1607 106.415 66.1559 113.497L86.7051 113.537C87.163 113.901 87.6148 114.273 88.0605 114.652C88.5062 115.031 88.9456 115.417 89.3786 115.811C89.8115 116.204 90.2378 116.605 90.6576 117.012C91.0773 117.42 91.4902 117.834 91.8962 118.256C92.3023 118.677 92.7012 119.105 93.0932 119.539C93.4851 119.974 93.8698 120.414 94.2472 120.862C94.6246 121.309 94.9946 121.762 95.357 122.221C95.7194 122.681 96.0742 123.146 96.4212 123.617C96.7683 124.088 97.1075 124.565 97.4389 125.047C97.7702 125.529 98.0935 126.017 98.4089 126.51C98.7242 127.003 99.0312 127.501 99.3301 128.004C99.6289 128.507 99.9194 129.015 100.201 129.528C100.483 130.04 100.757 130.558 101.022 131.079C101.287 131.601 101.543 132.127 101.791 132.657C102.039 133.188 102.278 133.722 102.508 134.26C102.738 134.798 102.959 135.34 103.171 135.885C103.615 137.029 104.458 138.626 104.595 139.813C104.598 139.842 104.6 139.87 104.602 139.899C104.075 140.051 103.516 140.051 102.971 140.083C105.527 140.303 115.758 139.659 117.35 140.428C117.624 140.814 117.66 140.843 117.645 141.312C117.252 141.719 116.955 141.83 116.382 141.843C112.662 141.925 108.932 141.787 105.207 141.869L88.4443 141.913C82.7497 141.879 77.0552 141.884 71.3607 141.928C69.2384 141.906 61.0889 142.325 59.6218 141.708C59.4614 141.489 59.3274 141.315 59.3197 141.033C59.3136 140.802 59.3541 140.741 59.5191 140.583C60.4461 139.694 68.877 140.096 70.5789 140.096C69.8313 137.341 68.1911 134.568 66.8274 132.059C65.9001 132.059 63.8588 132.319 63.1036 131.891C62.8355 131.883 62.5678 131.891 62.2997 131.894C61.5376 131.904 60.2811 132.104 59.7503 131.429C59.4732 131.076 59.5232 130.85 59.6236 130.463C60.4957 129.708 64.258 130.115 65.5395 130.134C65.1661 129.085 64.4564 128.107 64.0291 127.054C62.6322 127.066 61.182 127.153 59.7965 126.975C59.6278 126.745 59.4209 126.431 59.3876 126.146C59.3488 125.814 59.4355 125.741 59.6176 125.485C60.1964 125.159 60.7093 125.211 61.3513 125.238C61.5691 125.183 61.6753 125.122 61.8676 125.013C61.833 124.858 61.7903 124.703 61.7236 124.558C60.7236 122.392 55.3549 116.294 53.1365 115.496C51.867 114.871 51.107 114.624 49.6597 114.586C50.2351 114.117 51.0128 113.781 51.738 113.639C54.4855 113.099 61.6091 113.513 64.7672 113.484C64.7522 111.717 64.7255 109.95 64.8009 108.183Z" fill="#8996F0"/>
<path d="M65.5395 130.134L73.9188 130.147C74.9845 130.148 76.1993 129.995 77.2426 130.103C77.6063 130.142 77.8634 130.243 78.1263 130.501C78.273 130.941 78.1776 131.222 78.0395 131.652C77.6291 132.057 77.1161 131.997 76.5526 131.994L67.1005 131.881C65.792 131.874 64.4032 131.776 63.1036 131.891C62.8355 131.883 62.5678 131.891 62.2997 131.894C61.5376 131.904 60.2811 132.104 59.7503 131.429C59.4732 131.076 59.5232 130.85 59.6236 130.463C60.4957 129.708 64.258 130.115 65.5395 130.134Z" fill="#FFFCF8"/>
<path d="M61.3513 125.238L61.5028 125.252C64.8566 125.538 79.6464 124.569 81.3278 125.709L81.3349 126.317C80.033 127.028 78.9053 126.954 77.4605 126.939C74.1538 126.846 70.8264 126.907 67.5176 126.896C64.9597 126.887 62.344 126.762 59.7965 126.975C59.6278 126.745 59.4209 126.431 59.3876 126.146C59.3488 125.814 59.4355 125.741 59.6176 125.485C60.1964 125.159 60.7093 125.211 61.3513 125.238Z" fill="#FFFCF8"/>
<path d="M87.3478 140.077C92.5328 140.084 97.7951 140.288 102.971 140.083C105.527 140.303 115.758 139.659 117.35 140.428C117.624 140.814 117.66 140.843 117.645 141.312C117.252 141.719 116.955 141.83 116.382 141.843C112.662 141.925 108.932 141.787 105.207 141.869L88.4443 141.913C82.7497 141.879 77.0552 141.884 71.3607 141.928C69.2384 141.906 61.089 142.325 59.6219 141.708C59.4615 141.489 59.3274 141.315 59.3197 141.033C59.3136 140.802 59.3542 140.741 59.5192 140.583C60.4461 139.694 68.877 140.096 70.579 140.096L87.3478 140.077Z" fill="#FFFCF8"/>
<path d="M226.06 15.9886C230.004 15.6933 233.658 15.8285 237.273 17.5916C237.414 17.6614 237.554 17.7329 237.692 17.8061C237.831 17.8793 237.969 17.9541 238.106 18.0307C238.243 18.1072 238.379 18.1854 238.513 18.2652C238.649 18.3451 238.783 18.4266 238.915 18.5097C239.049 18.5928 239.181 18.6775 239.312 18.7639C239.444 18.8502 239.574 18.9381 239.702 19.0276C239.831 19.1171 239.96 19.2082 240.087 19.3008C240.212 19.3934 240.337 19.4875 240.462 19.5832C240.587 19.6789 240.711 19.7761 240.833 19.8749C240.954 19.9735 241.075 20.0736 241.194 20.1752C241.313 20.2769 241.432 20.3799 241.55 20.4843C241.667 20.5889 241.782 20.6948 241.896 20.8022C242.012 20.9095 242.125 21.0182 242.237 21.1283C242.348 21.2383 242.458 21.3497 242.567 21.4626C242.678 21.5753 242.786 21.6894 242.892 21.8049C242.999 21.9203 243.103 22.0369 243.206 22.1548C243.31 22.2728 243.412 22.392 243.513 22.5124C243.613 22.6329 243.712 22.7545 243.81 22.8774C243.907 23.0003 244.003 23.1243 244.098 23.2495C244.193 23.3746 244.287 23.501 244.379 23.6285C244.47 23.7559 244.56 23.8845 244.648 24.0142C244.737 24.1439 244.824 24.2746 244.91 24.4065C244.994 24.5382 245.078 24.671 245.16 24.8049C245.242 24.9387 245.322 25.0734 245.402 25.2093C245.48 25.345 245.557 25.4817 245.633 25.6194C245.708 25.757 245.782 25.8956 245.854 26.035C245.926 26.1745 245.996 26.3148 246.065 26.4559C246.133 26.5971 246.2 26.7391 246.265 26.8818C246.331 27.0247 246.394 27.1683 246.456 27.3126C246.517 27.457 246.578 27.6021 246.637 27.7478C246.694 27.8936 246.751 28.0401 246.806 28.1874C246.86 28.3345 246.912 28.4823 246.963 28.6308C248.612 33.4575 248.331 39.0343 246.065 43.6059C243.781 48.2129 239.881 51.7727 234.981 53.4203C229.192 55.3666 224.113 54.307 218.804 51.6792C218.154 50.8881 216.477 49.7123 215.562 49.2592C215.546 49.3277 215.525 49.4505 215.492 49.5213C215.113 50.3633 208.873 56.6714 207.94 57.0271C207.565 57.1706 207.204 57.1789 206.837 57.0051C206.442 56.8187 206.077 56.4549 205.938 56.0359C205.158 53.6667 212.25 49.1515 213.365 47.0472C213.392 46.9955 213.417 46.9424 213.444 46.8898C213.45 46.3431 210.692 41.4092 210.273 39.466C210.238 39.3103 210.206 39.1542 210.175 38.9977C210.144 38.8411 210.115 38.6842 210.088 38.527C210.062 38.3697 210.037 38.2122 210.013 38.0545C209.99 37.8966 209.969 37.7385 209.95 37.5801C209.931 37.4217 209.914 37.2631 209.9 37.1043C209.885 36.9455 209.871 36.7866 209.86 36.6276C209.848 36.4684 209.838 36.3092 209.831 36.1499C209.824 35.9905 209.819 35.831 209.815 35.6716C209.812 35.5122 209.81 35.3527 209.812 35.1932C209.812 35.0336 209.814 34.8741 209.819 34.7147C209.823 34.5553 209.83 34.3959 209.838 34.2366C209.846 34.0773 209.856 33.9182 209.869 33.7591C209.881 33.6001 209.895 33.4413 209.912 33.2826C209.928 33.1238 209.946 32.9654 209.965 32.8072C209.986 32.649 210.008 32.491 210.033 32.3332C210.056 32.1756 210.081 32.0182 210.11 31.8611C210.138 31.7041 210.168 31.5474 210.2 31.3911C210.231 31.2348 210.264 31.0789 210.3 30.9234C210.336 30.7678 210.374 30.6128 210.413 30.4582C210.452 30.3037 210.493 30.1497 210.537 29.9961C210.58 29.8426 210.626 29.6896 210.673 29.5371C210.719 29.3847 210.768 29.233 210.819 29.0817C210.869 28.9305 210.922 28.78 210.977 28.63C211.031 28.4801 211.087 28.3309 211.144 28.1824C211.203 28.0337 211.263 27.8859 211.325 27.7389C211.387 27.5918 211.45 27.4455 211.515 27.3001C211.581 27.1545 211.648 27.0098 211.717 26.8661C211.787 26.7222 211.857 26.5792 211.929 26.4372C212.002 26.2951 212.076 26.1539 212.152 26.0136C212.228 25.8733 212.305 25.734 212.385 25.5958C212.464 25.4574 212.545 25.32 212.627 25.1837C212.71 25.0473 212.795 24.912 212.881 24.7778C215.985 19.9909 220.548 17.1631 226.06 15.9886Z" fill="#7C8CDD"/>
<path d="M228.269 26.0771C228.444 26.0581 228.642 26.0253 228.815 26.043C229.108 26.0725 229.267 26.2645 229.433 26.4821C230.169 27.4457 231.294 30.4263 231.113 31.5579C232.613 31.5868 235.79 31.1335 237.019 31.8961C237.158 32.146 237.24 32.2291 237.165 32.5248C236.825 33.8513 233.863 35.7928 232.712 36.425C232.781 36.5092 232.846 36.5922 232.908 36.6834C233.513 37.5912 234.581 40.9381 234.329 42.0347C234.246 42.3977 234.187 42.4152 233.871 42.6032C232.123 42.5181 230.669 40.2438 229.019 39.6282C228.979 39.6133 228.938 39.6006 228.898 39.587L228.76 39.5129C227.931 39.6491 226.26 41.3271 225.464 41.849C224.883 42.2294 224.237 42.6411 223.519 42.4925C222.198 41.0262 224.725 38.3103 224.446 36.5718C224.442 36.5408 224.435 36.5104 224.427 36.4798C224.148 35.2514 221.329 34.3094 220.667 33.1068C220.44 32.6933 220.479 32.4992 220.579 32.0717C221.562 31.2485 224.738 31.6335 226.008 31.6412C227.312 30.4934 227.188 27.5423 228.269 26.0771Z" fill="#FFFCF8"/>
<path d="M53.1365 115.496C55.3549 116.294 60.7236 122.392 61.7236 124.558C61.7903 124.703 61.833 124.858 61.8676 125.013C61.6753 125.122 61.5691 125.183 61.3513 125.238C60.7093 125.211 60.1965 125.159 59.6176 125.485C59.4355 125.741 59.3488 125.814 59.3876 126.146C59.4209 126.431 59.6278 126.745 59.7965 126.975C61.182 127.153 62.6322 127.066 64.0291 127.054C64.4565 128.107 65.1661 129.085 65.5395 130.134C64.258 130.115 60.4957 129.708 59.6236 130.463C59.5232 130.85 59.4732 131.076 59.7503 131.429C60.2811 132.104 61.5376 131.904 62.2997 131.894C62.5678 131.891 62.8355 131.883 63.1036 131.891C63.8588 132.319 65.9001 132.059 66.8274 132.059C68.1911 134.568 69.8313 137.341 70.579 140.096C68.877 140.096 60.4461 139.694 59.5191 140.583C59.3541 140.741 59.3136 140.802 59.3197 141.033C59.3274 141.315 59.4615 141.489 59.6218 141.708C61.089 142.325 69.2384 141.906 71.3607 141.928C77.0552 141.884 82.7497 141.879 88.4443 141.913C88.3111 143.671 89.178 145.582 89.5536 147.283C90.3428 150.86 91.5228 159.319 90.6684 162.797L74.1472 162.798C72.1657 162.796 60.8126 162.53 59.8432 162.89C59.7518 162.924 59.557 163.151 59.4743 163.226C59.3284 163.645 59.329 163.989 59.5099 164.403C59.5709 164.542 59.6624 164.653 59.7561 164.771C63.7605 165.209 69.7514 164.892 73.9636 164.892L90.5545 164.896C89.5878 169.846 88.4568 174.391 86.1814 178.932L69.2822 178.906L39.872 179.048C35.564 179.048 30.9836 179.354 26.704 178.94C28.8324 178.798 31.0026 178.902 33.1378 178.913C36.9762 178.94 40.8145 178.947 44.653 178.934C46.5934 178.926 48.7088 179.075 50.6276 178.814L50.5767 178.667C51.0576 178.54 51.5399 178.409 51.9999 178.217C53.2136 177.712 53.9311 176.952 54.4328 175.753C54.5605 175.448 54.6451 175.163 54.6855 174.833C54.9951 172.303 54.8047 169.537 54.8082 166.985L54.7592 150.521L54.7224 128.825C54.7161 125.62 55.0076 121.358 54.6365 118.245C54.5115 117.197 53.7542 116.308 53.1365 115.496Z" fill="#6680F4"/>
<path d="M73.9636 164.892L90.5545 164.897C89.5878 169.846 88.4568 174.391 86.1814 178.932L69.2822 178.906C70.7957 176.17 71.8845 173.433 72.972 170.512C69.0939 170.536 63.3672 170.892 59.6989 170.455C59.4143 170.008 59.2755 169.756 59.2857 169.207C59.5482 168.759 59.6126 168.729 60.0849 168.503C61.538 168.233 63.2305 168.377 64.712 168.376L73.1939 168.383C73.4843 167.227 73.7409 166.063 73.9636 164.892Z" fill="#8996F0"/>
<path d="M60.0849 168.503C63.1166 168.773 85.0682 168.161 85.8507 168.758C86.013 169.182 86.0184 169.428 85.9268 169.871C85.6214 170.152 85.543 170.232 85.1207 170.307C83.6074 170.575 81.5624 170.306 79.9897 170.31L66.3913 170.352C64.2334 170.36 61.8341 170.168 59.6989 170.455C59.4143 170.008 59.2755 169.756 59.2857 169.207C59.5482 168.759 59.6126 168.729 60.0849 168.503Z" fill="#FFFCF8"/>
<path d="M71.3607 141.928C77.0552 141.884 82.7497 141.879 88.4443 141.913C88.3111 143.671 89.178 145.582 89.5536 147.283C90.3428 150.86 91.5228 159.319 90.6684 162.797L74.1472 162.798C74.3111 161.888 74.2295 160.789 74.2338 159.862C74.2451 157.446 74.2142 155.029 73.8813 152.631C73.6326 150.84 73.1701 149.067 72.9986 147.268L72.9828 147.093C68.9642 147.104 63.6736 147.435 59.8147 147.01C59.7017 146.81 59.5767 146.597 59.5076 146.376C59.3765 145.957 59.5367 145.601 59.7338 145.238C61.1134 144.996 62.7138 145.127 64.1195 145.129L72.2784 145.146C71.939 144.079 71.5993 143.024 71.3607 141.928Z" fill="#8996F0"/>
<path d="M59.7338 145.238C62.7565 145.479 80.2251 144.865 81.5011 145.472C81.7084 145.888 81.6932 146.015 81.6684 146.486C81.3986 146.831 81.3557 146.871 80.8938 146.915C79.4701 147.049 77.9291 146.936 76.4953 146.937L65.8205 146.934C63.8436 146.931 61.7792 146.813 59.8147 147.01C59.7017 146.81 59.5767 146.597 59.5076 146.376C59.3765 145.957 59.5367 145.601 59.7338 145.238Z" fill="#FFFCF8"/>
<path d="M68.1547 29.2185L72.4292 29.2333L86.0447 29.2385C88.2232 29.2351 90.6759 29.013 92.8309 29.3262C93.4366 29.4142 94.0801 29.6491 94.5143 30.0958C96.5401 32.1797 94.4989 44.5139 95.6434 45.2421C95.3149 45.5855 95.3589 45.9593 95.3682 46.4248L95.3714 46.5487C95.3186 49.5199 95.7282 55.3314 95.2151 57.9565C95.0799 58.6487 94.8434 59.2602 94.3366 59.7639C93.8597 60.2379 93.3488 60.4597 92.6916 60.5523C89.6951 60.9748 86.3051 60.6616 83.2703 60.6571L66.0651 60.7304C66.0947 63.9174 66.1913 67.1216 66.0842 70.3067C65.934 67.7309 66.3651 62.9188 65.878 60.7976L64.7711 60.7272C61.9265 60.624 47.9171 61.2214 46.4576 60.2179C45.7809 59.7527 45.2505 59.1283 45.1111 58.2981C44.6355 55.4668 44.994 50.2438 44.9934 47.2082C44.9926 42.5183 44.6476 37.6141 45.0228 32.9461C45.094 32.0623 45.2297 30.7837 45.7713 30.0567C46.4936 29.5408 47.3584 29.3555 48.2309 29.2701C50.3357 29.0636 52.5822 29.2366 54.7021 29.2349L68.1547 29.2185Z" fill="#FBC06E"/>
<path d="M73.9241 53.9564C73.2536 54.6985 71.9493 55.1833 71.0093 55.4359C68.6847 56.0605 66.1357 55.6213 64.0668 54.4295C63.9244 54.3481 63.7842 54.2632 63.6461 54.1748C63.508 54.0864 63.3722 53.9946 63.2386 53.8993C63.1051 53.804 62.9741 53.7055 62.8455 53.6036C62.7169 53.5018 62.591 53.3968 62.4676 53.2887C62.3443 53.1806 62.2238 53.0694 62.1061 52.9551C61.9883 52.841 61.8735 52.7239 61.7617 52.604C61.6497 52.4839 61.541 52.3612 61.4353 52.2358C61.3295 52.1103 61.227 51.9823 61.1276 51.8518C61.0284 51.7212 60.9324 51.5883 60.8397 51.453C60.7472 51.3175 60.658 51.1799 60.5722 51.0401C60.4865 50.9002 60.4043 50.7582 60.3257 50.6142C60.2471 50.4703 60.1722 50.3245 60.1009 50.1767C60.0295 50.029 59.9619 49.8795 59.8982 49.7283C59.8344 49.5772 59.7744 49.4245 59.7182 49.2704C59.662 49.1162 59.6098 48.9607 59.5615 48.8039C59.513 48.6471 59.4686 48.4892 59.4282 48.3302C59.3867 48.1623 59.3492 47.9935 59.3157 47.8239C59.2822 47.6542 59.2529 47.4838 59.2278 47.3127C59.2027 47.1416 59.1817 46.9699 59.1647 46.7977C59.1479 46.6256 59.1353 46.4531 59.1267 46.2804C59.1182 46.1077 59.1139 45.9349 59.1138 45.7619C59.1136 45.5889 59.1177 45.416 59.1259 45.2432C59.1341 45.0705 59.1465 44.898 59.163 44.7259C59.1797 44.5538 59.2004 44.3821 59.2253 44.2109C59.2502 44.0398 59.2792 43.8694 59.3122 43.6996C59.3454 43.5299 59.3827 43.361 59.424 43.193C59.4652 43.0251 59.5106 42.8583 59.5599 42.6924C59.6094 42.5267 59.6628 42.3623 59.7201 42.1992C59.7774 42.036 59.8387 41.8744 59.904 41.7142C59.9691 41.554 60.0381 41.3955 60.1109 41.2386C60.1838 41.0817 60.2604 40.9267 60.3407 40.7736C60.4211 40.6205 60.5051 40.4694 60.5928 40.3204C61.0032 39.6361 61.638 38.5847 62.464 38.3788C60.867 40.9471 60.2182 43.6284 60.9353 46.6301C60.9749 46.7958 61.0186 46.9604 61.0665 47.124C61.1143 47.2876 61.1661 47.4499 61.222 47.6109C61.2778 47.7719 61.3376 47.9313 61.4015 48.0893C61.4653 48.2472 61.533 48.4035 61.6045 48.5582C61.6762 48.7129 61.7516 48.8656 61.8307 49.0164C61.9099 49.1673 61.9929 49.316 62.0795 49.4628C62.1661 49.6095 62.2563 49.754 62.3501 49.8962C62.4438 50.0384 62.5411 50.1782 62.6418 50.3156C62.7426 50.4531 62.8467 50.5879 62.9542 50.72C63.0616 50.8522 63.1722 50.9817 63.2861 51.1084C63.4001 51.2351 63.517 51.3589 63.637 51.4797C63.757 51.6005 63.8801 51.7183 64.0061 51.8331C64.132 51.9478 64.2606 52.0593 64.392 52.1677C64.5236 52.276 64.6577 52.381 64.7943 52.4826C64.931 52.5843 65.0701 52.6825 65.2117 52.7771C65.3532 52.8718 65.497 52.9629 65.6432 53.0505C65.7874 53.1358 65.9338 53.2175 66.0822 53.2956C66.2306 53.3736 66.3808 53.4479 66.5328 53.5184C66.6849 53.5888 66.8386 53.6554 66.994 53.7183C67.1495 53.7811 67.3064 53.8401 67.4647 53.8951C67.6231 53.9501 67.7827 54.0011 67.9436 54.048C68.1043 54.0951 68.2663 54.1381 68.4293 54.1769C68.5924 54.2158 68.7563 54.2506 68.9211 54.2814C69.0858 54.312 69.2513 54.3386 69.4174 54.361C69.5834 54.3835 69.75 54.4017 69.917 54.4159C70.0841 54.4301 70.2513 54.44 70.4188 54.4457C70.5863 54.4514 70.7539 54.4531 70.9215 54.4505C71.089 54.4479 71.2564 54.4411 71.4236 54.4301C71.5909 54.4192 71.7578 54.4041 71.9243 54.3847C72.0908 54.3653 72.2566 54.3419 72.422 54.3143C72.5873 54.2867 72.7518 54.255 72.9155 54.2191C73.0792 54.1833 73.242 54.1434 73.4038 54.0994C73.5777 54.0536 73.7512 54.006 73.9241 53.9564Z" fill="#F79A53"/>
<path d="M62.464 38.3788C64.5899 36.0512 66.7607 34.5004 70.0332 34.3507C72.6493 34.2313 75.3043 35.0737 77.2459 36.8584C77.3719 36.9728 77.4949 37.0904 77.6149 37.2111C77.735 37.3316 77.852 37.4552 77.9659 37.5818C78.0796 37.7084 78.1901 37.8378 78.2974 37.97C78.4047 38.1021 78.5086 38.2369 78.6089 38.3742C78.7095 38.5117 78.8064 38.6516 78.8997 38.794C78.9931 38.9362 79.0827 39.0808 79.1688 39.2278C79.2549 39.3747 79.3372 39.5236 79.4157 39.6745C79.4943 39.8256 79.569 39.9786 79.6397 40.1334C79.7105 40.2882 79.7773 40.4447 79.8403 40.603C79.9031 40.7611 79.962 40.9208 80.0168 41.082C80.0716 41.2432 80.1222 41.4057 80.1688 41.5695C80.2154 41.7332 80.2579 41.898 80.2961 42.0639C80.3343 42.2298 80.3683 42.3965 80.3982 42.5641C80.4281 42.7318 80.4536 42.9 80.4749 43.0689C80.4962 43.2379 80.5132 43.4072 80.5259 43.577C80.5387 43.7468 80.5472 43.9168 80.5513 44.087C80.6245 46.7679 79.6924 49.4185 77.8159 51.3601C76.7115 52.5028 75.293 53.1948 73.9241 53.9565C73.7512 54.006 73.5777 54.0536 73.4038 54.0994C73.242 54.1434 73.0792 54.1833 72.9155 54.2191C72.7518 54.255 72.5873 54.2867 72.422 54.3143C72.2566 54.3419 72.0908 54.3653 71.9243 54.3847C71.7578 54.4041 71.5909 54.4192 71.4236 54.4301C71.2564 54.4411 71.089 54.4479 70.9215 54.4505C70.7539 54.4531 70.5863 54.4515 70.4188 54.4457C70.2513 54.4401 70.0841 54.4301 69.917 54.4159C69.75 54.4018 69.5834 54.3835 69.4174 54.361C69.2513 54.3386 69.0858 54.3121 68.9211 54.2814C68.7563 54.2506 68.5924 54.2158 68.4293 54.1769C68.2663 54.1381 68.1043 54.0951 67.9436 54.048C67.7827 54.0011 67.6231 53.9501 67.4647 53.8951C67.3064 53.8401 67.1495 53.7811 66.994 53.7183C66.8386 53.6555 66.6849 53.5888 66.5328 53.5184C66.3808 53.4479 66.2306 53.3736 66.0822 53.2956C65.9338 53.2175 65.7874 53.1358 65.6432 53.0505C65.497 52.9629 65.3532 52.8718 65.2117 52.7772C65.0701 52.6825 64.931 52.5843 64.7943 52.4826C64.6577 52.381 64.5236 52.2761 64.392 52.1677C64.2606 52.0593 64.132 51.9478 64.0061 51.8331C63.88 51.7183 63.757 51.6005 63.637 51.4797C63.517 51.3589 63.4001 51.2351 63.2861 51.1084C63.1722 50.9817 63.0616 50.8522 62.9542 50.72C62.8467 50.5879 62.7426 50.4531 62.6418 50.3156C62.5411 50.1783 62.4438 50.0385 62.3501 49.8962C62.2563 49.754 62.1661 49.6095 62.0795 49.4628C61.9929 49.3161 61.9099 49.1673 61.8307 49.0165C61.7516 48.8656 61.6762 48.7129 61.6045 48.5582C61.533 48.4035 61.4653 48.2472 61.4015 48.0894C61.3376 47.9314 61.2778 47.7719 61.222 47.6109C61.1661 47.45 61.1143 47.2876 61.0665 47.124C61.0186 46.9605 60.9749 46.7958 60.9353 46.6301C60.2182 43.6284 60.867 40.9472 62.464 38.3788Z" fill="#FFFCF8"/>
<path d="M69.3198 37.6518C70.898 37.5056 72.1557 37.5656 73.5838 38.3159C73.6891 38.372 73.7928 38.4306 73.895 38.4919C73.9973 38.5533 74.098 38.617 74.1971 38.6832C74.2963 38.7495 74.3937 38.8182 74.4894 38.8892C74.5851 38.9603 74.6791 39.0337 74.7711 39.1095C74.8632 39.1852 74.9533 39.2631 75.0415 39.3434C75.1298 39.4236 75.216 39.5059 75.3001 39.5905C75.3842 39.675 75.4662 39.7615 75.5461 39.8502C75.626 39.9387 75.7035 40.0292 75.7788 40.1216C75.8542 40.2141 75.9272 40.3083 75.9978 40.4042C76.0686 40.5003 76.1369 40.5981 76.2026 40.6976C76.2685 40.797 76.3319 40.898 76.3926 41.0006C76.4535 41.1032 76.5118 41.2072 76.5675 41.3127C76.6231 41.4181 76.6761 41.5249 76.7265 41.633C76.7769 41.7411 76.8246 41.8504 76.8696 41.9608C76.9144 42.0714 76.9566 42.1829 76.9961 42.2954C77.0355 42.408 77.0721 42.5215 77.1059 42.6359C77.1359 42.7387 77.1633 42.8422 77.188 42.9464C77.2129 43.0505 77.2351 43.1552 77.2546 43.2605C77.2741 43.3658 77.2909 43.4716 77.3051 43.5778C77.3192 43.6838 77.3307 43.7902 77.3396 43.8969C77.3484 44.0037 77.3546 44.1106 77.358 44.2176C77.3615 44.3247 77.3623 44.4318 77.3603 44.5387C77.3584 44.6458 77.3537 44.7528 77.3463 44.8596C77.339 44.9665 77.329 45.073 77.3163 45.1794C77.3036 45.2857 77.2883 45.3916 77.2703 45.4972C77.2523 45.6027 77.2316 45.7078 77.2082 45.8123C77.1849 45.9168 77.159 46.0207 77.1305 46.124C77.1019 46.2272 77.0708 46.3296 77.0371 46.4312C77.0034 46.5329 76.9671 46.6337 76.9284 46.7334C76.8897 46.8332 76.8484 46.932 76.8046 47.0297C76.7609 47.1274 76.7147 47.224 76.6661 47.3194C76.6175 47.4149 76.5666 47.509 76.5132 47.6019C75.4567 49.447 73.8115 50.371 71.8236 50.9312C71.6443 50.9638 71.4639 50.9891 71.2827 51.0072C71.1012 51.0253 70.9194 51.036 70.7371 51.0393C70.5549 51.0427 70.3728 51.0387 70.1909 51.0274C70.009 51.016 69.8278 50.9973 69.6475 50.9714C69.4671 50.9455 69.288 50.9123 69.1102 50.8718C68.9325 50.8314 68.7566 50.7839 68.5827 50.7292C68.4088 50.6747 68.2374 50.6132 68.0684 50.5447C67.8994 50.4762 67.7336 50.4011 67.5707 50.3193C67.4727 50.2692 67.3758 50.2168 67.2802 50.1621C67.1846 50.1073 67.0905 50.0503 66.9977 49.9911C66.9048 49.9317 66.8136 49.87 66.7238 49.8062C66.6341 49.7424 66.5459 49.6764 66.4592 49.6082C66.3727 49.5401 66.2878 49.47 66.2048 49.3977C66.1217 49.3254 66.0404 49.2511 65.9609 49.1748C65.8813 49.0986 65.8037 49.0205 65.728 48.9405C65.6524 48.8603 65.5787 48.7784 65.5071 48.6948C65.4354 48.6112 65.3658 48.5258 65.2982 48.4387C65.2308 48.3516 65.1655 48.2629 65.1023 48.1727C65.0391 48.0824 64.9782 47.9906 64.9196 47.8974C64.8609 47.8041 64.8044 47.7095 64.7503 47.6136C64.6962 47.5175 64.6446 47.4202 64.5953 47.3217C64.546 47.2232 64.4991 47.1236 64.4548 47.0228C64.4103 46.922 64.3683 46.8201 64.3288 46.7171C64.2893 46.6142 64.2524 46.5105 64.218 46.4058C63.6646 44.6876 63.893 42.7792 64.7342 41.1924C65.7348 39.3052 67.3238 38.2611 69.3198 37.6518Z" fill="#F16F97"/>
<path d="M69.5151 45.28C69.8761 45.3437 70.2134 45.4647 70.5598 45.582C70.665 45.723 70.8348 45.8854 70.8598 46.0597C71.0234 47.1973 70.0798 48.6848 69.4005 49.563L67.469 48.7048C68.1728 47.5763 68.8549 46.4347 69.5151 45.28Z" fill="#FFFCF8"/>
<path d="M69.8886 39.4964C70.2661 39.4593 70.6732 39.4065 71.0499 39.4696C71.648 39.5697 72.2974 39.9198 72.634 40.436C72.9472 40.9171 73.0228 41.492 72.9184 42.0485C72.7363 43.0193 72.0892 43.5426 71.3107 44.0553C71.0618 44.0945 70.8211 44.1159 70.5695 44.0836C69.8417 43.9903 69.188 43.6476 68.7722 43.0243C68.4432 42.531 68.3657 41.8365 68.4799 41.2601C68.6511 40.3962 69.2063 39.9716 69.8886 39.4964Z" fill="#FFFCF8"/>
<path d="M99.0893 91.0344C99.4312 98.4887 99.0847 106.06 99.1068 113.528C100.64 113.53 102.188 113.486 103.72 113.537C106.914 113.539 117.203 113.144 119.567 113.747C120.74 114.047 121.801 114.712 122.647 115.57C123.547 116.483 124.277 117.693 124.561 118.951C125.082 121.259 124.82 123.964 124.814 126.333C124.801 131.266 124.626 136.272 124.836 141.197C125.785 141.203 126.782 141.146 127.721 141.28C126.787 141.326 125.86 141.36 124.924 141.344C124.927 143.075 124.972 144.816 124.921 146.545C124.908 150.215 125.102 154.008 124.826 157.663C124.724 161.406 124.787 165.158 124.796 168.902C124.8 170.758 124.961 172.768 124.667 174.6C124.488 175.71 124.199 176.85 123.365 177.651C122.775 178.217 122.085 178.573 121.343 178.897C119.701 178.929 118.062 178.971 116.42 178.91C113.134 179.238 109.579 178.976 106.26 178.97L86.1814 178.932C88.4568 174.391 89.5878 169.846 90.5545 164.897L73.9635 164.892C69.7514 164.892 63.7605 165.209 59.7561 164.771C59.6624 164.653 59.5709 164.543 59.5099 164.403C59.3289 163.989 59.3284 163.645 59.4743 163.226C59.557 163.151 59.7518 162.924 59.8432 162.89C60.8126 162.53 72.1657 162.796 74.1472 162.798L90.6683 162.797C91.5228 159.319 90.3428 150.86 89.5535 147.283C89.178 145.582 88.311 143.671 88.4443 141.913L105.207 141.869C108.932 141.787 112.662 141.925 116.382 141.843C116.955 141.83 117.252 141.719 117.645 141.312C117.66 140.843 117.624 140.814 117.35 140.428C115.758 139.659 105.527 140.303 102.971 140.083C103.516 140.051 104.075 140.051 104.602 139.899C104.6 139.87 104.598 139.842 104.595 139.813C104.458 138.626 103.615 137.029 103.171 135.885C102.959 135.34 102.738 134.798 102.508 134.26C102.278 133.722 102.039 133.188 101.791 132.657C101.543 132.127 101.287 131.601 101.022 131.079C100.757 130.558 100.483 130.04 100.201 129.528C99.9194 129.015 99.6289 128.507 99.3301 128.004C99.0312 127.501 98.7242 127.003 98.4089 126.51C98.0935 126.017 97.7702 125.529 97.4389 125.047C97.1075 124.565 96.7683 124.088 96.4212 123.617C96.0742 123.146 95.7194 122.681 95.357 122.221C94.9946 121.762 94.6246 121.309 94.2472 120.862C93.8698 120.414 93.4851 119.974 93.0932 119.539C92.7012 119.105 92.3022 118.677 91.8962 118.256C91.4902 117.834 91.0773 117.42 90.6576 117.012C90.2378 116.605 89.8115 116.204 89.3785 115.811C88.9456 115.417 88.5062 115.031 88.0605 114.652C87.6148 114.273 87.163 113.901 86.7051 113.537L98.9476 113.497L98.9881 98.6924C98.996 96.1997 98.7997 93.5034 99.0893 91.0344Z" fill="#A9B4F3"/>
<path d="M97.8305 168.581C100.328 168.625 116.411 168.199 117.327 168.854C117.541 169.215 117.587 169.412 117.539 169.829C117.258 170.162 117.114 170.355 116.642 170.382C111.665 170.666 105.651 170.365 100.586 170.356C98.7168 170.352 96.6615 170.186 94.8151 170.441L94.2605 170.218C94.1147 170.001 93.9538 169.781 93.9063 169.518C93.8395 169.149 93.8974 169.1 94.0957 168.808C95.1424 168.375 96.6945 168.58 97.8305 168.581Z" fill="#FFFCF8"/>
<path d="M90.6683 162.797L107.384 162.817C109.124 162.821 116.782 162.447 117.638 163.38C117.715 163.464 117.772 163.558 117.826 163.657C117.741 164.021 117.741 164.099 117.402 164.313C116.191 165.076 108.977 164.669 107.212 164.676C106.928 165.909 106.752 167.165 106.554 168.414C104.246 168.404 99.8801 168.074 97.8305 168.581C96.6945 168.58 95.1424 168.375 94.0956 168.808C93.8974 169.1 93.8395 169.149 93.9062 169.518C93.9537 169.781 94.1147 170.001 94.2605 170.218L94.8151 170.441C98.2812 170.895 102.361 170.557 105.9 170.544C105.093 173.331 104.266 176.09 103.243 178.809C106.015 178.843 108.787 178.849 111.559 178.826C113.15 178.821 114.846 178.706 116.42 178.91C113.134 179.238 109.579 178.976 106.26 178.97L86.1814 178.932C88.4568 174.391 89.5878 169.846 90.5545 164.897L73.9635 164.892C69.7514 164.892 63.7605 165.209 59.7561 164.771C59.6624 164.653 59.5709 164.543 59.5099 164.403C59.3289 163.989 59.3284 163.645 59.4743 163.226C59.557 163.151 59.7518 162.924 59.8432 162.89C60.8126 162.53 72.1657 162.796 74.1472 162.798L90.6683 162.797Z" fill="#B199E4"/>
<path d="M90.6683 162.797L107.384 162.817C109.124 162.821 116.782 162.447 117.638 163.38C117.715 163.464 117.772 163.558 117.826 163.657C117.741 164.021 117.741 164.099 117.402 164.313C116.191 165.076 108.977 164.669 107.212 164.676L76.0214 164.733C70.7468 164.725 64.9789 164.34 59.7561 164.771C59.6624 164.653 59.5709 164.543 59.5099 164.403C59.3289 163.989 59.3284 163.645 59.4743 163.226C59.557 163.151 59.7518 162.924 59.8432 162.89C60.8126 162.53 72.1657 162.796 74.1472 162.798L90.6683 162.797Z" fill="#FFFCF8"/>
<path d="M88.4443 141.913L105.207 141.869L106.135 145.231C108.224 145.227 116.475 144.736 117.653 145.945C117.674 145.966 117.692 145.989 117.712 146.01C117.695 146.268 117.722 146.292 117.522 146.459C116.266 147.512 108.503 147.026 106.417 147.033C106.671 148.33 106.882 149.635 107.05 150.946C107.218 152.258 107.342 153.573 107.423 154.893C107.503 156.213 107.541 157.534 107.534 158.856C107.528 160.178 107.478 161.499 107.384 162.817L90.6684 162.797C91.5228 159.319 90.3428 150.86 89.5536 147.283C89.178 145.582 88.3111 143.671 88.4443 141.913Z" fill="#B199E4"/>
<path d="M106.135 145.231C108.224 145.227 116.475 144.736 117.653 145.945C117.674 145.966 117.692 145.989 117.712 146.01C117.695 146.267 117.722 146.292 117.522 146.459C116.266 147.512 108.503 147.026 106.417 147.033L96.6238 147.012C94.8909 147.014 93.0176 147.148 91.3038 146.934C90.6447 146.851 90.4778 146.818 90.0763 146.283C90.0797 146.031 90.0347 145.935 90.2132 145.749C90.5578 145.392 91.162 145.283 91.6386 145.229C93.4147 145.027 95.3474 145.19 97.1459 145.208C100.142 145.233 103.138 145.24 106.135 145.231Z" fill="#FFFCF8"/>
<path d="M286.079 129.481C286.104 129.503 286.129 129.527 286.154 129.548C286.667 129.985 287.294 130.162 287.875 130.483C289.519 131.389 290.798 132.638 290.971 134.567C291.025 135.169 291.079 135.88 290.885 136.459C291.177 137.716 291.279 158.26 290.99 159.542C291.35 161.533 291.206 172.951 290.919 175.071C290.821 175.794 290.638 176.409 290.227 177.015C289.585 177.959 288.579 178.576 287.635 179.178C292.113 179.391 321.417 178.798 322.921 179.45C323.371 179.645 323.458 179.787 323.652 180.203C323.575 180.661 323.45 180.871 323.131 181.205C322.848 181.345 322.611 181.413 322.298 181.426C319.058 181.562 315.731 181.402 312.479 181.393L292.613 181.365C275.554 181.354 258.483 181.546 241.425 181.348C219.275 181.09 197.1 181.312 174.946 181.328L75.8878 181.291L40.4484 181.307C37.668 181.31 28.5778 181.675 26.6501 181.131C26.3117 180.835 26.1326 180.714 26.1173 180.226C26.0999 179.683 26.3671 179.321 26.704 178.94C30.9836 179.354 35.564 179.048 39.872 179.048L69.2822 178.906L86.1814 178.932L106.26 178.97C109.579 178.976 113.134 179.238 116.42 178.91C118.062 178.971 119.701 178.929 121.343 178.897C122.085 178.573 122.775 178.217 123.365 177.651C124.199 176.85 124.488 175.71 124.667 174.6C124.961 172.768 124.8 170.758 124.796 168.902C124.787 165.158 124.724 161.406 124.826 157.663C125.102 154.008 124.908 150.215 124.921 146.545C124.972 144.816 124.927 143.075 124.924 141.344C125.86 141.36 126.787 141.326 127.721 141.28C136.175 141.43 144.667 141.253 153.124 141.254L207.713 141.254L226.61 141.249C229.817 141.247 233.069 141.13 236.271 141.256C237.196 139.879 236.175 135.271 237.073 133.016C238.492 129.458 241.813 130.028 244.958 129.97C245.327 129.963 245.923 130.026 246.256 129.86C246.302 129.837 246.346 129.811 246.39 129.787C247.533 129.988 250.067 130.146 251.152 129.757C251.328 129.794 251.504 129.824 251.683 129.848C252.921 130 254.315 129.87 255.565 129.864L262.994 129.869C269.912 129.881 277.387 130.15 284.235 129.867C284.496 129.856 284.61 129.813 284.815 129.652C285.235 129.774 285.523 129.848 285.958 129.783L286.079 129.481Z" fill="#1A2770"/>
<path d="M162.224 157.654C164.851 157.603 187.558 157.282 188.075 157.526C188.081 157.528 188.355 157.757 188.357 157.759C188.365 157.767 188.369 157.778 188.376 157.787C188.783 159.523 189.043 161.279 189.408 163.021C189.862 166.202 190.352 169.378 190.877 172.548C180.405 172.727 169.923 172.446 159.449 172.603C160.121 169.252 160.652 165.861 161.217 162.49C161.492 160.863 161.855 159.262 162.224 157.654Z" fill="#B199E4"/>
<path d="M162.224 157.654C164.851 157.603 187.558 157.282 188.075 157.526C188.081 157.528 188.355 157.757 188.357 157.759C188.365 157.767 188.369 157.778 188.376 157.787C188.783 159.523 189.043 161.279 189.408 163.021C186.728 163.079 162.116 163.258 161.302 162.858L161.217 162.49C161.492 160.863 161.855 159.262 162.224 157.654Z" fill="#6E41A3"/>
<path d="M124.826 157.663L162.224 157.654C161.855 159.262 161.492 160.863 161.217 162.49C160.652 165.861 160.121 169.252 159.449 172.603C156.651 172.629 149.729 172.265 147.341 172.778C146.532 172.951 145.765 173.302 145.174 173.892C144.407 174.657 144.129 175.674 144.153 176.737C144.17 177.506 144.412 178.164 144.7 178.869L121.343 178.897C122.085 178.573 122.775 178.217 123.365 177.651C124.199 176.85 124.488 175.71 124.667 174.6C124.961 172.768 124.8 170.758 124.796 168.902C124.787 165.158 124.724 161.406 124.826 157.663Z" fill="#FFFCF8"/>
<path d="M188.376 157.787C188.548 157.593 188.612 157.636 188.859 157.599L188.925 157.28L189.058 157.524C191.05 157.394 193.117 157.522 195.119 157.523C199.682 157.517 204.245 157.547 208.808 157.614L236.212 157.666C237.506 159.343 235.631 173.309 236.988 176.569C237.562 177.944 239.156 178.045 239.825 179.129C234.508 179.067 228.34 178.752 223.121 179.095L205.162 179.066C205.188 179.041 205.215 179.016 205.242 178.991C205.835 178.415 206.098 177.459 206.085 176.649C206.067 175.573 205.74 174.569 204.952 173.813C204.362 173.245 203.587 172.878 202.792 172.696C200.319 172.128 193.75 172.527 190.877 172.548C190.352 169.378 189.862 166.202 189.408 163.021C189.043 161.279 188.783 159.523 188.376 157.787Z" fill="#FFFCF8"/>
<path d="M127.721 141.28C136.175 141.43 144.667 141.253 153.124 141.254L207.713 141.254L226.61 141.249C229.817 141.247 233.069 141.13 236.271 141.256C236.865 142.159 236.677 144.78 236.506 145.868C236.475 146.056 236.39 146.23 236.296 146.393C236.704 147.247 236.694 156.608 236.404 157.326C236.354 157.449 236.287 157.557 236.212 157.666L208.808 157.614C204.245 157.547 199.682 157.517 195.119 157.523C193.117 157.522 191.05 157.394 189.058 157.524L188.925 157.28L188.859 157.599C188.612 157.636 188.548 157.593 188.376 157.787C188.369 157.778 188.365 157.767 188.357 157.759C188.355 157.757 188.081 157.528 188.075 157.526C187.558 157.282 164.851 157.603 162.224 157.654L124.826 157.663C125.102 154.008 124.908 150.215 124.921 146.545C124.972 144.816 124.927 143.075 124.924 141.344C125.86 141.36 126.787 141.326 127.721 141.28Z" fill="#B199E4"/>
<path d="M127.721 141.28C136.175 141.43 144.667 141.253 153.124 141.254L207.714 141.254L226.61 141.249C229.817 141.247 233.069 141.13 236.271 141.256C236.865 142.159 236.677 144.78 236.506 145.868C236.475 146.056 236.39 146.23 236.296 146.393C235.421 146.755 181.052 146.439 175.215 146.434L124.921 146.545C124.972 144.816 124.927 143.075 124.924 141.344C125.86 141.36 126.787 141.326 127.721 141.28Z" fill="#1A2770"/>
<path d="M286.079 129.481C286.104 129.503 286.129 129.527 286.154 129.548C286.667 129.985 287.294 130.162 287.875 130.483C289.519 131.389 290.798 132.638 290.971 134.567C291.025 135.169 291.079 135.88 290.885 136.459C291.177 137.716 291.279 158.26 290.99 159.542C291.35 161.533 291.206 172.951 290.919 175.071C290.821 175.794 290.638 176.409 290.227 177.015C289.585 177.959 288.579 178.576 287.635 179.178C285.015 179.405 282.267 179.24 279.633 179.237L264.462 179.227L236.735 179.18C232.2 179.159 227.656 179.23 223.121 179.095C228.34 178.752 234.508 179.067 239.825 179.129C239.156 178.045 237.562 177.944 236.988 176.569C235.631 173.309 237.506 159.343 236.212 157.666C236.287 157.557 236.354 157.449 236.404 157.326C236.694 156.608 236.704 147.247 236.296 146.393C236.39 146.23 236.475 146.056 236.506 145.868C236.677 144.78 236.865 142.159 236.271 141.256C237.196 139.879 236.175 135.271 237.073 133.016C238.492 129.458 241.813 130.028 244.958 129.97C245.327 129.963 245.923 130.026 246.256 129.86C246.302 129.837 246.346 129.811 246.39 129.787C247.533 129.988 250.067 130.146 251.152 129.757C251.328 129.794 251.505 129.824 251.683 129.848C252.921 130 254.315 129.87 255.565 129.864L262.994 129.869C269.912 129.881 277.387 130.15 284.235 129.867C284.496 129.856 284.61 129.813 284.815 129.652C285.235 129.774 285.523 129.848 285.958 129.783L286.079 129.481Z" fill="#FBC06E"/>
<path d="M272.381 133.984C273.233 133.828 274.45 133.739 275.202 134.257C275.488 134.454 275.481 134.588 275.546 134.904C275.354 135.282 275.187 135.508 274.85 135.768C274.515 135.953 273.758 136.025 273.373 136.01C272.971 135.994 272.687 135.81 272.448 135.491C272.135 135.072 272.3 134.456 272.381 133.984Z" fill="#FFFCF8"/>
<path d="M277.138 133.984C277.61 133.898 278.094 133.804 278.575 133.813C279.11 133.823 279.863 134.007 280.231 134.415C280.419 134.625 280.371 134.712 280.365 134.989C280.09 135.348 279.848 135.564 279.458 135.794C279.179 135.991 278.31 136.05 277.973 135.992C277.585 135.924 277.302 135.646 277.096 135.321C276.835 134.904 277.01 134.413 277.138 133.984Z" fill="#FFFCF8"/>
<path d="M282.096 133.984C283 133.87 284.413 133.675 285.208 134.283C285.483 134.495 285.469 134.576 285.498 134.914C285.294 135.265 285.092 135.489 284.777 135.745C284.469 136.002 283.517 136.138 283.106 136.083C282.742 136.034 282.404 135.72 282.185 135.444C281.869 135.049 282.027 134.444 282.096 133.984Z" fill="#FFFCF8"/>
<path d="M242.444 159.464C244.119 159.17 256.006 159.056 257.013 159.647C257.313 159.824 257.308 159.98 257.394 160.284C257.248 160.656 257.087 160.788 256.765 161.02C256.502 161.22 256.175 161.236 255.844 161.247C254.537 161.29 243.144 161.386 242.802 161.199C242.688 161.137 242.613 161.02 242.517 160.93C242.304 160.384 242.354 160.02 242.444 159.464Z" fill="#FFFCF8"/>
<path d="M261.421 159.464C263.744 159.008 269.881 159.356 272.54 159.365C276.158 159.378 279.906 159.144 283.502 159.387C284.181 159.433 284.908 159.489 285.5 159.851C285.733 159.993 285.712 160.025 285.781 160.286C285.521 160.689 285.31 160.922 284.902 161.174C283.887 161.524 264.735 161.381 262.3 161.243C261.829 161.216 261.61 161.082 261.298 160.737C261.138 160.254 261.271 159.923 261.421 159.464Z" fill="#FFFCF8"/>
<path d="M242.762 169.211C246.994 168.881 251.427 169.114 255.673 169.112C258.792 169.109 262.004 168.865 265.108 169.065C265.642 169.1 266.469 169.168 266.937 169.459C267.34 169.712 267.344 169.933 267.417 170.363C267.198 170.914 267.192 170.898 266.652 171.15C261.667 171.374 256.588 171.171 251.592 171.155C249.069 171.147 245.663 171.44 243.277 171.023C242.792 170.938 242.687 170.796 242.421 170.414C242.381 169.888 242.475 169.649 242.762 169.211Z" fill="#FFFCF8"/>
<path d="M243.977 164.252C253.537 164.214 263.097 164.245 272.656 164.344C275.083 164.355 283.196 163.918 284.979 164.541C285.404 164.69 285.477 164.876 285.65 165.269C285.583 165.623 285.567 165.739 285.296 166.003C284.771 166.513 283.979 166.379 283.308 166.352C279.288 166.455 243.883 166.65 242.642 166.136C242.496 166.075 242.346 165.76 242.308 165.612C242.198 165.191 242.313 164.947 242.494 164.587C242.904 164.217 243.458 164.268 243.977 164.252Z" fill="#FFFCF8"/>
<path d="M242.669 138.772C245.01 138.488 247.656 138.704 250.031 138.699C255.559 138.68 261.087 138.699 266.615 138.756L279.631 138.807C281.313 138.808 283.135 138.615 284.802 138.741C285.054 138.76 285.319 138.854 285.467 139.065C285.923 139.711 285.846 151.708 285.66 152.831C285.579 153.316 285.477 153.31 285.09 153.592C285.031 153.639 284.998 153.673 284.915 153.692C283.515 154.018 276.006 153.733 273.967 153.732C264.221 153.723 254.433 153.93 244.692 153.721C244.021 153.707 243.331 153.709 242.696 153.467C242.056 152.259 242.217 140.369 242.669 138.772Z" fill="#FFFCF8"/>
<path d="M99.0893 91.0344L99.0939 78.7642C99.0897 76.3473 98.8176 73.607 99.3141 71.2418C99.6005 69.8769 100.248 68.5362 101.253 67.556C102.311 66.5233 104.049 65.7493 105.518 65.6039C107.566 65.4009 109.685 65.5 111.745 65.5017L122.16 65.5154L154.704 65.5123L211.621 65.5154C221.731 65.5065 231.913 65.2676 242.017 65.5079C244.867 65.5756 247.071 66.2001 249.087 68.349C250.227 69.5643 251.044 71.1449 251.29 72.8023C251.602 74.8894 251.388 77.26 251.381 79.3781L251.356 91.8859V117.412C251.348 121.238 251.506 125.122 251.348 128.941C251.342 129.082 251.322 129.221 251.288 129.358C251.255 129.495 251.21 129.628 251.152 129.757C250.067 130.146 247.533 129.988 246.39 129.787C246.346 129.811 246.302 129.837 246.256 129.86C245.923 130.026 245.327 129.963 244.958 129.97C241.813 130.028 238.492 129.458 237.073 133.016C236.175 135.271 237.196 139.879 236.271 141.256C233.069 141.13 229.817 141.247 226.61 141.249L207.713 141.254L153.124 141.254C144.667 141.253 136.175 141.43 127.721 141.28C126.782 141.145 125.785 141.203 124.836 141.197C124.626 136.272 124.801 131.266 124.814 126.333C124.82 123.964 125.082 121.259 124.561 118.951C124.277 117.693 123.547 116.483 122.647 115.57C121.801 114.712 120.74 114.047 119.567 113.747C117.203 113.144 106.914 113.539 103.72 113.537C102.188 113.486 100.64 113.53 99.1068 113.528C99.0847 106.06 99.4312 98.4886 99.0893 91.0344Z" fill="#56A0F7"/>
<path d="M205.613 128.681C206.917 128.462 210.085 128.285 211.298 128.892C211.66 129.073 211.752 129.136 211.875 129.513C211.671 129.904 211.498 130.141 211.142 130.407C210.519 130.806 209.313 130.696 208.579 130.719C207.6 130.748 206.377 130.744 205.619 130.029C205.371 129.566 205.51 129.163 205.613 128.681Z" fill="#FFFCF8"/>
<path d="M126.687 91.1816C127.645 91.4309 128.561 91.6858 129.12 92.5739C129.435 93.0733 129.492 93.6372 129.523 94.2114C129.055 94.7539 128.596 95.3005 127.901 95.5469C127.264 95.7732 126.5 95.7416 125.902 95.4188C125.346 95.1195 124.938 94.5808 124.763 93.9777C124.592 93.3924 124.656 92.7281 124.987 92.2102C125.403 91.5569 125.983 91.3591 126.687 91.1816Z" fill="#2E57D6"/>
<path d="M213.787 128.682C213.825 128.676 213.862 128.67 213.898 128.665C215.379 128.481 222.171 128.198 223.11 129.016C223.383 129.255 223.346 129.42 223.377 129.761C223.137 130.263 223.069 130.243 222.552 130.467C220.425 130.771 216.69 130.786 214.554 130.574C213.985 130.518 213.848 130.389 213.502 129.959C213.413 129.46 213.59 129.124 213.787 128.682Z" fill="#FFFCF8"/>
<path d="M133.693 124.331C135.475 124.251 140.486 123.863 141.884 124.575C142.312 124.793 142.369 124.981 142.511 125.403C142.436 125.97 142.252 126.229 141.899 126.648C140.159 126.753 135.289 127.103 133.832 126.378C133.371 126.148 133.312 125.998 133.135 125.547C133.173 124.998 133.367 124.742 133.693 124.331Z" fill="#FFFCF8"/>
<path d="M215.523 83.5349C217.052 83.3169 223.609 83.2675 225.027 83.5605C225.571 83.673 225.796 83.8283 226.086 84.2856C226.069 84.5101 226.061 84.7427 225.954 84.9451C225.763 85.3027 225.544 85.3054 225.179 85.4368C223.536 85.6859 217.183 85.7383 215.783 85.2925C215.321 85.1452 215.19 84.977 214.99 84.574C215.058 84.0447 215.19 83.9299 215.523 83.5349Z" fill="#FFFCF8"/>
<path d="M206.86 124.578C209.117 124.547 214.562 124.124 216.45 124.764C216.894 124.915 217.102 125.061 217.312 125.477C217.237 125.792 217.162 126.017 216.912 126.237C216.881 126.264 216.848 126.289 216.815 126.316C216.375 126.684 215.665 126.592 215.119 126.595C212.475 126.55 209.34 126.919 206.756 126.486C206.242 126.4 205.731 126.297 205.412 125.85C205.36 125.46 205.425 125.271 205.615 124.931C206.013 124.617 206.375 124.619 206.86 124.578Z" fill="#FFFCF8"/>
<path d="M124.917 128.442L138.225 128.378C139.167 128.381 139.891 128.263 140.599 128.975C140.779 129.506 140.668 129.891 140.543 130.413C138.923 131.032 127.585 130.666 124.938 130.672L124.917 128.442Z" fill="#FFFCF8"/>
<path d="M114.049 106.039C116.574 105.929 127.852 105.722 129.64 106.245C130.034 106.584 130.128 106.666 130.301 107.15C130.24 107.723 130.096 107.958 129.735 108.382C127.796 108.489 115.075 108.719 114.03 108.11C113.645 107.885 113.586 107.691 113.455 107.297C113.52 106.714 113.682 106.464 114.049 106.039Z" fill="#FFFCF8"/>
<path d="M224.673 103.297C225.273 101.481 225.527 99.944 227.404 99.0117C227.879 98.7755 228.462 98.6841 228.91 98.4359C230.425 98.6864 231.644 99.0962 232.583 100.387C233.215 101.259 233.452 102.386 233.279 103.444C233.073 104.707 232.408 105.694 231.458 106.521C230.437 106.998 229.594 107.34 228.438 107.291C226.156 107.194 225.898 104.607 224.735 103.36C224.715 103.338 224.694 103.318 224.673 103.297Z" fill="#7C8CDD"/>
<path d="M133.696 83.103C133.754 81.6752 134.072 80.3441 135.17 79.346C136.049 78.547 137.388 78.0736 138.573 78.1538C139.772 78.2352 140.852 78.8477 141.621 79.759C142.494 80.7929 142.895 82.1782 142.775 83.5195C142.677 84.6144 142.202 85.6667 141.347 86.3757C140.318 87.23 139.129 87.4124 137.835 87.3645C136.94 85.3381 135.747 84.0028 133.696 83.103Z" fill="#2E57D6"/>
<path d="M138.158 108.418L138.997 108.604C140.472 109.154 141.682 109.837 142.358 111.332C142.87 112.465 142.84 113.795 142.391 114.945C142.207 115.418 141.907 115.882 141.621 116.3L141.134 116.902C140.887 116.83 138.962 117.695 138.455 117.768C137.306 117.933 135.904 117.49 135.01 116.767C134.949 116.718 134.889 116.666 134.831 116.614C134.773 116.561 134.716 116.507 134.661 116.451C134.605 116.396 134.551 116.339 134.498 116.281C134.446 116.222 134.395 116.163 134.345 116.102C134.296 116.041 134.248 115.979 134.201 115.915C134.155 115.852 134.11 115.787 134.067 115.722C134.024 115.656 133.983 115.59 133.943 115.522C133.903 115.454 133.865 115.386 133.829 115.316C133.793 115.246 133.758 115.176 133.725 115.104C133.693 115.033 133.662 114.961 133.633 114.888C133.604 114.815 133.577 114.741 133.551 114.667C133.526 114.592 133.503 114.517 133.481 114.442C133.46 114.366 133.44 114.29 133.423 114.214C133.405 114.137 133.389 114.06 133.376 113.983C133.362 113.906 133.35 113.828 133.34 113.75C133.33 113.672 133.323 113.594 133.317 113.516C133.22 112.312 133.561 110.953 134.364 110.029C135.337 108.907 136.736 108.537 138.158 108.418Z" fill="#FBC06E"/>
<path d="M215.283 87.4014C216.763 87.2035 218.283 87.2986 219.77 87.3016L227.44 87.349C232.194 87.3795 236.99 87.0958 241.737 87.2712C242.193 87.2878 242.703 87.3069 243.138 87.5255C243.462 87.6879 243.554 87.8249 243.701 88.251C243.682 88.4083 243.662 88.5885 243.615 88.7326C243.449 89.2325 243.196 89.2999 242.877 89.4867C242.612 89.6858 216.165 89.6392 215.446 89.3459C215.153 89.2259 215.119 89.0297 214.991 88.6589C214.978 88.1421 215.115 87.8289 215.283 87.4014Z" fill="#FFFCF8"/>
<path d="M126.687 91.1816C126.51 90.3426 126.33 89.4694 126.363 88.6079C126.423 87.0521 126.938 85.5205 128.121 84.4607C129.711 83.0374 131.69 82.967 133.696 83.103C135.747 84.0028 136.94 85.3381 137.835 87.3645C138.211 89.2102 138.212 90.7868 137.15 92.4203C137.099 92.4991 137.047 92.5765 136.993 92.6527C136.939 92.7289 136.883 92.8037 136.825 92.8772C136.767 92.9507 136.708 93.0227 136.646 93.0931C136.585 93.1636 136.522 93.2326 136.457 93.3001C136.392 93.3674 136.326 93.4332 136.258 93.4973C136.19 93.5614 136.12 93.6238 136.049 93.6845C135.978 93.7453 135.906 93.8042 135.832 93.8613C135.758 93.9185 135.683 93.9738 135.606 94.0271C135.529 94.0806 135.451 94.1321 135.372 94.1816C135.293 94.2312 135.212 94.2788 135.131 94.3243C135.049 94.37 134.967 94.4136 134.883 94.4552C134.799 94.4967 134.714 94.5361 134.629 94.5735C134.543 94.6109 134.457 94.6462 134.369 94.6793C134.282 94.7124 134.194 94.7433 134.105 94.7722C134.016 94.8009 133.926 94.8275 133.836 94.8518C133.746 94.8762 133.655 94.8983 133.564 94.9182C132.195 95.2029 130.722 94.925 129.523 94.2114C129.492 93.6371 129.435 93.0733 129.12 92.5738C128.561 91.6858 127.645 91.4309 126.687 91.1816Z" fill="#7C8CDD"/>
<path d="M224.673 103.297C224.694 103.318 224.715 103.338 224.735 103.36C225.898 104.607 226.156 107.194 228.438 107.291C229.594 107.34 230.437 106.998 231.458 106.521C231.977 106.916 232.281 107.638 232.471 108.247C233.048 110.09 232.663 112.244 231.744 113.912C230.89 115.457 229.502 116.536 227.81 117.018C227.696 117.051 227.581 117.082 227.465 117.11C227.35 117.137 227.234 117.162 227.117 117.184C227.002 117.206 226.885 117.225 226.767 117.241C226.649 117.257 226.531 117.27 226.413 117.28C226.296 117.29 226.177 117.297 226.058 117.301C225.94 117.305 225.822 117.306 225.704 117.304C225.585 117.302 225.466 117.297 225.348 117.29C225.229 117.282 225.111 117.271 224.994 117.257C224.876 117.243 224.759 117.226 224.642 117.207C224.524 117.187 224.408 117.164 224.292 117.138C224.177 117.113 224.062 117.084 223.946 117.053C223.832 117.021 223.719 116.987 223.606 116.95C223.494 116.913 223.383 116.872 223.271 116.83C223.161 116.787 223.052 116.741 222.944 116.693C222.835 116.645 222.728 116.593 222.623 116.54C222.517 116.486 222.412 116.43 222.31 116.371C220.669 115.422 219.367 113.813 218.89 111.968C218.419 110.149 218.787 108.324 219.731 106.723C220.875 104.782 222.55 103.862 224.673 103.297Z" fill="#2E57D6"/>
<path d="M99.0893 91.0344L99.0939 78.7642C99.0897 76.3473 98.8176 73.607 99.3141 71.2418C99.6005 69.8769 100.248 68.5362 101.253 67.556C102.311 66.5233 104.049 65.7493 105.518 65.6039C107.566 65.4009 109.685 65.5 111.745 65.5017L122.16 65.5154L154.704 65.5123L211.621 65.5154C221.731 65.5065 231.913 65.2676 242.017 65.5079C244.867 65.5756 247.071 66.2001 249.087 68.349C250.227 69.5643 251.044 71.1449 251.29 72.8023C251.602 74.8894 251.388 77.26 251.381 79.3781L251.356 91.8859V117.412C251.348 121.238 251.506 125.122 251.348 128.941C251.342 129.082 251.322 129.221 251.288 129.358C251.255 129.495 251.21 129.628 251.152 129.757C250.067 130.146 247.533 129.988 246.39 129.787C246.473 129.558 246.548 129.325 246.577 129.082C246.819 127.015 246.604 124.671 246.602 122.578L246.592 108.274L246.59 85.6631C246.596 81.8027 246.767 77.8748 246.59 74.0214C246.55 73.1239 246.463 71.9296 245.881 71.2053C244.803 70.9835 243.713 70.8641 242.613 70.8471C236.627 70.7459 230.621 70.8702 224.633 70.8792L188.868 70.8886L133.357 70.843C124.339 70.8411 115.305 70.7438 106.289 70.8382C105.631 70.8452 104.674 70.7795 104.175 71.2634C103.318 74.5631 103.762 82.7309 103.76 86.6354L103.72 113.537C102.188 113.486 100.64 113.53 99.1068 113.528C99.0847 106.06 99.4312 98.4886 99.0893 91.0344Z" fill="#1A2770"/>
<g clip-path="url(#clip1_320_2442)">
<path d="M176.538 103.909C178.305 103.909 179.737 102.483 179.737 100.723C179.737 98.9633 178.305 97.5367 176.538 97.5367C174.771 97.5367 173.339 98.9633 173.339 100.723C173.339 102.483 174.771 103.909 176.538 103.909Z" fill="white"/>
<path d="M176.538 107.251C186.018 107.251 193.702 104.329 193.702 100.723C193.702 97.1176 186.018 94.1949 176.538 94.1949C167.059 94.1949 159.374 97.1176 159.374 100.723C159.374 104.329 167.059 107.251 176.538 107.251Z" stroke="white"/>
<path d="M170.863 103.987C175.602 112.165 181.986 117.333 185.12 115.53C188.255 113.727 186.953 105.637 182.214 97.459C177.474 89.2812 171.091 84.1133 167.956 85.916C164.821 87.7187 166.123 95.8095 170.863 103.987Z" stroke="white"/>
<path d="M170.863 97.459C166.123 105.637 164.822 113.727 167.956 115.53C171.091 117.333 177.474 112.165 182.214 103.987C186.953 95.8095 188.255 87.7187 185.12 85.916C181.986 84.1133 175.602 89.2812 170.863 97.459Z" stroke="white"/>
</g>
<path d="M165.869 129V122.455H167.982C168.446 122.455 168.834 122.539 169.145 122.707C169.458 122.873 169.694 123.104 169.852 123.401C170.011 123.695 170.091 124.032 170.091 124.414C170.091 124.795 170.011 125.132 169.852 125.424C169.694 125.716 169.46 125.944 169.148 126.108C168.837 126.272 168.452 126.354 167.991 126.354H166.192V125.807H167.975C168.316 125.807 168.6 125.751 168.826 125.638C169.054 125.525 169.223 125.364 169.334 125.155C169.447 124.946 169.503 124.699 169.503 124.414C169.503 124.128 169.447 123.879 169.334 123.666C169.221 123.451 169.05 123.284 168.822 123.167C168.597 123.05 168.311 122.991 167.966 122.991H166.467V129H165.869ZM168.755 126.047L170.366 129H169.676L168.081 126.047H168.755ZM173.361 129.102C172.903 129.102 172.506 128.996 172.172 128.783C171.837 128.567 171.578 128.27 171.395 127.891C171.214 127.51 171.124 127.071 171.124 126.574C171.124 126.08 171.214 125.641 171.395 125.257C171.578 124.872 171.831 124.57 172.153 124.353C172.477 124.134 172.85 124.024 173.275 124.024C173.541 124.024 173.798 124.073 174.045 124.171C174.292 124.267 174.513 124.415 174.71 124.615C174.908 124.813 175.064 125.064 175.179 125.366C175.294 125.667 175.352 126.022 175.352 126.434V126.715H171.517V126.213H174.77C174.77 125.898 174.706 125.614 174.578 125.363C174.453 125.109 174.277 124.909 174.051 124.762C173.827 124.615 173.569 124.542 173.275 124.542C172.963 124.542 172.69 124.625 172.453 124.791C172.217 124.957 172.031 125.176 171.897 125.449C171.765 125.722 171.698 126.02 171.696 126.344V126.645C171.696 127.034 171.763 127.375 171.897 127.667C172.033 127.957 172.226 128.182 172.475 128.342C172.725 128.501 173.02 128.581 173.361 128.581C173.593 128.581 173.797 128.545 173.971 128.473C174.148 128.4 174.296 128.303 174.415 128.182C174.537 128.058 174.629 127.923 174.69 127.776L175.23 127.952C175.156 128.158 175.033 128.349 174.863 128.524C174.695 128.699 174.484 128.839 174.23 128.946C173.979 129.05 173.689 129.102 173.361 129.102ZM177.977 129.112C177.68 129.112 177.41 129.054 177.165 128.939C176.92 128.822 176.725 128.654 176.58 128.434C176.435 128.213 176.363 127.944 176.363 127.629C176.363 127.386 176.408 127.181 176.5 127.015C176.592 126.849 176.722 126.713 176.89 126.606C177.058 126.5 177.258 126.415 177.488 126.354C177.718 126.292 177.971 126.244 178.248 126.21C178.523 126.176 178.755 126.146 178.945 126.12C179.137 126.095 179.283 126.054 179.383 125.999C179.483 125.944 179.533 125.854 179.533 125.73V125.615C179.533 125.281 179.433 125.018 179.233 124.826C179.035 124.632 178.749 124.535 178.376 124.535C178.022 124.535 177.734 124.613 177.51 124.768C177.288 124.924 177.133 125.107 177.043 125.318L176.503 125.123C176.614 124.855 176.767 124.641 176.964 124.481C177.16 124.319 177.379 124.203 177.622 124.132C177.865 124.06 178.111 124.024 178.36 124.024C178.548 124.024 178.743 124.048 178.945 124.097C179.15 124.146 179.339 124.232 179.514 124.353C179.689 124.472 179.83 124.64 179.939 124.855C180.048 125.068 180.102 125.338 180.102 125.667V129H179.533V128.223H179.498C179.43 128.368 179.329 128.509 179.194 128.645C179.06 128.782 178.892 128.893 178.689 128.981C178.487 129.068 178.249 129.112 177.977 129.112ZM178.053 128.591C178.356 128.591 178.618 128.524 178.84 128.39C179.061 128.255 179.232 128.077 179.351 127.856C179.472 127.632 179.533 127.386 179.533 127.118V126.408C179.491 126.449 179.419 126.485 179.319 126.517C179.221 126.549 179.107 126.577 178.977 126.603C178.849 126.626 178.721 126.647 178.593 126.664C178.466 126.681 178.351 126.696 178.248 126.708C177.971 126.743 177.735 126.796 177.539 126.868C177.343 126.941 177.193 127.041 177.088 127.169C176.984 127.294 176.932 127.456 176.932 127.654C176.932 127.953 177.038 128.184 177.251 128.348C177.464 128.51 177.732 128.591 178.053 128.591ZM183.533 129.102C183.094 129.102 182.712 128.993 182.386 128.773C182.062 128.554 181.81 128.253 181.631 127.872C181.452 127.49 181.363 127.056 181.363 126.568C181.363 126.076 181.453 125.638 181.634 125.254C181.818 124.871 182.071 124.57 182.395 124.353C182.719 124.134 183.095 124.024 183.523 124.024C183.851 124.024 184.149 124.088 184.415 124.216C184.681 124.341 184.901 124.519 185.073 124.749C185.248 124.977 185.358 125.244 185.403 125.548H184.827C184.768 125.271 184.624 125.035 184.396 124.839C184.17 124.641 183.882 124.542 183.533 124.542C183.22 124.542 182.943 124.627 182.702 124.797C182.461 124.966 182.273 125.201 182.136 125.504C182.002 125.804 181.935 126.152 181.935 126.549C181.935 126.947 182.001 127.3 182.133 127.607C182.265 127.911 182.451 128.15 182.689 128.322C182.93 128.495 183.211 128.581 183.533 128.581C183.75 128.581 183.948 128.541 184.127 128.46C184.309 128.377 184.46 128.26 184.581 128.108C184.705 127.957 184.788 127.777 184.831 127.568H185.406C185.363 127.864 185.258 128.129 185.089 128.361C184.923 128.591 184.707 128.772 184.441 128.904C184.176 129.036 183.874 129.102 183.533 129.102ZM188.559 124.091V124.586H186.216V124.091H188.559ZM186.948 122.915H187.52V127.718C187.52 127.923 187.555 128.084 187.625 128.201C187.696 128.316 187.787 128.398 187.9 128.447C188.013 128.494 188.134 128.517 188.261 128.517C188.336 128.517 188.4 128.513 188.453 128.505C188.506 128.494 188.553 128.483 188.594 128.473L188.715 128.987C188.66 129.009 188.592 129.028 188.511 129.045C188.43 129.064 188.33 129.074 188.21 129.074C188.002 129.074 187.8 129.028 187.606 128.936C187.415 128.844 187.257 128.708 187.133 128.527C187.01 128.346 186.948 128.121 186.948 127.853V122.915Z" fill="white"/>
</g>
<defs>
<clipPath id="clip0_320_2442">
<rect width="350" height="197" rx="24" fill="white"/>
</clipPath>
<clipPath id="clip1_320_2442">
<rect width="35.8887" height="31.8073" fill="white" transform="translate(158.594 84.8194)"/>
</clipPath>
</defs>
</svg>
