<svg width="28" height="25" viewBox="0 0 28 25" fill="none" xmlns="http://www.w3.org/2000/svg">
<g clip-path="url(#clip0_320_3039)">
<path d="M14 15.0045C15.3784 15.0045 16.4957 13.8832 16.4957 12.5C16.4957 11.1168 15.3784 9.99554 14 9.99554C12.6217 9.99554 11.5044 11.1168 11.5044 12.5C11.5044 13.8832 12.6217 15.0045 14 15.0045Z" fill="#3E3E3E"/>
<path d="M13.9999 17.6311C21.3958 17.6311 27.3913 15.3338 27.3913 12.5C27.3913 9.66616 21.3958 7.3689 13.9999 7.3689C6.60413 7.3689 0.608643 9.66616 0.608643 12.5C0.608643 15.3338 6.60413 17.6311 13.9999 17.6311Z" stroke="#3E3E3E"/>
<path d="M9.57202 15.0655C13.2699 21.4931 18.2502 25.555 20.6957 24.1381C23.1412 22.7212 22.126 16.362 18.4281 9.93444C14.7302 3.50687 9.74993 -0.555071 7.3044 0.861841C4.85887 2.27875 5.87412 8.63796 9.57202 15.0655Z" stroke="#3E3E3E"/>
<path d="M9.57183 9.93445C5.87393 16.362 4.85868 22.7212 7.30421 24.1381C9.74974 25.5551 14.73 21.4931 18.4279 15.0655C22.1258 8.63797 23.141 2.27876 20.6955 0.861853C18.25 -0.555059 13.2697 3.50688 9.57183 9.93445Z" stroke="#3E3E3E"/>
</g>
<defs>
<clipPath id="clip0_320_3039">
<rect width="28" height="25" fill="white"/>
</clipPath>
</defs>
</svg>
